STARTFONT 2.1
COMMENT
COMMENT Converted from TrueType font "arial.ttf" by "ttf2bdf 2.6".
COMMENT
FONT -FreeType-Arial-Medium-R-Normal--17-120-100-100-P-81-ISO10646-1
SIZE 12 100 100
FONTBOUNDINGBOX 30 23 -11 -6
STARTPROPERTIES 22
FOUNDRY "FreeType"
FAMILY_NAME "Arial"
WEIGHT_NAME "Medium"
SLANT "R"
SETWIDTH_NAME "Normal"
ADD_STYLE_NAME ""
PIXEL_SIZE 17
POINT_SIZE 120
RESOLUTION_X 100
RESOLUTION_Y 100
SPACING "P"
AVERAGE_WIDTH 81
CHARSET_REGISTRY "ISO10646"
CHARSET_ENCODING "1"
FONT_ASCENT 15
FONT_DESCENT 3
COPYRIGHT "Typeface © The Monotype Corporation plc. Data © The Monotype Corporation plc/Type Solutions Inc. 1990-1992. All Rights Reserved"
_TTF_FONTFILE "arial.ttf"
_TTF_PSNAME "ArialMT"
_XFREE86_GLYPH_RANGES "32_126 160_383 399 402 416_417 431_432 461_476 506_511 601 710_711 713 728_733 768_769 771 777 803 894 900_906 908 910_929 931_974 1025_1036 1038_1103 1105_1116 1118_1119 1168_1171 1174_1175 1178_1181 1186_1187 1198_1203 1208_1211 1240_1241 1256_1257 1456_1475 1488_1514 1520_1524 1548 1563 1567 1569_1594 1600_1621 1632_1773 1776_1790 7808_7813 7840_7929 8204_8207 8211_8213 8215_8222 8224_8226 8230 8234_8238 8240 8242_8243 8249_8250 8252 8254 8260 8298_8303 8319 8355_8356 8359"
_XFREE86_GLYPH_RANGES "8362_8364 8453 8467 8470 8482 8486 8494 8531_8532 8539_8542 8592_8597 8616 8706 8710 8719 8721_8722 8725 8729_8730 8734_8735 8745 8747 8776 8800_8801 8804_8805 8962 8976 8992_8993 9472 9474 9484 9488 9492 9496 9500 9508 9516 9524 9532 9552_9580 9600 9604 9608 9612 9616_9619 9632_9633 9642_9644 9650 9658 9660 9668 9674_9675 9679 9688_9689 9702 9786_9788 9792 9794 9824 9827 9829_9830 9834_9835 59393_59397 59416 59450 61441_61442 61444_61489 64257_64258 64285_64288 64298_64310"
_XFREE86_GLYPH_RANGES "64312_64316 64318 64320_64321 64323_64324 64326_64433 64467_64487 64508_64511 64606_64610 64830_64831 65010 65152_65276 65532"
ENDPROPERTIES
CHARS 1419
STARTCHAR 0020
ENCODING 32
SWIDTH 300 0
DWIDTH 5 0
BBX 1 1 0 0
BITMAP
00
ENDCHAR
STARTCHAR 0021
ENCODING 33
SWIDTH 300 0
DWIDTH 5 0
BBX 1 12 2 0
BITMAP
80
80
80
80
80
80
80
80
80
80
00
80
ENDCHAR
STARTCHAR 0022
ENCODING 34
SWIDTH 360 0
DWIDTH 6 0
BBX 4 4 1 8
BITMAP
90
90
90
90
ENDCHAR
STARTCHAR 0023
ENCODING 35
SWIDTH 540 0
DWIDTH 9 0
BBX 9 12 0 0
BITMAP
0900
0900
1200
1200
FF80
1200
2400
2400
FF80
2400
4800
4800
ENDCHAR
STARTCHAR 0024
ENCODING 36
SWIDTH 540 0
DWIDTH 9 0
BBX 7 15 1 -2
BITMAP
10
3C
56
92
90
90
70
1C
12
92
92
54
38
10
10
ENDCHAR
STARTCHAR 0025
ENCODING 37
SWIDTH 900 0
DWIDTH 15 0
BBX 13 12 1 0
BITMAP
7040
8880
8880
8900
8900
8A70
7288
0488
0888
0888
1088
1070
ENDCHAR
STARTCHAR 0026
ENCODING 38
SWIDTH 660 0
DWIDTH 11 0
BBX 9 12 1 0
BITMAP
1C00
2200
2200
2200
1400
3800
4800
8480
8500
8200
4300
3C80
ENDCHAR
STARTCHAR 0027
ENCODING 39
SWIDTH 180 0
DWIDTH 3 0
BBX 1 4 1 8
BITMAP
80
80
80
80
ENDCHAR
STARTCHAR 0028
ENCODING 40
SWIDTH 360 0
DWIDTH 6 0
BBX 3 15 1 -3
BITMAP
20
40
40
40
80
80
80
80
80
80
80
40
40
40
20
ENDCHAR
STARTCHAR 0029
ENCODING 41
SWIDTH 360 0
DWIDTH 6 0
BBX 3 15 2 -3
BITMAP
80
40
40
40
20
20
20
20
20
20
20
40
40
40
80
ENDCHAR
STARTCHAR 002A
ENCODING 42
SWIDTH 420 0
DWIDTH 7 0
BBX 5 5 1 7
BITMAP
20
F8
20
50
50
ENDCHAR
STARTCHAR 002B
ENCODING 43
SWIDTH 600 0
DWIDTH 10 0
BBX 7 7 1 3
BITMAP
10
10
10
FE
10
10
10
ENDCHAR
STARTCHAR 002C
ENCODING 44
SWIDTH 300 0
DWIDTH 5 0
BBX 1 3 2 -2
BITMAP
80
80
80
ENDCHAR
STARTCHAR 002D
ENCODING 45
SWIDTH 360 0
DWIDTH 6 0
BBX 5 1 0 4
BITMAP
F8
ENDCHAR
STARTCHAR 002E
ENCODING 46
SWIDTH 300 0
DWIDTH 5 0
BBX 1 1 2 0
BITMAP
80
ENDCHAR
STARTCHAR 002F
ENCODING 47
SWIDTH 300 0
DWIDTH 5 0
BBX 5 12 0 0
BITMAP
08
10
10
10
20
20
20
40
40
40
80
80
ENDCHAR
STARTCHAR 0030
ENCODING 48
SWIDTH 540 0
DWIDTH 9 0
BBX 7 12 1 0
BITMAP
38
44
82
82
82
82
82
82
82
82
44
78
ENDCHAR
STARTCHAR 0031
ENCODING 49
SWIDTH 540 0
DWIDTH 9 0
BBX 4 12 2 0
BITMAP
10
30
50
90
10
10
10
10
10
10
10
10
ENDCHAR
STARTCHAR 0032
ENCODING 50
SWIDTH 540 0
DWIDTH 9 0
BBX 7 12 1 0
BITMAP
38
44
82
02
02
04
04
08
10
20
40
FE
ENDCHAR
STARTCHAR 0033
ENCODING 51
SWIDTH 540 0
DWIDTH 9 0
BBX 7 12 1 0
BITMAP
38
44
84
04
0C
38
04
02
02
82
C4
78
ENDCHAR
STARTCHAR 0034
ENCODING 52
SWIDTH 540 0
DWIDTH 9 0
BBX 8 12 0 0
BITMAP
04
0C
14
14
24
24
44
84
FF
04
04
04
ENDCHAR
STARTCHAR 0035
ENCODING 53
SWIDTH 540 0
DWIDTH 9 0
BBX 7 12 1 0
BITMAP
7E
40
40
80
F8
84
02
02
02
82
44
38
ENDCHAR
STARTCHAR 0036
ENCODING 54
SWIDTH 540 0
DWIDTH 9 0
BBX 7 12 1 0
BITMAP
38
46
82
80
B8
C4
82
82
82
82
44
38
ENDCHAR
STARTCHAR 0037
ENCODING 55
SWIDTH 540 0
DWIDTH 9 0
BBX 7 12 1 0
BITMAP
FE
04
04
08
08
10
10
10
20
20
20
20
ENDCHAR
STARTCHAR 0038
ENCODING 56
SWIDTH 540 0
DWIDTH 9 0
BBX 7 12 1 0
BITMAP
38
44
82
82
44
38
44
82
82
82
44
38
ENDCHAR
STARTCHAR 0039
ENCODING 57
SWIDTH 540 0
DWIDTH 9 0
BBX 7 12 1 0
BITMAP
38
44
82
82
82
82
46
3A
02
82
44
78
ENDCHAR
STARTCHAR 003A
ENCODING 58
SWIDTH 300 0
DWIDTH 5 0
BBX 1 9 2 0
BITMAP
80
00
00
00
00
00
00
00
80
ENDCHAR
STARTCHAR 003B
ENCODING 59
SWIDTH 300 0
DWIDTH 5 0
BBX 1 11 2 -2
BITMAP
80
00
00
00
00
00
00
00
80
80
80
ENDCHAR
STARTCHAR 003C
ENCODING 60
SWIDTH 600 0
DWIDTH 10 0
BBX 8 9 1 2
BITMAP
01
06
18
60
80
60
18
06
01
ENDCHAR
STARTCHAR 003D
ENCODING 61
SWIDTH 600 0
DWIDTH 10 0
BBX 8 5 1 3
BITMAP
FF
00
00
00
FF
ENDCHAR
STARTCHAR 003E
ENCODING 62
SWIDTH 600 0
DWIDTH 10 0
BBX 8 9 1 2
BITMAP
80
60
18
06
01
06
18
60
80
ENDCHAR
STARTCHAR 003F
ENCODING 63
SWIDTH 540 0
DWIDTH 9 0
BBX 7 12 1 0
BITMAP
38
44
82
82
02
04
08
10
10
10
00
10
ENDCHAR
STARTCHAR 0040
ENCODING 64
SWIDTH 1020 0
DWIDTH 17 0
BBX 16 16 1 -4
BITMAP
07F0
180C
2002
4392
4471
4821
9021
9021
9041
9042
88C4
4778
4001
2002
180C
07F0
ENDCHAR
STARTCHAR 0041
ENCODING 65
SWIDTH 660 0
DWIDTH 11 0
BBX 11 12 0 0
BITMAP
0400
0A00
0A00
1100
1100
1100
2080
3F80
4040
4040
8020
8020
ENDCHAR
STARTCHAR 0042
ENCODING 66
SWIDTH 660 0
DWIDTH 11 0
BBX 9 12 1 0
BITMAP
FF00
8100
8080
8080
8100
FF00
8100
8080
8080
8080
8100
FE00
ENDCHAR
STARTCHAR 0043
ENCODING 67
SWIDTH 720 0
DWIDTH 12 0
BBX 10 12 1 0
BITMAP
1F00
2080
4040
8000
8000
8000
8000
8000
8000
4040
6080
1F00
ENDCHAR
STARTCHAR 0044
ENCODING 68
SWIDTH 720 0
DWIDTH 12 0
BBX 10 12 1 0
BITMAP
FE00
8100
8080
8040
8040
8040
8040
8040
8040
8080
8100
FE00
ENDCHAR
STARTCHAR 0045
ENCODING 69
SWIDTH 660 0
DWIDTH 11 0
BBX 9 12 1 0
BITMAP
FF80
8000
8000
8000
8000
FF00
8000
8000
8000
8000
8000
FF80
ENDCHAR
STARTCHAR 0046
ENCODING 70
SWIDTH 600 0
DWIDTH 10 0
BBX 8 12 1 0
BITMAP
FF
80
80
80
80
FE
80
80
80
80
80
80
ENDCHAR
STARTCHAR 0047
ENCODING 71
SWIDTH 720 0
DWIDTH 12 0
BBX 10 12 1 0
BITMAP
1E00
2100
4080
8000
8000
8000
87C0
8040
8040
4080
2100
1E00
ENDCHAR
STARTCHAR 0048
ENCODING 72
SWIDTH 660 0
DWIDTH 11 0
BBX 9 12 1 0
BITMAP
8080
8080
8080
8080
8080
FF80
8080
8080
8080
8080
8080
8080
ENDCHAR
STARTCHAR 0049
ENCODING 73
SWIDTH 300 0
DWIDTH 5 0
BBX 1 12 2 0
BITMAP
80
80
80
80
80
80
80
80
80
80
80
80
ENDCHAR
STARTCHAR 004A
ENCODING 74
SWIDTH 540 0
DWIDTH 9 0
BBX 7 12 1 0
BITMAP
02
02
02
02
02
02
02
02
82
82
44
78
ENDCHAR
STARTCHAR 004B
ENCODING 75
SWIDTH 660 0
DWIDTH 11 0
BBX 9 12 1 0
BITMAP
8080
8100
8200
8400
8800
9800
A400
C400
8200
8100
8100
8080
ENDCHAR
STARTCHAR 004C
ENCODING 76
SWIDTH 540 0
DWIDTH 9 0
BBX 7 12 1 0
BITMAP
80
80
80
80
80
80
80
80
80
80
80
FE
ENDCHAR
STARTCHAR 004D
ENCODING 77
SWIDTH 780 0
DWIDTH 13 0
BBX 11 12 1 0
BITMAP
8020
C060
C060
A0A0
A0A0
9120
9120
9220
8A20
8A20
8420
8420
ENDCHAR
STARTCHAR 004E
ENCODING 78
SWIDTH 660 0
DWIDTH 11 0
BBX 9 12 1 0
BITMAP
8080
C080
A080
A080
9080
8880
8880
8480
8280
8280
8180
8080
ENDCHAR
STARTCHAR 004F
ENCODING 79
SWIDTH 720 0
DWIDTH 12 0
BBX 10 12 1 0
BITMAP
1E00
2100
4080
8040
8040
8040
8040
8040
8040
4080
2180
1E00
ENDCHAR
STARTCHAR 0050
ENCODING 80
SWIDTH 660 0
DWIDTH 11 0
BBX 9 12 1 0
BITMAP
FE00
8100
8080
8080
8080
8100
FE00
8000
8000
8000
8000
8000
ENDCHAR
STARTCHAR 0051
ENCODING 81
SWIDTH 720 0
DWIDTH 12 0
BBX 10 12 1 0
BITMAP
1E00
2100
4080
8040
8040
8040
8040
8040
8040
46C0
2180
1EC0
ENDCHAR
STARTCHAR 0052
ENCODING 82
SWIDTH 660 0
DWIDTH 11 0
BBX 9 12 1 0
BITMAP
FE00
8100
8080
8080
8080
8100
FE00
8400
8200
8200
8100
8080
ENDCHAR
STARTCHAR 0053
ENCODING 83
SWIDTH 660 0
DWIDTH 11 0
BBX 9 12 1 0
BITMAP
3E00
4100
8080
8000
4000
3800
0700
0080
8080
8080
4100
3E00
ENDCHAR
STARTCHAR 0054
ENCODING 84
SWIDTH 540 0
DWIDTH 9 0
BBX 9 12 0 0
BITMAP
FF80
0800
0800
0800
0800
0800
0800
0800
0800
0800
0800
0800
ENDCHAR
STARTCHAR 0055
ENCODING 85
SWIDTH 660 0
DWIDTH 11 0
BBX 9 12 1 0
BITMAP
8080
8080
8080
8080
8080
8080
8080
8080
8080
8080
4100
3E00
ENDCHAR
STARTCHAR 0056
ENCODING 86
SWIDTH 660 0
DWIDTH 11 0
BBX 9 12 1 0
BITMAP
8080
8080
4080
4100
4100
2200
2200
2200
1400
1400
0800
0800
ENDCHAR
STARTCHAR 0057
ENCODING 87
SWIDTH 1020 0
DWIDTH 17 0
BBX 17 12 0 0
BITMAP
808080
414100
414100
414100
222200
222200
222200
141400
141400
141400
080800
080800
ENDCHAR
STARTCHAR 0058
ENCODING 88
SWIDTH 660 0
DWIDTH 11 0
BBX 11 12 0 0
BITMAP
4040
2080
1100
1100
0A00
0400
0A00
1100
1100
2080
4040
8020
ENDCHAR
STARTCHAR 0059
ENCODING 89
SWIDTH 660 0
DWIDTH 11 0
BBX 9 12 1 0
BITMAP
8080
4100
4100
2200
1400
1400
0800
0800
0800
0800
0800
0800
ENDCHAR
STARTCHAR 005A
ENCODING 90
SWIDTH 540 0
DWIDTH 9 0
BBX 9 12 0 0
BITMAP
7F80
0100
0200
0200
0400
0800
0800
1000
2000
2000
4000
FF80
ENDCHAR
STARTCHAR 005B
ENCODING 91
SWIDTH 300 0
DWIDTH 5 0
BBX 3 15 1 -3
BITMAP
E0
80
80
80
80
80
80
80
80
80
80
80
80
80
E0
ENDCHAR
STARTCHAR 005C
ENCODING 92
SWIDTH 300 0
DWIDTH 5 0
BBX 5 12 0 0
BITMAP
80
80
40
40
40
20
20
20
10
10
10
08
ENDCHAR
STARTCHAR 005D
ENCODING 93
SWIDTH 300 0
DWIDTH 5 0
BBX 3 15 1 -3
BITMAP
E0
20
20
20
20
20
20
20
20
20
20
20
20
20
E0
ENDCHAR
STARTCHAR 005E
ENCODING 94
SWIDTH 420 0
DWIDTH 7 0
BBX 7 7 0 5
BITMAP
10
28
28
48
44
44
82
ENDCHAR
STARTCHAR 005F
ENCODING 95
SWIDTH 540 0
DWIDTH 9 0
BBX 9 1 0 -3
BITMAP
FF80
ENDCHAR
STARTCHAR 0060
ENCODING 96
SWIDTH 360 0
DWIDTH 6 0
BBX 2 2 1 10
BITMAP
80
40
ENDCHAR
STARTCHAR 0061
ENCODING 97
SWIDTH 540 0
DWIDTH 9 0
BBX 7 9 1 0
BITMAP
3C
42
82
0E
72
82
82
86
7A
ENDCHAR
STARTCHAR 0062
ENCODING 98
SWIDTH 540 0
DWIDTH 9 0
BBX 7 12 1 0
BITMAP
80
80
80
B8
C4
82
82
82
82
82
C4
B8
ENDCHAR
STARTCHAR 0063
ENCODING 99
SWIDTH 540 0
DWIDTH 9 0
BBX 7 9 1 0
BITMAP
38
44
82
80
80
80
82
44
38
ENDCHAR
STARTCHAR 0064
ENCODING 100
SWIDTH 540 0
DWIDTH 9 0
BBX 7 12 1 0
BITMAP
02
02
02
3A
46
82
82
82
82
82
46
3A
ENDCHAR
STARTCHAR 0065
ENCODING 101
SWIDTH 540 0
DWIDTH 9 0
BBX 7 9 1 0
BITMAP
38
44
82
82
FE
80
82
44
38
ENDCHAR
STARTCHAR 0066
ENCODING 102
SWIDTH 300 0
DWIDTH 5 0
BBX 4 12 1 0
BITMAP
30
40
40
F0
40
40
40
40
40
40
40
40
ENDCHAR
STARTCHAR 0067
ENCODING 103
SWIDTH 540 0
DWIDTH 9 0
BBX 7 12 1 -3
BITMAP
3A
46
82
82
82
82
82
46
3A
02
84
78
ENDCHAR
STARTCHAR 0068
ENCODING 104
SWIDTH 540 0
DWIDTH 9 0
BBX 7 12 1 0
BITMAP
80
80
80
BC
C2
82
82
82
82
82
82
82
ENDCHAR
STARTCHAR 0069
ENCODING 105
SWIDTH 240 0
DWIDTH 4 0
BBX 1 12 1 0
BITMAP
80
00
00
80
80
80
80
80
80
80
80
80
ENDCHAR
STARTCHAR 006A
ENCODING 106
SWIDTH 180 0
DWIDTH 3 0
BBX 3 15 -1 -3
BITMAP
20
00
00
20
20
20
20
20
20
20
20
20
20
20
C0
ENDCHAR
STARTCHAR 006B
ENCODING 107
SWIDTH 480 0
DWIDTH 8 0
BBX 7 12 1 0
BITMAP
80
80
80
86
8C
98
90
B0
C8
84
84
82
ENDCHAR
STARTCHAR 006C
ENCODING 108
SWIDTH 180 0
DWIDTH 3 0
BBX 1 12 1 0
BITMAP
80
80
80
80
80
80
80
80
80
80
80
80
ENDCHAR
STARTCHAR 006D
ENCODING 109
SWIDTH 780 0
DWIDTH 13 0
BBX 11 9 1 0
BITMAP
B9C0
C620
8420
8420
8420
8420
8420
8420
8420
ENDCHAR
STARTCHAR 006E
ENCODING 110
SWIDTH 540 0
DWIDTH 9 0
BBX 7 9 1 0
BITMAP
BC
C2
82
82
82
82
82
82
82
ENDCHAR
STARTCHAR 006F
ENCODING 111
SWIDTH 540 0
DWIDTH 9 0
BBX 7 9 1 0
BITMAP
38
44
82
82
82
82
82
44
38
ENDCHAR
STARTCHAR 0070
ENCODING 112
SWIDTH 540 0
DWIDTH 9 0
BBX 7 12 1 -3
BITMAP
B8
C4
82
82
82
82
82
C4
B8
80
80
80
ENDCHAR
STARTCHAR 0071
ENCODING 113
SWIDTH 540 0
DWIDTH 9 0
BBX 7 12 1 -3
BITMAP
3A
46
82
82
82
82
82
46
3E
02
02
02
ENDCHAR
STARTCHAR 0072
ENCODING 114
SWIDTH 360 0
DWIDTH 6 0
BBX 5 9 1 0
BITMAP
B8
C0
80
80
80
80
80
80
80
ENDCHAR
STARTCHAR 0073
ENCODING 115
SWIDTH 480 0
DWIDTH 8 0
BBX 6 9 1 0
BITMAP
78
84
80
80
78
04
04
84
78
ENDCHAR
STARTCHAR 0074
ENCODING 116
SWIDTH 240 0
DWIDTH 4 0
BBX 4 12 0 0
BITMAP
40
40
40
F0
40
40
40
40
40
40
40
70
ENDCHAR
STARTCHAR 0075
ENCODING 117
SWIDTH 540 0
DWIDTH 9 0
BBX 7 9 1 0
BITMAP
82
82
82
82
82
82
82
86
7A
ENDCHAR
STARTCHAR 0076
ENCODING 118
SWIDTH 420 0
DWIDTH 7 0
BBX 7 9 0 0
BITMAP
82
82
44
44
44
28
28
10
10
ENDCHAR
STARTCHAR 0077
ENCODING 119
SWIDTH 660 0
DWIDTH 11 0
BBX 11 9 0 0
BITMAP
8420
8420
4A40
4A40
5140
5140
5140
2080
2080
ENDCHAR
STARTCHAR 0078
ENCODING 120
SWIDTH 420 0
DWIDTH 7 0
BBX 7 9 0 0
BITMAP
82
44
28
28
10
28
28
44
82
ENDCHAR
STARTCHAR 0079
ENCODING 121
SWIDTH 540 0
DWIDTH 9 0
BBX 7 12 1 -3
BITMAP
82
82
82
44
44
2C
28
38
10
10
20
E0
ENDCHAR
STARTCHAR 007A
ENCODING 122
SWIDTH 480 0
DWIDTH 8 0
BBX 7 9 0 0
BITMAP
FE
04
08
08
10
20
20
40
FE
ENDCHAR
STARTCHAR 007B
ENCODING 123
SWIDTH 360 0
DWIDTH 6 0
BBX 5 15 1 -3
BITMAP
18
20
20
20
20
20
20
C0
20
20
20
20
20
20
18
ENDCHAR
STARTCHAR 007C
ENCODING 124
SWIDTH 300 0
DWIDTH 5 0
BBX 1 16 2 -4
BITMAP
80
80
80
80
80
80
80
80
80
80
80
80
80
80
80
80
ENDCHAR
STARTCHAR 007D
ENCODING 125
SWIDTH 360 0
DWIDTH 6 0
BBX 5 15 0 -3
BITMAP
C0
20
20
20
20
20
20
18
20
20
20
20
20
20
C0
ENDCHAR
STARTCHAR 007E
ENCODING 126
SWIDTH 600 0
DWIDTH 10 0
BBX 9 2 0 5
BITMAP
7880
8F00
ENDCHAR
STARTCHAR 00A0
ENCODING 160
SWIDTH 300 0
DWIDTH 5 0
BBX 1 1 0 0
BITMAP
00
ENDCHAR
STARTCHAR 00A1
ENCODING 161
SWIDTH 300 0
DWIDTH 5 0
BBX 1 12 2 -3
BITMAP
80
00
80
80
80
80
80
80
80
80
80
80
ENDCHAR
STARTCHAR 00A2
ENCODING 162
SWIDTH 540 0
DWIDTH 9 0
BBX 7 15 1 -3
BITMAP
04
04
04
3C
4E
8A
90
90
90
A2
64
78
20
40
40
ENDCHAR
STARTCHAR 00A3
ENCODING 163
SWIDTH 540 0
DWIDTH 9 0
BBX 8 12 0 0
BITMAP
3C
62
41
40
40
F8
20
20
20
40
F1
8E
ENDCHAR
STARTCHAR 00A4
ENCODING 164
SWIDTH 540 0
DWIDTH 9 0
BBX 7 7 1 2
BITMAP
BA
44
82
82
82
44
BA
ENDCHAR
STARTCHAR 00A5
ENCODING 165
SWIDTH 540 0
DWIDTH 9 0
BBX 9 12 0 0
BITMAP
8080
4100
2200
2200
1400
1400
FF80
0800
FF80
0800
0800
0800
ENDCHAR
STARTCHAR 00A6
ENCODING 166
SWIDTH 300 0
DWIDTH 5 0
BBX 1 16 2 -4
BITMAP
80
80
80
80
80
80
00
00
00
80
80
80
80
80
80
80
ENDCHAR
STARTCHAR 00A7
ENCODING 167
SWIDTH 540 0
DWIDTH 9 0
BBX 8 15 0 -3
BITMAP
3C
42
42
60
30
4C
82
81
41
32
0C
06
82
42
3C
ENDCHAR
STARTCHAR 00A8
ENCODING 168
SWIDTH 360 0
DWIDTH 6 0
BBX 3 1 2 11
BITMAP
A0
ENDCHAR
STARTCHAR 00A9
ENCODING 169
SWIDTH 780 0
DWIDTH 13 0
BBX 13 12 0 0
BITMAP
1FC0
2020
4F90
9048
9008
9008
9008
9048
8F88
4010
2020
1FC0
ENDCHAR
STARTCHAR 00AA
ENCODING 170
SWIDTH 300 0
DWIDTH 5 0
BBX 5 6 0 6
BITMAP
70
88
38
C8
88
78
ENDCHAR
STARTCHAR 00AB
ENCODING 171
SWIDTH 540 0
DWIDTH 9 0
BBX 6 8 1 1
BITMAP
24
48
48
90
90
48
48
24
ENDCHAR
STARTCHAR 00AC
ENCODING 172
SWIDTH 600 0
DWIDTH 10 0
BBX 8 5 1 4
BITMAP
FF
01
01
01
01
ENDCHAR
STARTCHAR 00AD
ENCODING 173
SWIDTH 360 0
DWIDTH 6 0
BBX 5 1 0 4
BITMAP
F8
ENDCHAR
STARTCHAR 00AE
ENCODING 174
SWIDTH 780 0
DWIDTH 13 0
BBX 13 12 0 0
BITMAP
1FC0
2020
4F90
8848
8848
8F88
8908
8888
8848
4010
2020
1FC0
ENDCHAR
STARTCHAR 00AF
ENCODING 175
SWIDTH 540 0
DWIDTH 9 0
BBX 10 1 -1 13
BITMAP
FFC0
ENDCHAR
STARTCHAR 00B0
ENCODING 176
SWIDTH 420 0
DWIDTH 7 0
BBX 5 5 1 7
BITMAP
70
88
88
88
70
ENDCHAR
STARTCHAR 00B1
ENCODING 177
SWIDTH 540 0
DWIDTH 9 0
BBX 7 10 1 0
BITMAP
10
10
10
FE
10
10
10
00
00
FE
ENDCHAR
STARTCHAR 00B2
ENCODING 178
SWIDTH 360 0
DWIDTH 6 0
BBX 5 6 0 6
BITMAP
70
88
08
30
40
F8
ENDCHAR
STARTCHAR 00B3
ENCODING 179
SWIDTH 360 0
DWIDTH 6 0
BBX 5 6 0 6
BITMAP
78
88
30
08
88
70
ENDCHAR
STARTCHAR 00B4
ENCODING 180
SWIDTH 360 0
DWIDTH 6 0
BBX 2 2 2 10
BITMAP
40
80
ENDCHAR
STARTCHAR 00B5
ENCODING 181
SWIDTH 540 0
DWIDTH 9 0
BBX 7 12 1 -3
BITMAP
82
82
82
82
82
82
82
C6
BA
80
80
80
ENDCHAR
STARTCHAR 00B6
ENCODING 182
SWIDTH 540 0
DWIDTH 9 0
BBX 9 16 0 -4
BITMAP
3F80
7900
F900
F900
F900
7900
3900
0900
0900
0900
0900
0900
0900
0900
0900
0900
ENDCHAR
STARTCHAR 00B7
ENCODING 183
SWIDTH 300 0
DWIDTH 5 0
BBX 1 1 2 5
BITMAP
80
ENDCHAR
STARTCHAR 00B8
ENCODING 184
SWIDTH 360 0
DWIDTH 6 0
BBX 3 4 1 -4
BITMAP
40
60
20
C0
ENDCHAR
STARTCHAR 00B9
ENCODING 185
SWIDTH 360 0
DWIDTH 6 0
BBX 3 6 1 6
BITMAP
20
60
A0
20
20
20
ENDCHAR
STARTCHAR 00BA
ENCODING 186
SWIDTH 300 0
DWIDTH 5 0
BBX 5 6 0 6
BITMAP
70
88
88
88
88
70
ENDCHAR
STARTCHAR 00BB
ENCODING 187
SWIDTH 540 0
DWIDTH 9 0
BBX 6 8 2 1
BITMAP
90
48
48
24
24
48
48
90
ENDCHAR
STARTCHAR 00BC
ENCODING 188
SWIDTH 840 0
DWIDTH 14 0
BBX 13 12 1 0
BITMAP
2020
6040
A080
2080
2100
2200
0410
0430
0850
1090
20F8
2010
ENDCHAR
STARTCHAR 00BD
ENCODING 189
SWIDTH 840 0
DWIDTH 14 0
BBX 13 12 1 0
BITMAP
2020
6040
A080
2100
2100
2200
0470
0888
0808
1030
2040
40F8
ENDCHAR
STARTCHAR 00BE
ENCODING 190
SWIDTH 840 0
DWIDTH 14 0
BBX 14 12 0 0
BITMAP
7810
8820
1040
0880
8880
7100
0208
0418
0428
0848
107C
2008
ENDCHAR
STARTCHAR 00BF
ENCODING 191
SWIDTH 600 0
DWIDTH 10 0
BBX 8 12 1 -3
BITMAP
10
00
10
10
10
20
40
80
81
81
42
3C
ENDCHAR
STARTCHAR 00C0
ENCODING 192
SWIDTH 660 0
DWIDTH 11 0
BBX 11 15 0 0
BITMAP
0800
0400
0000
0400
0A00
0A00
1100
1100
1100
2080
3F80
4040
4040
8020
8020
ENDCHAR
STARTCHAR 00C1
ENCODING 193
SWIDTH 660 0
DWIDTH 11 0
BBX 11 15 0 0
BITMAP
0200
0400
0000
0400
0A00
0A00
1100
1100
1100
2080
3F80
4040
4040
8020
8020
ENDCHAR
STARTCHAR 00C2
ENCODING 194
SWIDTH 660 0
DWIDTH 11 0
BBX 11 15 0 0
BITMAP
0600
0900
0000
0400
0A00
0A00
1100
1100
1100
2080
3F80
4040
4040
8020
8020
ENDCHAR
STARTCHAR 00C3
ENCODING 195
SWIDTH 660 0
DWIDTH 11 0
BBX 11 15 0 0
BITMAP
0500
0A00
0000
0400
0A00
0A00
1100
1100
1100
2080
3F80
4040
4040
8020
8020
ENDCHAR
STARTCHAR 00C4
ENCODING 196
SWIDTH 660 0
DWIDTH 11 0
BBX 11 14 0 0
BITMAP
0A00
0000
0400
0A00
0A00
1100
1100
1100
2080
3F80
4040
4040
8020
8020
ENDCHAR
STARTCHAR 00C5
ENCODING 197
SWIDTH 660 0
DWIDTH 11 0
BBX 11 14 0 0
BITMAP
0E00
0A00
0E00
0A00
0A00
1100
1100
1100
2080
3F80
4040
4040
8020
8020
ENDCHAR
STARTCHAR 00C6
ENCODING 198
SWIDTH 1020 0
DWIDTH 17 0
BBX 16 12 0 0
BITMAP
07FF
0480
0880
0880
1080
10FF
2080
3F80
4080
4080
8080
80FF
ENDCHAR
STARTCHAR 00C7
ENCODING 199
SWIDTH 720 0
DWIDTH 12 0
BBX 10 16 1 -4
BITMAP
1F00
2080
4040
8000
8000
8000
8000
8000
8000
4040
6080
1F00
0400
0600
0200
0C00
ENDCHAR
STARTCHAR 00C8
ENCODING 200
SWIDTH 660 0
DWIDTH 11 0
BBX 9 15 1 0
BITMAP
0800
0400
0000
FF80
8000
8000
8000
8000
FF00
8000
8000
8000
8000
8000
FF80
ENDCHAR
STARTCHAR 00C9
ENCODING 201
SWIDTH 660 0
DWIDTH 11 0
BBX 9 15 1 0
BITMAP
0400
0800
0000
FF80
8000
8000
8000
8000
FF00
8000
8000
8000
8000
8000
FF80
ENDCHAR
STARTCHAR 00CA
ENCODING 202
SWIDTH 660 0
DWIDTH 11 0
BBX 9 15 1 0
BITMAP
0C00
1200
0000
FF80
8000
8000
8000
8000
FF00
8000
8000
8000
8000
8000
FF80
ENDCHAR
STARTCHAR 00CB
ENCODING 203
SWIDTH 660 0
DWIDTH 11 0
BBX 9 14 1 0
BITMAP
1400
0000
FF80
8000
8000
8000
8000
FF00
8000
8000
8000
8000
8000
FF80
ENDCHAR
STARTCHAR 00CC
ENCODING 204
SWIDTH 300 0
DWIDTH 5 0
BBX 2 15 1 0
BITMAP
80
40
00
40
40
40
40
40
40
40
40
40
40
40
40
ENDCHAR
STARTCHAR 00CD
ENCODING 205
SWIDTH 300 0
DWIDTH 5 0
BBX 2 15 2 0
BITMAP
40
80
00
80
80
80
80
80
80
80
80
80
80
80
80
ENDCHAR
STARTCHAR 00CE
ENCODING 206
SWIDTH 300 0
DWIDTH 5 0
BBX 4 15 1 0
BITMAP
60
90
00
40
40
40
40
40
40
40
40
40
40
40
40
ENDCHAR
STARTCHAR 00CF
ENCODING 207
SWIDTH 300 0
DWIDTH 5 0
BBX 3 14 1 0
BITMAP
A0
00
40
40
40
40
40
40
40
40
40
40
40
40
ENDCHAR
STARTCHAR 00D0
ENCODING 208
SWIDTH 720 0
DWIDTH 12 0
BBX 11 12 0 0
BITMAP
7F00
4080
4040
4020
4020
4020
FC20
4020
4020
4040
4080
7F00
ENDCHAR
STARTCHAR 00D1
ENCODING 209
SWIDTH 660 0
DWIDTH 11 0
BBX 9 15 1 0
BITMAP
0A00
1400
0000
8080
C080
A080
A080
9080
8880
8880
8480
8280
8280
8180
8080
ENDCHAR
STARTCHAR 00D2
ENCODING 210
SWIDTH 720 0
DWIDTH 12 0
BBX 10 15 1 0
BITMAP
0800
0400
0000
1E00
2100
4080
8040
8040
8040
8040
8040
8040
4080
2180
1E00
ENDCHAR
STARTCHAR 00D3
ENCODING 211
SWIDTH 720 0
DWIDTH 12 0
BBX 10 15 1 0
BITMAP
0400
0800
0000
1E00
2100
4080
8040
8040
8040
8040
8040
8040
4080
2180
1E00
ENDCHAR
STARTCHAR 00D4
ENCODING 212
SWIDTH 720 0
DWIDTH 12 0
BBX 10 15 1 0
BITMAP
0C00
1200
0000
1E00
2100
4080
8040
8040
8040
8040
8040
8040
4080
2180
1E00
ENDCHAR
STARTCHAR 00D5
ENCODING 213
SWIDTH 720 0
DWIDTH 12 0
BBX 10 15 1 0
BITMAP
0A00
1400
0000
1E00
2100
4080
8040
8040
8040
8040
8040
8040
4080
2180
1E00
ENDCHAR
STARTCHAR 00D6
ENCODING 214
SWIDTH 720 0
DWIDTH 12 0
BBX 10 14 1 0
BITMAP
0A00
0000
1E00
2100
4080
8040
8040
8040
8040
8040
8040
4080
2180
1E00
ENDCHAR
STARTCHAR 00D7
ENCODING 215
SWIDTH 600 0
DWIDTH 10 0
BBX 7 7 1 2
BITMAP
82
44
38
10
38
44
82
ENDCHAR
STARTCHAR 00D8
ENCODING 216
SWIDTH 780 0
DWIDTH 13 0
BBX 11 12 1 0
BITMAP
1F20
20C0
40C0
8120
8220
8420
8C20
8820
9040
6040
6080
9F00
ENDCHAR
STARTCHAR 00D9
ENCODING 217
SWIDTH 660 0
DWIDTH 11 0
BBX 9 15 1 0
BITMAP
1000
0800
0000
8080
8080
8080
8080
8080
8080
8080
8080
8080
8080
4100
3E00
ENDCHAR
STARTCHAR 00DA
ENCODING 218
SWIDTH 660 0
DWIDTH 11 0
BBX 9 15 1 0
BITMAP
0400
0800
0000
8080
8080
8080
8080
8080
8080
8080
8080
8080
8080
4100
3E00
ENDCHAR
STARTCHAR 00DB
ENCODING 219
SWIDTH 660 0
DWIDTH 11 0
BBX 9 15 1 0
BITMAP
0C00
1200
0000
8080
8080
8080
8080
8080
8080
8080
8080
8080
8080
4100
3E00
ENDCHAR
STARTCHAR 00DC
ENCODING 220
SWIDTH 660 0
DWIDTH 11 0
BBX 9 14 1 0
BITMAP
1400
0000
8080
8080
8080
8080
8080
8080
8080
8080
8080
8080
4100
3E00
ENDCHAR
STARTCHAR 00DD
ENCODING 221
SWIDTH 660 0
DWIDTH 11 0
BBX 9 15 1 0
BITMAP
0400
0800
0000
8080
4100
4100
2200
1400
1400
0800
0800
0800
0800
0800
0800
ENDCHAR
STARTCHAR 00DE
ENCODING 222
SWIDTH 660 0
DWIDTH 11 0
BBX 9 12 1 0
BITMAP
8000
8000
FE00
8100
8080
8080
8080
8080
8100
FE00
8000
8000
ENDCHAR
STARTCHAR 00DF
ENCODING 223
SWIDTH 600 0
DWIDTH 10 0
BBX 8 12 1 0
BITMAP
38
44
84
84
88
88
84
82
81
81
91
8E
ENDCHAR
STARTCHAR 00E0
ENCODING 224
SWIDTH 540 0
DWIDTH 9 0
BBX 7 12 1 0
BITMAP
10
08
00
3C
42
82
0E
72
82
82
86
7A
ENDCHAR
STARTCHAR 00E1
ENCODING 225
SWIDTH 540 0
DWIDTH 9 0
BBX 7 12 1 0
BITMAP
08
10
00
3C
42
82
0E
72
82
82
86
7A
ENDCHAR
STARTCHAR 00E2
ENCODING 226
SWIDTH 540 0
DWIDTH 9 0
BBX 7 12 1 0
BITMAP
18
24
00
3C
42
82
0E
72
82
82
86
7A
ENDCHAR
STARTCHAR 00E3
ENCODING 227
SWIDTH 540 0
DWIDTH 9 0
BBX 7 12 1 0
BITMAP
14
28
00
3C
42
82
0E
72
82
82
86
7A
ENDCHAR
STARTCHAR 00E4
ENCODING 228
SWIDTH 540 0
DWIDTH 9 0
BBX 7 11 1 0
BITMAP
28
00
3C
42
82
0E
72
82
82
86
7A
ENDCHAR
STARTCHAR 00E5
ENCODING 229
SWIDTH 540 0
DWIDTH 9 0
BBX 7 13 1 0
BITMAP
38
28
38
00
3C
42
82
0E
72
82
82
86
7A
ENDCHAR
STARTCHAR 00E6
ENCODING 230
SWIDTH 900 0
DWIDTH 15 0
BBX 13 9 1 0
BITMAP
3DE0
4310
8208
0E08
73F8
8200
8208
8710
79E0
ENDCHAR
STARTCHAR 00E7
ENCODING 231
SWIDTH 540 0
DWIDTH 9 0
BBX 7 13 1 -4
BITMAP
38
44
82
80
80
80
82
44
38
10
18
08
30
ENDCHAR
STARTCHAR 00E8
ENCODING 232
SWIDTH 540 0
DWIDTH 9 0
BBX 7 12 1 0
BITMAP
10
08
00
38
44
82
82
FE
80
82
44
38
ENDCHAR
STARTCHAR 00E9
ENCODING 233
SWIDTH 540 0
DWIDTH 9 0
BBX 7 12 1 0
BITMAP
08
10
00
38
44
82
82
FE
80
82
44
38
ENDCHAR
STARTCHAR 00EA
ENCODING 234
SWIDTH 540 0
DWIDTH 9 0
BBX 7 12 1 0
BITMAP
18
24
00
38
44
82
82
FE
80
82
44
38
ENDCHAR
STARTCHAR 00EB
ENCODING 235
SWIDTH 540 0
DWIDTH 9 0
BBX 7 11 1 0
BITMAP
28
00
38
44
82
82
FE
80
82
44
38
ENDCHAR
STARTCHAR 00EC
ENCODING 236
SWIDTH 300 0
DWIDTH 5 0
BBX 2 12 1 0
BITMAP
80
40
00
40
40
40
40
40
40
40
40
40
ENDCHAR
STARTCHAR 00ED
ENCODING 237
SWIDTH 300 0
DWIDTH 5 0
BBX 2 12 2 0
BITMAP
40
80
00
80
80
80
80
80
80
80
80
80
ENDCHAR
STARTCHAR 00EE
ENCODING 238
SWIDTH 300 0
DWIDTH 5 0
BBX 4 12 1 0
BITMAP
60
90
00
40
40
40
40
40
40
40
40
40
ENDCHAR
STARTCHAR 00EF
ENCODING 239
SWIDTH 300 0
DWIDTH 5 0
BBX 3 11 1 0
BITMAP
A0
00
40
40
40
40
40
40
40
40
40
ENDCHAR
STARTCHAR 00F0
ENCODING 240
SWIDTH 540 0
DWIDTH 9 0
BBX 7 12 1 0
BITMAP
34
18
6C
3C
44
82
82
82
82
82
44
38
ENDCHAR
STARTCHAR 00F1
ENCODING 241
SWIDTH 540 0
DWIDTH 9 0
BBX 7 12 1 0
BITMAP
14
28
00
BC
C2
82
82
82
82
82
82
82
ENDCHAR
STARTCHAR 00F2
ENCODING 242
SWIDTH 540 0
DWIDTH 9 0
BBX 7 12 1 0
BITMAP
10
08
00
38
44
82
82
82
82
82
44
38
ENDCHAR
STARTCHAR 00F3
ENCODING 243
SWIDTH 540 0
DWIDTH 9 0
BBX 7 12 1 0
BITMAP
08
10
00
38
44
82
82
82
82
82
44
38
ENDCHAR
STARTCHAR 00F4
ENCODING 244
SWIDTH 540 0
DWIDTH 9 0
BBX 7 12 1 0
BITMAP
18
24
00
38
44
82
82
82
82
82
44
38
ENDCHAR
STARTCHAR 00F5
ENCODING 245
SWIDTH 540 0
DWIDTH 9 0
BBX 7 12 1 0
BITMAP
14
28
00
38
44
82
82
82
82
82
44
38
ENDCHAR
STARTCHAR 00F6
ENCODING 246
SWIDTH 540 0
DWIDTH 9 0
BBX 7 11 1 0
BITMAP
28
00
38
44
82
82
82
82
82
44
38
ENDCHAR
STARTCHAR 00F7
ENCODING 247
SWIDTH 540 0
DWIDTH 9 0
BBX 7 5 1 4
BITMAP
10
00
FE
00
10
ENDCHAR
STARTCHAR 00F8
ENCODING 248
SWIDTH 540 0
DWIDTH 9 0
BBX 7 9 1 0
BITMAP
3A
44
86
8A
92
A2
C2
44
B8
ENDCHAR
STARTCHAR 00F9
ENCODING 249
SWIDTH 540 0
DWIDTH 9 0
BBX 7 12 1 0
BITMAP
20
10
00
82
82
82
82
82
82
82
86
7A
ENDCHAR
STARTCHAR 00FA
ENCODING 250
SWIDTH 540 0
DWIDTH 9 0
BBX 7 12 1 0
BITMAP
08
10
00
82
82
82
82
82
82
82
86
7A
ENDCHAR
STARTCHAR 00FB
ENCODING 251
SWIDTH 540 0
DWIDTH 9 0
BBX 7 12 1 0
BITMAP
0C
12
00
82
82
82
82
82
82
82
86
7A
ENDCHAR
STARTCHAR 00FC
ENCODING 252
SWIDTH 540 0
DWIDTH 9 0
BBX 7 11 1 0
BITMAP
28
00
82
82
82
82
82
82
82
86
7A
ENDCHAR
STARTCHAR 00FD
ENCODING 253
SWIDTH 540 0
DWIDTH 9 0
BBX 7 15 1 -3
BITMAP
08
10
00
82
82
82
44
44
2C
28
38
10
10
20
E0
ENDCHAR
STARTCHAR 00FE
ENCODING 254
SWIDTH 540 0
DWIDTH 9 0
BBX 7 15 1 -3
BITMAP
80
80
80
B8
C4
82
82
82
82
82
C4
B8
80
80
80
ENDCHAR
STARTCHAR 00FF
ENCODING 255
SWIDTH 540 0
DWIDTH 9 0
BBX 7 14 1 -3
BITMAP
28
00
82
82
82
44
44
2C
28
38
10
10
20
E0
ENDCHAR
STARTCHAR 0100
ENCODING 256
SWIDTH 660 0
DWIDTH 11 0
BBX 11 14 0 0
BITMAP
1F00
0000
0400
0A00
0A00
1100
1100
1100
2080
3F80
4040
4040
8020
8020
ENDCHAR
STARTCHAR 0101
ENCODING 257
SWIDTH 540 0
DWIDTH 9 0
BBX 7 11 1 0
BITMAP
3E
00
3C
42
82
0E
72
82
82
86
7A
ENDCHAR
STARTCHAR 0102
ENCODING 258
SWIDTH 660 0
DWIDTH 11 0
BBX 11 15 0 0
BITMAP
1100
0E00
0000
0400
0A00
0A00
1100
1100
1100
2080
3F80
4040
4040
8020
8020
ENDCHAR
STARTCHAR 0103
ENCODING 259
SWIDTH 540 0
DWIDTH 9 0
BBX 7 12 1 0
BITMAP
44
38
00
3C
42
82
0E
72
82
82
86
7A
ENDCHAR
STARTCHAR 0104
ENCODING 260
SWIDTH 660 0
DWIDTH 11 0
BBX 14 15 0 -3
BITMAP
0400
0A00
0A00
1100
1100
1100
2080
3F80
4040
4040
8020
8020
0020
0020
001C
ENDCHAR
STARTCHAR 0105
ENCODING 261
SWIDTH 540 0
DWIDTH 9 0
BBX 10 12 1 -3
BITMAP
3C00
4200
8200
0E00
7200
8200
8200
8600
7A00
0200
0200
01C0
ENDCHAR
STARTCHAR 0106
ENCODING 262
SWIDTH 720 0
DWIDTH 12 0
BBX 10 15 1 0
BITMAP
0200
0400
0000
1F00
2080
4040
8000
8000
8000
8000
8000
8000
4040
6080
1F00
ENDCHAR
STARTCHAR 0107
ENCODING 263
SWIDTH 540 0
DWIDTH 9 0
BBX 7 12 1 0
BITMAP
08
10
00
38
44
82
80
80
80
82
44
38
ENDCHAR
STARTCHAR 0108
ENCODING 264
SWIDTH 720 0
DWIDTH 12 0
BBX 10 15 1 0
BITMAP
0C00
1200
0000
1F00
2080
4040
8000
8000
8000
8000
8000
8000
4040
6080
1F00
ENDCHAR
STARTCHAR 0109
ENCODING 265
SWIDTH 540 0
DWIDTH 9 0
BBX 7 12 1 0
BITMAP
18
24
00
38
44
82
80
80
80
82
44
38
ENDCHAR
STARTCHAR 010A
ENCODING 266
SWIDTH 720 0
DWIDTH 12 0
BBX 10 14 1 0
BITMAP
0400
0000
1F00
2080
4040
8000
8000
8000
8000
8000
8000
4040
6080
1F00
ENDCHAR
STARTCHAR 010B
ENCODING 267
SWIDTH 540 0
DWIDTH 9 0
BBX 7 11 1 0
BITMAP
10
00
38
44
82
80
80
80
82
44
38
ENDCHAR
STARTCHAR 010C
ENCODING 268
SWIDTH 720 0
DWIDTH 12 0
BBX 10 15 1 0
BITMAP
1200
0C00
0000
1F00
2080
4040
8000
8000
8000
8000
8000
8000
4040
6080
1F00
ENDCHAR
STARTCHAR 010D
ENCODING 269
SWIDTH 540 0
DWIDTH 9 0
BBX 7 12 1 0
BITMAP
24
18
00
38
44
82
80
80
80
82
44
38
ENDCHAR
STARTCHAR 010E
ENCODING 270
SWIDTH 720 0
DWIDTH 12 0
BBX 10 15 1 0
BITMAP
2400
1800
0000
FE00
8100
8080
8040
8040
8040
8040
8040
8040
8080
8100
FE00
ENDCHAR
STARTCHAR 010F
ENCODING 271
SWIDTH 600 0
DWIDTH 10 0
BBX 9 12 1 0
BITMAP
0280
0280
0280
3A80
4600
8200
8200
8200
8200
8200
4600
3A00
ENDCHAR
STARTCHAR 0110
ENCODING 272
SWIDTH 720 0
DWIDTH 12 0
BBX 11 12 0 0
BITMAP
7F00
4080
4040
4020
4020
4020
FC20
4020
4020
4040
4080
7F00
ENDCHAR
STARTCHAR 0111
ENCODING 273
SWIDTH 600 0
DWIDTH 10 0
BBX 8 12 1 0
BITMAP
02
3F
02
3A
46
82
82
82
82
82
46
3A
ENDCHAR
STARTCHAR 0112
ENCODING 274
SWIDTH 660 0
DWIDTH 11 0
BBX 9 14 1 0
BITMAP
3E00
0000
FF80
8000
8000
8000
8000
FF00
8000
8000
8000
8000
8000
FF80
ENDCHAR
STARTCHAR 0113
ENCODING 275
SWIDTH 540 0
DWIDTH 9 0
BBX 7 11 1 0
BITMAP
7C
00
38
44
82
82
FE
80
82
44
38
ENDCHAR
STARTCHAR 0114
ENCODING 276
SWIDTH 660 0
DWIDTH 11 0
BBX 9 15 1 0
BITMAP
2200
1C00
0000
FF80
8000
8000
8000
8000
FF00
8000
8000
8000
8000
8000
FF80
ENDCHAR
STARTCHAR 0115
ENCODING 277
SWIDTH 540 0
DWIDTH 9 0
BBX 7 12 1 0
BITMAP
44
38
00
38
44
82
82
FE
80
82
44
38
ENDCHAR
STARTCHAR 0116
ENCODING 278
SWIDTH 660 0
DWIDTH 11 0
BBX 9 14 1 0
BITMAP
0800
0000
FF80
8000
8000
8000
8000
FF00
8000
8000
8000
8000
8000
FF80
ENDCHAR
STARTCHAR 0117
ENCODING 279
SWIDTH 540 0
DWIDTH 9 0
BBX 7 11 1 0
BITMAP
10
00
38
44
82
82
FE
80
82
44
38
ENDCHAR
STARTCHAR 0118
ENCODING 280
SWIDTH 660 0
DWIDTH 11 0
BBX 9 15 1 -3
BITMAP
FF80
8000
8000
8000
8000
FF00
8000
8000
8000
8000
8000
FF80
0400
0400
0380
ENDCHAR
STARTCHAR 0119
ENCODING 281
SWIDTH 540 0
DWIDTH 9 0
BBX 7 12 1 -3
BITMAP
38
44
82
82
FE
80
82
44
38
20
20
1C
ENDCHAR
STARTCHAR 011A
ENCODING 282
SWIDTH 660 0
DWIDTH 11 0
BBX 9 15 1 0
BITMAP
1200
0C00
0000
FF80
8000
8000
8000
8000
FF00
8000
8000
8000
8000
8000
FF80
ENDCHAR
STARTCHAR 011B
ENCODING 283
SWIDTH 540 0
DWIDTH 9 0
BBX 7 12 1 0
BITMAP
24
18
00
38
44
82
82
FE
80
82
44
38
ENDCHAR
STARTCHAR 011C
ENCODING 284
SWIDTH 720 0
DWIDTH 12 0
BBX 10 15 1 0
BITMAP
0C00
1200
0000
1E00
2100
4080
8000
8000
8000
87C0
8040
8040
4080
2100
1E00
ENDCHAR
STARTCHAR 011D
ENCODING 285
SWIDTH 540 0
DWIDTH 9 0
BBX 7 15 1 -3
BITMAP
18
24
00
3A
46
82
82
82
82
82
46
3A
02
84
78
ENDCHAR
STARTCHAR 011E
ENCODING 286
SWIDTH 720 0
DWIDTH 12 0
BBX 10 15 1 0
BITMAP
1100
0E00
0000
1E00
2100
4080
8000
8000
8000
87C0
8040
8040
4080
2100
1E00
ENDCHAR
STARTCHAR 011F
ENCODING 287
SWIDTH 540 0
DWIDTH 9 0
BBX 7 15 1 -3
BITMAP
44
38
00
3A
46
82
82
82
82
82
46
3A
02
84
78
ENDCHAR
STARTCHAR 0120
ENCODING 288
SWIDTH 720 0
DWIDTH 12 0
BBX 10 14 1 0
BITMAP
0400
0000
1E00
2100
4080
8000
8000
8000
87C0
8040
8040
4080
2100
1E00
ENDCHAR
STARTCHAR 0121
ENCODING 289
SWIDTH 540 0
DWIDTH 9 0
BBX 7 14 1 -3
BITMAP
10
00
3A
46
82
82
82
82
82
46
3A
02
84
78
ENDCHAR
STARTCHAR 0122
ENCODING 290
SWIDTH 720 0
DWIDTH 12 0
BBX 10 16 1 -4
BITMAP
1E00
2100
4080
8000
8000
8000
87C0
8040
8040
4080
2100
1E00
0400
0600
0200
0C00
ENDCHAR
STARTCHAR 0123
ENCODING 291
SWIDTH 540 0
DWIDTH 9 0
BBX 7 16 1 -3
BITMAP
08
10
10
00
3A
46
82
82
82
82
82
46
3A
02
84
78
ENDCHAR
STARTCHAR 0124
ENCODING 292
SWIDTH 660 0
DWIDTH 11 0
BBX 9 15 1 0
BITMAP
0C00
1200
0000
8080
8080
8080
8080
8080
FF80
8080
8080
8080
8080
8080
8080
ENDCHAR
STARTCHAR 0125
ENCODING 293
SWIDTH 540 0
DWIDTH 9 0
BBX 7 15 1 0
BITMAP
18
24
00
80
80
80
BC
C2
82
82
82
82
82
82
82
ENDCHAR
STARTCHAR 0126
ENCODING 294
SWIDTH 660 0
DWIDTH 11 0
BBX 11 12 0 0
BITMAP
4040
4040
FFE0
4040
4040
7FC0
4040
4040
4040
4040
4040
4040
ENDCHAR
STARTCHAR 0127
ENCODING 295
SWIDTH 540 0
DWIDTH 9 0
BBX 8 12 0 0
BITMAP
40
FC
40
5E
61
41
41
41
41
41
41
41
ENDCHAR
STARTCHAR 0128
ENCODING 296
SWIDTH 300 0
DWIDTH 5 0
BBX 4 15 0 0
BITMAP
50
A0
00
20
20
20
20
20
20
20
20
20
20
20
20
ENDCHAR
STARTCHAR 0129
ENCODING 297
SWIDTH 300 0
DWIDTH 5 0
BBX 4 12 1 0
BITMAP
50
A0
00
40
40
40
40
40
40
40
40
40
ENDCHAR
STARTCHAR 012A
ENCODING 298
SWIDTH 300 0
DWIDTH 5 0
BBX 5 14 0 0
BITMAP
F8
00
20
20
20
20
20
20
20
20
20
20
20
20
ENDCHAR
STARTCHAR 012B
ENCODING 299
SWIDTH 300 0
DWIDTH 5 0
BBX 5 11 0 0
BITMAP
F8
00
20
20
20
20
20
20
20
20
20
ENDCHAR
STARTCHAR 012C
ENCODING 300
SWIDTH 300 0
DWIDTH 5 0
BBX 5 15 0 0
BITMAP
88
70
00
20
20
20
20
20
20
20
20
20
20
20
20
ENDCHAR
STARTCHAR 012D
ENCODING 301
SWIDTH 300 0
DWIDTH 5 0
BBX 5 12 0 0
BITMAP
88
70
00
20
20
20
20
20
20
20
20
20
ENDCHAR
STARTCHAR 012E
ENCODING 302
SWIDTH 300 0
DWIDTH 5 0
BBX 4 15 1 -3
BITMAP
40
40
40
40
40
40
40
40
40
40
40
40
80
80
70
ENDCHAR
STARTCHAR 012F
ENCODING 303
SWIDTH 240 0
DWIDTH 4 0
BBX 3 15 1 -3
BITMAP
80
00
00
80
80
80
80
80
80
80
80
80
80
80
E0
ENDCHAR
STARTCHAR 0130
ENCODING 304
SWIDTH 300 0
DWIDTH 5 0
BBX 1 14 2 0
BITMAP
80
00
80
80
80
80
80
80
80
80
80
80
80
80
ENDCHAR
STARTCHAR 0131
ENCODING 305
SWIDTH 300 0
DWIDTH 5 0
BBX 1 9 2 0
BITMAP
80
80
80
80
80
80
80
80
80
ENDCHAR
STARTCHAR 0132
ENCODING 306
SWIDTH 780 0
DWIDTH 13 0
BBX 9 12 2 0
BITMAP
8080
8080
8080
8080
8080
8080
8080
8080
A080
A080
9100
9E00
ENDCHAR
STARTCHAR 0133
ENCODING 307
SWIDTH 480 0
DWIDTH 8 0
BBX 4 15 2 -3
BITMAP
90
00
00
90
90
90
90
90
90
90
90
90
10
10
60
ENDCHAR
STARTCHAR 0134
ENCODING 308
SWIDTH 540 0
DWIDTH 9 0
BBX 9 15 1 0
BITMAP
0300
0480
0000
0200
0200
0200
0200
0200
0200
0200
0200
8200
8200
4400
7800
ENDCHAR
STARTCHAR 0135
ENCODING 309
SWIDTH 180 0
DWIDTH 3 0
BBX 4 15 -1 -3
BITMAP
60
90
00
20
20
20
20
20
20
20
20
20
20
20
C0
ENDCHAR
STARTCHAR 0136
ENCODING 310
SWIDTH 660 0
DWIDTH 11 0
BBX 9 16 1 -4
BITMAP
8080
8100
8200
8400
8800
9800
A400
C400
8200
8100
8100
8080
0000
0C00
0400
1C00
ENDCHAR
STARTCHAR 0137
ENCODING 311
SWIDTH 480 0
DWIDTH 8 0
BBX 7 16 1 -4
BITMAP
80
80
80
86
8C
98
90
B0
C8
84
84
82
00
18
08
38
ENDCHAR
STARTCHAR 0138
ENCODING 312
SWIDTH 480 0
DWIDTH 8 0
BBX 6 9 1 0
BITMAP
84
88
90
A0
D0
90
88
84
84
ENDCHAR
STARTCHAR 0139
ENCODING 313
SWIDTH 540 0
DWIDTH 9 0
BBX 7 15 1 0
BITMAP
20
40
00
80
80
80
80
80
80
80
80
80
80
80
FE
ENDCHAR
STARTCHAR 013A
ENCODING 314
SWIDTH 180 0
DWIDTH 3 0
BBX 2 15 1 0
BITMAP
40
80
00
80
80
80
80
80
80
80
80
80
80
80
80
ENDCHAR
STARTCHAR 013B
ENCODING 315
SWIDTH 540 0
DWIDTH 9 0
BBX 7 16 1 -4
BITMAP
80
80
80
80
80
80
80
80
80
80
80
FE
00
18
08
38
ENDCHAR
STARTCHAR 013C
ENCODING 316
SWIDTH 180 0
DWIDTH 3 0
BBX 3 16 0 -4
BITMAP
40
40
40
40
40
40
40
40
40
40
40
40
00
60
20
E0
ENDCHAR
STARTCHAR 013D
ENCODING 317
SWIDTH 540 0
DWIDTH 9 0
BBX 6 12 2 0
BITMAP
88
88
88
88
80
80
80
80
80
80
80
FC
ENDCHAR
STARTCHAR 013E
ENCODING 318
SWIDTH 240 0
DWIDTH 4 0
BBX 3 12 1 0
BITMAP
A0
A0
A0
80
80
80
80
80
80
80
80
80
ENDCHAR
STARTCHAR 013F
ENCODING 319
SWIDTH 540 0
DWIDTH 9 0
BBX 7 12 1 0
BITMAP
80
80
80
80
80
88
80
80
80
80
80
FE
ENDCHAR
STARTCHAR 0140
ENCODING 320
SWIDTH 360 0
DWIDTH 6 0
BBX 4 12 1 0
BITMAP
80
80
80
80
80
80
90
80
80
80
80
80
ENDCHAR
STARTCHAR 0141
ENCODING 321
SWIDTH 540 0
DWIDTH 9 0
BBX 9 12 0 0
BITMAP
4000
4000
4000
4800
5000
6000
4000
C000
4000
4000
4000
7F80
ENDCHAR
STARTCHAR 0142
ENCODING 322
SWIDTH 180 0
DWIDTH 3 0
BBX 3 12 0 0
BITMAP
40
40
40
40
40
60
40
C0
40
40
40
40
ENDCHAR
STARTCHAR 0143
ENCODING 323
SWIDTH 660 0
DWIDTH 11 0
BBX 9 15 1 0
BITMAP
0400
0800
0000
8080
C080
A080
A080
9080
8880
8880
8480
8280
8280
8180
8080
ENDCHAR
STARTCHAR 0144
ENCODING 324
SWIDTH 540 0
DWIDTH 9 0
BBX 7 12 1 0
BITMAP
08
10
00
BC
C2
82
82
82
82
82
82
82
ENDCHAR
STARTCHAR 0145
ENCODING 325
SWIDTH 660 0
DWIDTH 11 0
BBX 9 16 1 -4
BITMAP
8080
C080
A080
A080
9080
8880
8880
8480
8280
8280
8180
8080
0000
0C00
0400
1C00
ENDCHAR
STARTCHAR 0146
ENCODING 326
SWIDTH 540 0
DWIDTH 9 0
BBX 7 13 1 -4
BITMAP
BC
C2
82
82
82
82
82
82
82
00
18
08
38
ENDCHAR
STARTCHAR 0147
ENCODING 327
SWIDTH 660 0
DWIDTH 11 0
BBX 9 15 1 0
BITMAP
1200
0C00
0000
8080
C080
A080
A080
9080
8880
8880
8480
8280
8280
8180
8080
ENDCHAR
STARTCHAR 0148
ENCODING 328
SWIDTH 540 0
DWIDTH 9 0
BBX 7 12 1 0
BITMAP
24
18
00
BC
C2
82
82
82
82
82
82
82
ENDCHAR
STARTCHAR 0149
ENCODING 329
SWIDTH 600 0
DWIDTH 10 0
BBX 9 12 0 0
BITMAP
8000
8000
8000
2F00
3080
2080
2080
2080
2080
2080
2080
2080
ENDCHAR
STARTCHAR 014A
ENCODING 330
SWIDTH 720 0
DWIDTH 12 0
BBX 10 12 1 0
BITMAP
9F00
A180
C080
8040
8040
8040
8040
8040
8040
8080
8080
8F00
ENDCHAR
STARTCHAR 014B
ENCODING 331
SWIDTH 540 0
DWIDTH 9 0
BBX 7 12 1 -3
BITMAP
BC
C2
82
82
82
82
82
82
82
02
02
0E
ENDCHAR
STARTCHAR 014C
ENCODING 332
SWIDTH 720 0
DWIDTH 12 0
BBX 10 14 1 0
BITMAP
1F00
0000
1E00
2100
4080
8040
8040
8040
8040
8040
8040
4080
2180
1E00
ENDCHAR
STARTCHAR 014D
ENCODING 333
SWIDTH 540 0
DWIDTH 9 0
BBX 7 11 1 0
BITMAP
7C
00
38
44
82
82
82
82
82
44
38
ENDCHAR
STARTCHAR 014E
ENCODING 334
SWIDTH 720 0
DWIDTH 12 0
BBX 10 15 1 0
BITMAP
2200
1C00
0000
1E00
2100
4080
8040
8040
8040
8040
8040
8040
4080
2180
1E00
ENDCHAR
STARTCHAR 014F
ENCODING 335
SWIDTH 540 0
DWIDTH 9 0
BBX 7 12 1 0
BITMAP
44
38
00
38
44
82
82
82
82
82
44
38
ENDCHAR
STARTCHAR 0150
ENCODING 336
SWIDTH 720 0
DWIDTH 12 0
BBX 10 15 1 0
BITMAP
0900
1200
0000
1E00
2100
4080
8040
8040
8040
8040
8040
8040
4080
2180
1E00
ENDCHAR
STARTCHAR 0151
ENCODING 337
SWIDTH 540 0
DWIDTH 9 0
BBX 7 12 1 0
BITMAP
12
24
00
38
44
82
82
82
82
82
44
38
ENDCHAR
STARTCHAR 0152
ENCODING 338
SWIDTH 1020 0
DWIDTH 17 0
BBX 15 12 1 0
BITMAP
1E7E
61C0
40C0
8040
8040
807E
8040
8040
8040
40C0
2140
1E7E
ENDCHAR
STARTCHAR 0153
ENCODING 339
SWIDTH 960 0
DWIDTH 16 0
BBX 14 9 1 0
BITMAP
38F0
4508
8204
8204
83FC
8200
8204
4708
38F0
ENDCHAR
STARTCHAR 0154
ENCODING 340
SWIDTH 660 0
DWIDTH 11 0
BBX 9 15 1 0
BITMAP
0400
0800
0000
FE00
8100
8080
8080
8080
8100
FE00
8400
8200
8200
8100
8080
ENDCHAR
STARTCHAR 0155
ENCODING 341
SWIDTH 360 0
DWIDTH 6 0
BBX 5 12 1 0
BITMAP
20
40
00
B8
C0
80
80
80
80
80
80
80
ENDCHAR
STARTCHAR 0156
ENCODING 342
SWIDTH 660 0
DWIDTH 11 0
BBX 9 16 1 -4
BITMAP
FE00
8100
8080
8080
8080
8100
FE00
8400
8200
8200
8100
8080
0000
0C00
0400
1C00
ENDCHAR
STARTCHAR 0157
ENCODING 343
SWIDTH 360 0
DWIDTH 6 0
BBX 5 13 1 -4
BITMAP
B8
C0
80
80
80
80
80
80
80
00
60
20
E0
ENDCHAR
STARTCHAR 0158
ENCODING 344
SWIDTH 660 0
DWIDTH 11 0
BBX 9 15 1 0
BITMAP
2400
1800
0000
FE00
8100
8080
8080
8080
8100
FE00
8400
8200
8200
8100
8080
ENDCHAR
STARTCHAR 0159
ENCODING 345
SWIDTH 360 0
DWIDTH 6 0
BBX 5 12 1 0
BITMAP
90
60
00
B8
C0
80
80
80
80
80
80
80
ENDCHAR
STARTCHAR 015A
ENCODING 346
SWIDTH 660 0
DWIDTH 11 0
BBX 9 15 1 0
BITMAP
0400
0800
0000
3E00
4100
8080
8000
4000
3800
0700
0080
8080
8080
4100
3E00
ENDCHAR
STARTCHAR 015B
ENCODING 347
SWIDTH 480 0
DWIDTH 8 0
BBX 6 12 1 0
BITMAP
10
20
00
78
84
80
80
78
04
04
84
78
ENDCHAR
STARTCHAR 015C
ENCODING 348
SWIDTH 660 0
DWIDTH 11 0
BBX 9 15 1 0
BITMAP
0C00
1200
0000
3E00
4100
8080
8000
4000
3800
0700
0080
8080
8080
4100
3E00
ENDCHAR
STARTCHAR 015D
ENCODING 349
SWIDTH 480 0
DWIDTH 8 0
BBX 6 12 1 0
BITMAP
30
48
00
78
84
80
80
78
04
04
84
78
ENDCHAR
STARTCHAR 015E
ENCODING 350
SWIDTH 660 0
DWIDTH 11 0
BBX 9 16 1 -4
BITMAP
3E00
4100
8080
8000
4000
3800
0700
0080
8080
8080
4100
3E00
0800
0C00
0400
1800
ENDCHAR
STARTCHAR 015F
ENCODING 351
SWIDTH 480 0
DWIDTH 8 0
BBX 6 13 1 -4
BITMAP
78
84
80
80
78
04
04
84
78
20
30
10
60
ENDCHAR
STARTCHAR 0160
ENCODING 352
SWIDTH 660 0
DWIDTH 11 0
BBX 9 15 1 0
BITMAP
1200
0C00
0000
3E00
4100
8080
8000
4000
3800
0700
0080
8080
8080
4100
3E00
ENDCHAR
STARTCHAR 0161
ENCODING 353
SWIDTH 480 0
DWIDTH 8 0
BBX 6 12 1 0
BITMAP
48
30
00
78
84
80
80
78
04
04
84
78
ENDCHAR
STARTCHAR 0162
ENCODING 354
SWIDTH 540 0
DWIDTH 9 0
BBX 9 16 0 -4
BITMAP
FF80
0800
0800
0800
0800
0800
0800
0800
0800
0800
0800
0800
0000
0800
0800
0800
ENDCHAR
STARTCHAR 0163
ENCODING 355
SWIDTH 240 0
DWIDTH 4 0
BBX 4 16 0 -4
BITMAP
40
40
40
F0
40
40
40
40
40
40
40
70
00
20
20
20
ENDCHAR
STARTCHAR 0164
ENCODING 356
SWIDTH 540 0
DWIDTH 9 0
BBX 9 15 0 0
BITMAP
1200
0C00
0000
FF80
0800
0800
0800
0800
0800
0800
0800
0800
0800
0800
0800
ENDCHAR
STARTCHAR 0165
ENCODING 357
SWIDTH 360 0
DWIDTH 6 0
BBX 6 12 0 0
BITMAP
4C
44
44
E0
40
40
40
40
40
40
40
60
ENDCHAR
STARTCHAR 0166
ENCODING 358
SWIDTH 600 0
DWIDTH 10 0
BBX 9 12 0 0
BITMAP
FF80
0800
0800
0800
0800
0800
7F00
0800
0800
0800
0800
0800
ENDCHAR
STARTCHAR 0167
ENCODING 359
SWIDTH 240 0
DWIDTH 4 0
BBX 4 11 0 0
BITMAP
40
40
F0
40
40
F0
40
40
40
40
30
ENDCHAR
STARTCHAR 0168
ENCODING 360
SWIDTH 660 0
DWIDTH 11 0
BBX 9 15 1 0
BITMAP
0A00
1400
0000
8080
8080
8080
8080
8080
8080
8080
8080
8080
8080
4100
3E00
ENDCHAR
STARTCHAR 0169
ENCODING 361
SWIDTH 540 0
DWIDTH 9 0
BBX 7 12 1 0
BITMAP
28
50
00
82
82
82
82
82
82
82
86
7A
ENDCHAR
STARTCHAR 016A
ENCODING 362
SWIDTH 660 0
DWIDTH 11 0
BBX 9 14 1 0
BITMAP
3E00
0000
8080
8080
8080
8080
8080
8080
8080
8080
8080
8080
4100
3E00
ENDCHAR
STARTCHAR 016B
ENCODING 363
SWIDTH 540 0
DWIDTH 9 0
BBX 7 11 1 0
BITMAP
7C
00
82
82
82
82
82
82
82
86
7A
ENDCHAR
STARTCHAR 016C
ENCODING 364
SWIDTH 660 0
DWIDTH 11 0
BBX 9 15 1 0
BITMAP
2200
1C00
0000
8080
8080
8080
8080
8080
8080
8080
8080
8080
8080
4100
3E00
ENDCHAR
STARTCHAR 016D
ENCODING 365
SWIDTH 540 0
DWIDTH 9 0
BBX 7 12 1 0
BITMAP
44
38
00
82
82
82
82
82
82
82
86
7A
ENDCHAR
STARTCHAR 016E
ENCODING 366
SWIDTH 660 0
DWIDTH 11 0
BBX 9 15 1 0
BITMAP
1C00
1400
1C00
8080
8080
8080
8080
8080
8080
8080
8080
8080
8080
4100
3E00
ENDCHAR
STARTCHAR 016F
ENCODING 367
SWIDTH 540 0
DWIDTH 9 0
BBX 7 13 1 0
BITMAP
38
28
38
00
82
82
82
82
82
82
82
86
7A
ENDCHAR
STARTCHAR 0170
ENCODING 368
SWIDTH 660 0
DWIDTH 11 0
BBX 9 15 1 0
BITMAP
1200
2400
0000
8080
8080
8080
8080
8080
8080
8080
8080
8080
8080
4100
3E00
ENDCHAR
STARTCHAR 0171
ENCODING 369
SWIDTH 540 0
DWIDTH 9 0
BBX 7 12 1 0
BITMAP
24
48
00
82
82
82
82
82
82
82
86
7A
ENDCHAR
STARTCHAR 0172
ENCODING 370
SWIDTH 720 0
DWIDTH 12 0
BBX 9 15 1 -3
BITMAP
8080
8080
8080
8080
8080
8080
8080
8080
8080
8080
4100
3E00
0800
0800
0700
ENDCHAR
STARTCHAR 0173
ENCODING 371
SWIDTH 540 0
DWIDTH 9 0
BBX 9 12 1 -3
BITMAP
8200
8200
8200
8200
8200
8200
8200
8600
7A00
0200
0200
0180
ENDCHAR
STARTCHAR 0174
ENCODING 372
SWIDTH 1020 0
DWIDTH 17 0
BBX 17 15 0 0
BITMAP
00C000
012000
000000
808080
414100
414100
414100
222200
222200
222200
141400
141400
141400
080800
080800
ENDCHAR
STARTCHAR 0175
ENCODING 373
SWIDTH 660 0
DWIDTH 11 0
BBX 11 12 0 0
BITMAP
0600
0900
0000
8420
8420
4A40
4A40
5140
5140
5140
2080
2080
ENDCHAR
STARTCHAR 0176
ENCODING 374
SWIDTH 660 0
DWIDTH 11 0
BBX 9 15 1 0
BITMAP
0C00
1200
0000
8080
4100
4100
2200
1400
1400
0800
0800
0800
0800
0800
0800
ENDCHAR
STARTCHAR 0177
ENCODING 375
SWIDTH 540 0
DWIDTH 9 0
BBX 7 15 1 -3
BITMAP
18
24
00
82
82
82
44
44
2C
28
38
10
10
20
E0
ENDCHAR
STARTCHAR 0178
ENCODING 376
SWIDTH 660 0
DWIDTH 11 0
BBX 9 14 1 0
BITMAP
1400
0000
8080
4100
4100
2200
1400
1400
0800
0800
0800
0800
0800
0800
ENDCHAR
STARTCHAR 0179
ENCODING 377
SWIDTH 540 0
DWIDTH 9 0
BBX 9 15 0 0
BITMAP
0400
0800
0000
7F80
0100
0200
0200
0400
0800
0800
1000
2000
2000
4000
FF80
ENDCHAR
STARTCHAR 017A
ENCODING 378
SWIDTH 480 0
DWIDTH 8 0
BBX 7 12 0 0
BITMAP
08
10
00
FE
04
08
08
10
20
20
40
FE
ENDCHAR
STARTCHAR 017B
ENCODING 379
SWIDTH 540 0
DWIDTH 9 0
BBX 9 14 0 0
BITMAP
0800
0000
7F80
0100
0200
0200
0400
0800
0800
1000
2000
2000
4000
FF80
ENDCHAR
STARTCHAR 017C
ENCODING 380
SWIDTH 480 0
DWIDTH 8 0
BBX 7 11 0 0
BITMAP
10
00
FE
04
08
08
10
20
20
40
FE
ENDCHAR
STARTCHAR 017D
ENCODING 381
SWIDTH 540 0
DWIDTH 9 0
BBX 9 15 0 0
BITMAP
1200
0C00
0000
7F80
0100
0200
0200
0400
0800
0800
1000
2000
2000
4000
FF80
ENDCHAR
STARTCHAR 017E
ENCODING 382
SWIDTH 480 0
DWIDTH 8 0
BBX 7 12 0 0
BITMAP
24
18
00
FE
04
08
08
10
20
20
40
FE
ENDCHAR
STARTCHAR 017F
ENCODING 383
SWIDTH 240 0
DWIDTH 4 0
BBX 3 12 1 0
BITMAP
60
80
80
80
80
80
80
80
80
80
80
80
ENDCHAR
STARTCHAR 018F
ENCODING 399
SWIDTH 780 0
DWIDTH 13 0
BBX 11 12 1 0
BITMAP
1F00
2080
4040
4020
0020
FFE0
8020
8020
8020
4040
2080
1F00
ENDCHAR
STARTCHAR 0192
ENCODING 402
SWIDTH 540 0
DWIDTH 9 0
BBX 8 15 0 -3
BITMAP
07
08
08
3E
08
10
10
10
10
10
10
20
20
20
E0
ENDCHAR
STARTCHAR 01A0
ENCODING 416
SWIDTH 900 0
DWIDTH 15 0
BBX 12 12 1 0
BITMAP
1F10
2090
4050
8020
8020
8020
8020
8020
8020
4040
2080
1F00
ENDCHAR
STARTCHAR 01A1
ENCODING 417
SWIDTH 660 0
DWIDTH 11 0
BBX 9 9 1 0
BITMAP
3C80
4280
8180
8100
8100
8100
8100
4200
3C00
ENDCHAR
STARTCHAR 01AF
ENCODING 431
SWIDTH 900 0
DWIDTH 15 0
BBX 12 12 1 0
BITMAP
8050
8050
8050
8060
8040
8040
8040
8040
8040
8040
4080
3F00
ENDCHAR
STARTCHAR 01B0
ENCODING 432
SWIDTH 660 0
DWIDTH 11 0
BBX 9 9 1 0
BITMAP
8280
8280
8280
8300
8200
8200
8200
8600
7A00
ENDCHAR
STARTCHAR 01CD
ENCODING 461
SWIDTH 660 0
DWIDTH 11 0
BBX 11 15 0 0
BITMAP
0900
0600
0000
0400
0A00
0A00
1100
1100
1100
2080
3F80
4040
4040
8020
8020
ENDCHAR
STARTCHAR 01CE
ENCODING 462
SWIDTH 540 0
DWIDTH 9 0
BBX 7 12 1 0
BITMAP
24
18
00
3C
42
82
0E
72
82
82
86
7A
ENDCHAR
STARTCHAR 01CF
ENCODING 463
SWIDTH 300 0
DWIDTH 5 0
BBX 4 15 1 0
BITMAP
90
60
00
40
40
40
40
40
40
40
40
40
40
40
40
ENDCHAR
STARTCHAR 01D0
ENCODING 464
SWIDTH 240 0
DWIDTH 4 0
BBX 4 12 0 0
BITMAP
90
60
00
40
40
40
40
40
40
40
40
40
ENDCHAR
STARTCHAR 01D1
ENCODING 465
SWIDTH 720 0
DWIDTH 12 0
BBX 10 15 1 0
BITMAP
1200
0C00
0000
1E00
2100
4080
8040
8040
8040
8040
8040
8040
4080
2180
1E00
ENDCHAR
STARTCHAR 01D2
ENCODING 466
SWIDTH 540 0
DWIDTH 9 0
BBX 7 12 1 0
BITMAP
24
18
00
38
44
82
82
82
82
82
44
38
ENDCHAR
STARTCHAR 01D3
ENCODING 467
SWIDTH 660 0
DWIDTH 11 0
BBX 9 15 1 0
BITMAP
1200
0C00
0000
8080
8080
8080
8080
8080
8080
8080
8080
8080
8080
4100
3E00
ENDCHAR
STARTCHAR 01D4
ENCODING 468
SWIDTH 540 0
DWIDTH 9 0
BBX 7 12 1 0
BITMAP
24
18
00
82
82
82
82
82
82
82
86
7A
ENDCHAR
STARTCHAR 01D5
ENCODING 469
SWIDTH 660 0
DWIDTH 11 0
BBX 9 15 1 0
BITMAP
1E00
0000
1200
8080
8080
8080
8080
8080
8080
8080
8080
8080
8080
4100
3E00
ENDCHAR
STARTCHAR 01D6
ENCODING 470
SWIDTH 540 0
DWIDTH 9 0
BBX 7 14 1 0
BITMAP
7C
00
00
28
00
82
82
82
82
82
82
82
86
7A
ENDCHAR
STARTCHAR 01D7
ENCODING 471
SWIDTH 660 0
DWIDTH 11 0
BBX 9 15 1 0
BITMAP
0400
0800
2200
8080
8080
8080
8080
8080
8080
8080
8080
8080
8080
4100
3E00
ENDCHAR
STARTCHAR 01D8
ENCODING 472
SWIDTH 540 0
DWIDTH 9 0
BBX 7 14 1 0
BITMAP
08
10
00
28
00
82
82
82
82
82
82
82
86
7A
ENDCHAR
STARTCHAR 01D9
ENCODING 473
SWIDTH 660 0
DWIDTH 11 0
BBX 9 15 1 0
BITMAP
1400
0800
2200
8080
8080
8080
8080
8080
8080
8080
8080
8080
8080
4100
3E00
ENDCHAR
STARTCHAR 01DA
ENCODING 474
SWIDTH 540 0
DWIDTH 9 0
BBX 7 14 1 0
BITMAP
24
18
00
28
00
82
82
82
82
82
82
82
86
7A
ENDCHAR
STARTCHAR 01DB
ENCODING 475
SWIDTH 660 0
DWIDTH 11 0
BBX 9 15 1 0
BITMAP
1000
0800
2200
8080
8080
8080
8080
8080
8080
8080
8080
8080
8080
4100
3E00
ENDCHAR
STARTCHAR 01DC
ENCODING 476
SWIDTH 540 0
DWIDTH 9 0
BBX 7 14 1 0
BITMAP
20
10
00
28
00
82
82
82
82
82
82
82
86
7A
ENDCHAR
STARTCHAR 01FA
ENCODING 506
SWIDTH 660 0
DWIDTH 11 0
BBX 11 16 0 0
BITMAP
0200
0400
0E00
0A00
0E00
0A00
0A00
1100
1100
1100
2080
3F80
4040
4040
8020
8020
ENDCHAR
STARTCHAR 01FB
ENCODING 507
SWIDTH 540 0
DWIDTH 9 0
BBX 7 16 1 0
BITMAP
08
10
00
38
28
38
00
3C
42
82
0E
72
82
82
86
7A
ENDCHAR
STARTCHAR 01FC
ENCODING 508
SWIDTH 1020 0
DWIDTH 17 0
BBX 16 15 0 0
BITMAP
0080
0100
0000
07FF
0480
0880
0880
1080
10FF
2080
3F80
4080
4080
8080
80FF
ENDCHAR
STARTCHAR 01FD
ENCODING 509
SWIDTH 900 0
DWIDTH 15 0
BBX 13 12 1 0
BITMAP
0100
0200
0000
3DE0
4310
8208
0E08
73F8
8200
8208
8710
79E0
ENDCHAR
STARTCHAR 01FE
ENCODING 510
SWIDTH 780 0
DWIDTH 13 0
BBX 11 15 1 0
BITMAP
0200
0400
0000
1F20
20C0
40C0
8120
8220
8420
8C20
8820
9040
6040
6080
9F00
ENDCHAR
STARTCHAR 01FF
ENCODING 511
SWIDTH 540 0
DWIDTH 9 0
BBX 7 12 1 0
BITMAP
08
10
00
3A
44
86
8A
92
A2
C2
44
B8
ENDCHAR
STARTCHAR 0259
ENCODING 601
SWIDTH 540 0
DWIDTH 9 0
BBX 7 9 1 0
BITMAP
38
44
82
02
FE
82
82
44
38
ENDCHAR
STARTCHAR 02C6
ENCODING 710
SWIDTH 360 0
DWIDTH 6 0
BBX 4 2 1 10
BITMAP
60
90
ENDCHAR
STARTCHAR 02C7
ENCODING 711
SWIDTH 360 0
DWIDTH 6 0
BBX 4 2 1 10
BITMAP
90
60
ENDCHAR
STARTCHAR 02C9
ENCODING 713
SWIDTH 360 0
DWIDTH 6 0
BBX 5 1 0 10
BITMAP
F8
ENDCHAR
STARTCHAR 02D8
ENCODING 728
SWIDTH 360 0
DWIDTH 6 0
BBX 5 2 0 10
BITMAP
88
70
ENDCHAR
STARTCHAR 02D9
ENCODING 729
SWIDTH 360 0
DWIDTH 6 0
BBX 1 1 2 11
BITMAP
80
ENDCHAR
STARTCHAR 02DA
ENCODING 730
SWIDTH 360 0
DWIDTH 6 0
BBX 3 3 1 9
BITMAP
E0
A0
E0
ENDCHAR
STARTCHAR 02DB
ENCODING 731
SWIDTH 360 0
DWIDTH 6 0
BBX 4 3 1 -3
BITMAP
80
80
70
ENDCHAR
STARTCHAR 02DC
ENCODING 732
SWIDTH 240 0
DWIDTH 4 0
BBX 4 2 0 10
BITMAP
50
A0
ENDCHAR
STARTCHAR 02DD
ENCODING 733
SWIDTH 360 0
DWIDTH 6 0
BBX 5 2 1 10
BITMAP
48
90
ENDCHAR
STARTCHAR 0300
ENCODING 768
SWIDTH 0 0
DWIDTH 0 0
BBX 2 2 -3 13
BITMAP
80
40
ENDCHAR
STARTCHAR 0301
ENCODING 769
SWIDTH 0 0
DWIDTH 0 0
BBX 2 2 -3 13
BITMAP
40
80
ENDCHAR
STARTCHAR 0303
ENCODING 771
SWIDTH 0 0
DWIDTH 0 0
BBX 5 2 -7 13
BITMAP
68
90
ENDCHAR
STARTCHAR 0309
ENCODING 777
SWIDTH 0 0
DWIDTH 0 0
BBX 3 2 -4 13
BITMAP
E0
40
ENDCHAR
STARTCHAR 0323
ENCODING 803
SWIDTH 0 0
DWIDTH 0 0
BBX 1 1 -6 -2
BITMAP
80
ENDCHAR
STARTCHAR 037E
ENCODING 894
SWIDTH 300 0
DWIDTH 5 0
BBX 1 11 2 -2
BITMAP
80
00
00
00
00
00
00
00
80
80
80
ENDCHAR
STARTCHAR 0384
ENCODING 900
SWIDTH 360 0
DWIDTH 6 0
BBX 2 2 2 10
BITMAP
40
80
ENDCHAR
STARTCHAR 0385
ENCODING 901
SWIDTH 360 0
DWIDTH 6 0
BBX 6 2 0 10
BITMAP
9C
B4
ENDCHAR
STARTCHAR 0386
ENCODING 902
SWIDTH 660 0
DWIDTH 11 0
BBX 11 12 0 0
BITMAP
4400
8A00
0A00
1100
1100
1100
2080
3F80
4040
4040
8020
8020
ENDCHAR
STARTCHAR 0387
ENCODING 903
SWIDTH 240 0
DWIDTH 4 0
BBX 1 1 2 8
BITMAP
80
ENDCHAR
STARTCHAR 0388
ENCODING 904
SWIDTH 780 0
DWIDTH 13 0
BBX 12 12 0 0
BITMAP
5FF0
9000
1000
1000
1000
1FE0
1000
1000
1000
1000
1000
1FF0
ENDCHAR
STARTCHAR 0389
ENCODING 905
SWIDTH 780 0
DWIDTH 13 0
BBX 12 12 0 0
BITMAP
5010
9010
1010
1010
1010
1FF0
1010
1010
1010
1010
1010
1010
ENDCHAR
STARTCHAR 038A
ENCODING 906
SWIDTH 360 0
DWIDTH 6 0
BBX 4 12 0 0
BITMAP
50
90
10
10
10
10
10
10
10
10
10
10
ENDCHAR
STARTCHAR 038C
ENCODING 908
SWIDTH 780 0
DWIDTH 13 0
BBX 12 12 0 0
BITMAP
4F80
9040
2020
4010
4010
4010
4010
4010
4010
2020
1040
0F80
ENDCHAR
STARTCHAR 038E
ENCODING 910
SWIDTH 840 0
DWIDTH 14 0
BBX 13 12 0 0
BITMAP
4808
8410
0410
0220
0140
0140
0080
0080
0080
0080
0080
0080
ENDCHAR
STARTCHAR 038F
ENCODING 911
SWIDTH 780 0
DWIDTH 13 0
BBX 12 12 0 0
BITMAP
4F80
9040
2020
4010
4010
4010
4010
4010
2020
2020
18C0
7DF0
ENDCHAR
STARTCHAR 0390
ENCODING 912
SWIDTH 180 0
DWIDTH 3 0
BBX 6 12 -1 0
BITMAP
94
A4
00
20
20
20
20
20
20
20
20
20
ENDCHAR
STARTCHAR 0391
ENCODING 913
SWIDTH 660 0
DWIDTH 11 0
BBX 11 12 0 0
BITMAP
0400
0A00
0A00
1100
1100
1100
2080
3F80
4040
4040
8020
8020
ENDCHAR
STARTCHAR 0392
ENCODING 914
SWIDTH 660 0
DWIDTH 11 0
BBX 9 12 1 0
BITMAP
FF00
8100
8080
8080
8100
FF00
8100
8080
8080
8080
8100
FE00
ENDCHAR
STARTCHAR 0393
ENCODING 915
SWIDTH 540 0
DWIDTH 9 0
BBX 7 12 2 0
BITMAP
FE
80
80
80
80
80
80
80
80
80
80
80
ENDCHAR
STARTCHAR 0394
ENCODING 916
SWIDTH 660 0
DWIDTH 11 0
BBX 9 12 1 0
BITMAP
0800
1400
1400
1400
2200
2200
4200
4100
4100
8080
8080
FF80
ENDCHAR
STARTCHAR 0395
ENCODING 917
SWIDTH 660 0
DWIDTH 11 0
BBX 9 12 1 0
BITMAP
FF80
8000
8000
8000
8000
FF00
8000
8000
8000
8000
8000
FF80
ENDCHAR
STARTCHAR 0396
ENCODING 918
SWIDTH 540 0
DWIDTH 9 0
BBX 9 12 0 0
BITMAP
7F80
0100
0200
0200
0400
0800
0800
1000
2000
2000
4000
FF80
ENDCHAR
STARTCHAR 0397
ENCODING 919
SWIDTH 660 0
DWIDTH 11 0
BBX 9 12 1 0
BITMAP
8080
8080
8080
8080
8080
FF80
8080
8080
8080
8080
8080
8080
ENDCHAR
STARTCHAR 0398
ENCODING 920
SWIDTH 720 0
DWIDTH 12 0
BBX 10 12 1 0
BITMAP
1E00
2100
4080
8040
8040
BF40
8040
8040
8040
4080
2100
1E00
ENDCHAR
STARTCHAR 0399
ENCODING 921
SWIDTH 300 0
DWIDTH 5 0
BBX 1 12 2 0
BITMAP
80
80
80
80
80
80
80
80
80
80
80
80
ENDCHAR
STARTCHAR 039A
ENCODING 922
SWIDTH 660 0
DWIDTH 11 0
BBX 9 12 1 0
BITMAP
8080
8100
8200
8400
8800
9800
A400
C400
8200
8100
8100
8080
ENDCHAR
STARTCHAR 039B
ENCODING 923
SWIDTH 660 0
DWIDTH 11 0
BBX 11 12 0 0
BITMAP
0E00
0A00
0A00
1100
1100
2080
2080
4040
4040
4040
8020
8020
ENDCHAR
STARTCHAR 039C
ENCODING 924
SWIDTH 780 0
DWIDTH 13 0
BBX 11 12 1 0
BITMAP
8020
C060
C060
A0A0
A0A0
9120
9120
9220
8A20
8A20
8420
8420
ENDCHAR
STARTCHAR 039D
ENCODING 925
SWIDTH 660 0
DWIDTH 11 0
BBX 9 12 1 0
BITMAP
8080
C080
A080
A080
9080
8880
8880
8480
8280
8280
8180
8080
ENDCHAR
STARTCHAR 039E
ENCODING 926
SWIDTH 660 0
DWIDTH 11 0
BBX 9 12 1 0
BITMAP
FF80
0000
0000
0000
0000
7F00
0000
0000
0000
0000
0000
FF80
ENDCHAR
STARTCHAR 039F
ENCODING 927
SWIDTH 720 0
DWIDTH 12 0
BBX 10 12 1 0
BITMAP
1E00
2100
4080
8040
8040
8040
8040
8040
8040
4080
2180
1E00
ENDCHAR
STARTCHAR 03A0
ENCODING 928
SWIDTH 660 0
DWIDTH 11 0
BBX 9 12 1 0
BITMAP
FF80
8080
8080
8080
8080
8080
8080
8080
8080
8080
8080
8080
ENDCHAR
STARTCHAR 03A1
ENCODING 929
SWIDTH 660 0
DWIDTH 11 0
BBX 9 12 1 0
BITMAP
FE00
8100
8080
8080
8080
8100
FE00
8000
8000
8000
8000
8000
ENDCHAR
STARTCHAR 03A3
ENCODING 931
SWIDTH 660 0
DWIDTH 11 0
BBX 9 12 1 0
BITMAP
FF80
8000
4000
2000
1000
0800
0800
1000
2000
4000
8000
FF80
ENDCHAR
STARTCHAR 03A4
ENCODING 932
SWIDTH 540 0
DWIDTH 9 0
BBX 9 12 0 0
BITMAP
FF80
0800
0800
0800
0800
0800
0800
0800
0800
0800
0800
0800
ENDCHAR
STARTCHAR 03A5
ENCODING 933
SWIDTH 660 0
DWIDTH 11 0
BBX 9 12 1 0
BITMAP
8080
4100
4100
2200
1400
1400
0800
0800
0800
0800
0800
0800
ENDCHAR
STARTCHAR 03A6
ENCODING 934
SWIDTH 780 0
DWIDTH 13 0
BBX 11 12 1 0
BITMAP
0400
0400
3F80
4440
8420
8420
8420
8420
4440
3F80
0400
0400
ENDCHAR
STARTCHAR 03A7
ENCODING 935
SWIDTH 660 0
DWIDTH 11 0
BBX 11 12 0 0
BITMAP
4040
2080
1100
1100
0A00
0400
0A00
1100
1100
2080
4040
8020
ENDCHAR
STARTCHAR 03A8
ENCODING 936
SWIDTH 780 0
DWIDTH 13 0
BBX 11 12 1 0
BITMAP
8420
8420
8420
8420
8420
8460
64C0
1F00
0400
0400
0400
0400
ENDCHAR
STARTCHAR 03A9
ENCODING 937
SWIDTH 780 0
DWIDTH 13 0
BBX 11 12 1 0
BITMAP
1F00
2080
4040
8020
8020
8020
8020
8020
4040
4040
3180
FBE0
ENDCHAR
STARTCHAR 03AA
ENCODING 938
SWIDTH 300 0
DWIDTH 5 0
BBX 3 14 1 0
BITMAP
A0
00
40
40
40
40
40
40
40
40
40
40
40
40
ENDCHAR
STARTCHAR 03AB
ENCODING 939
SWIDTH 660 0
DWIDTH 11 0
BBX 9 14 1 0
BITMAP
1400
0000
8080
4100
4100
2200
1400
1400
0800
0800
0800
0800
0800
0800
ENDCHAR
STARTCHAR 03AC
ENCODING 940
SWIDTH 600 0
DWIDTH 10 0
BBX 8 12 1 0
BITMAP
04
08
00
39
45
82
82
82
82
82
45
39
ENDCHAR
STARTCHAR 03AD
ENCODING 941
SWIDTH 480 0
DWIDTH 8 0
BBX 6 12 1 0
BITMAP
10
20
00
78
84
80
80
70
80
80
84
78
ENDCHAR
STARTCHAR 03AE
ENCODING 942
SWIDTH 540 0
DWIDTH 9 0
BBX 7 15 1 -3
BITMAP
10
20
00
BC
C2
82
82
82
82
82
82
82
02
02
02
ENDCHAR
STARTCHAR 03AF
ENCODING 943
SWIDTH 180 0
DWIDTH 3 0
BBX 2 12 1 0
BITMAP
40
80
00
80
80
80
80
80
80
80
80
80
ENDCHAR
STARTCHAR 03B0
ENCODING 944
SWIDTH 540 0
DWIDTH 9 0
BBX 7 12 1 0
BITMAP
4E
5A
00
82
82
82
82
82
82
82
C4
38
ENDCHAR
STARTCHAR 03B1
ENCODING 945
SWIDTH 600 0
DWIDTH 10 0
BBX 8 9 1 0
BITMAP
39
45
82
82
82
82
82
45
39
ENDCHAR
STARTCHAR 03B2
ENCODING 946
SWIDTH 600 0
DWIDTH 10 0
BBX 8 15 1 -3
BITMAP
3C
42
82
82
84
98
86
81
81
81
C2
BC
80
80
80
ENDCHAR
STARTCHAR 03B3
ENCODING 947
SWIDTH 540 0
DWIDTH 9 0
BBX 7 12 1 -3
BITMAP
82
82
82
44
44
28
28
28
10
10
10
10
ENDCHAR
STARTCHAR 03B4
ENCODING 948
SWIDTH 540 0
DWIDTH 9 0
BBX 7 12 1 0
BITMAP
7C
20
10
38
44
82
82
82
82
82
44
38
ENDCHAR
STARTCHAR 03B5
ENCODING 949
SWIDTH 480 0
DWIDTH 8 0
BBX 6 9 1 0
BITMAP
78
84
80
80
70
80
80
84
78
ENDCHAR
STARTCHAR 03B6
ENCODING 950
SWIDTH 480 0
DWIDTH 8 0
BBX 5 15 2 -3
BITMAP
78
10
20
20
40
40
80
80
80
80
80
70
08
08
30
ENDCHAR
STARTCHAR 03B7
ENCODING 951
SWIDTH 540 0
DWIDTH 9 0
BBX 7 12 1 -3
BITMAP
BC
C2
82
82
82
82
82
82
82
02
02
02
ENDCHAR
STARTCHAR 03B8
ENCODING 952
SWIDTH 540 0
DWIDTH 9 0
BBX 7 12 1 0
BITMAP
38
44
82
82
82
FE
82
82
82
82
44
38
ENDCHAR
STARTCHAR 03B9
ENCODING 953
SWIDTH 180 0
DWIDTH 3 0
BBX 1 9 1 0
BITMAP
80
80
80
80
80
80
80
80
80
ENDCHAR
STARTCHAR 03BA
ENCODING 954
SWIDTH 480 0
DWIDTH 8 0
BBX 6 9 1 0
BITMAP
84
88
90
A0
E0
90
88
88
84
ENDCHAR
STARTCHAR 03BB
ENCODING 955
SWIDTH 540 0
DWIDTH 9 0
BBX 7 12 1 0
BITMAP
20
20
30
10
10
28
28
2C
44
44
82
82
ENDCHAR
STARTCHAR 03BC
ENCODING 956
SWIDTH 540 0
DWIDTH 9 0
BBX 7 12 1 -3
BITMAP
82
82
82
82
82
82
82
C6
BA
80
80
80
ENDCHAR
STARTCHAR 03BD
ENCODING 957
SWIDTH 420 0
DWIDTH 7 0
BBX 7 9 0 0
BITMAP
82
82
44
44
44
28
28
10
10
ENDCHAR
STARTCHAR 03BE
ENCODING 958
SWIDTH 480 0
DWIDTH 8 0
BBX 5 15 2 -3
BITMAP
78
80
80
80
70
40
80
80
80
80
80
70
08
08
30
ENDCHAR
STARTCHAR 03BF
ENCODING 959
SWIDTH 540 0
DWIDTH 9 0
BBX 7 9 1 0
BITMAP
38
44
82
82
82
82
82
44
38
ENDCHAR
STARTCHAR 03C0
ENCODING 960
SWIDTH 720 0
DWIDTH 12 0
BBX 12 9 0 0
BITMAP
FFF0
2040
2040
2040
2040
2040
2040
2040
2040
ENDCHAR
STARTCHAR 03C1
ENCODING 961
SWIDTH 540 0
DWIDTH 9 0
BBX 7 12 1 -3
BITMAP
38
44
82
82
82
82
82
C4
B8
80
80
80
ENDCHAR
STARTCHAR 03C2
ENCODING 962
SWIDTH 480 0
DWIDTH 8 0
BBX 6 12 1 -3
BITMAP
1C
60
40
80
80
80
80
40
38
04
04
38
ENDCHAR
STARTCHAR 03C3
ENCODING 963
SWIDTH 660 0
DWIDTH 11 0
BBX 10 9 1 0
BITMAP
3FC0
4400
8200
8200
8200
8200
8200
4400
3800
ENDCHAR
STARTCHAR 03C4
ENCODING 964
SWIDTH 360 0
DWIDTH 6 0
BBX 5 9 0 0
BITMAP
F8
20
20
20
20
20
20
20
20
ENDCHAR
STARTCHAR 03C5
ENCODING 965
SWIDTH 540 0
DWIDTH 9 0
BBX 7 9 1 0
BITMAP
82
82
82
82
82
82
82
C4
38
ENDCHAR
STARTCHAR 03C6
ENCODING 966
SWIDTH 660 0
DWIDTH 11 0
BBX 9 12 1 -3
BITMAP
2600
4900
8880
8880
8880
8880
4900
6B00
1C00
0800
0800
0800
ENDCHAR
STARTCHAR 03C7
ENCODING 967
SWIDTH 540 0
DWIDTH 9 0
BBX 7 12 1 -3
BITMAP
82
82
44
28
28
10
10
28
28
44
82
82
ENDCHAR
STARTCHAR 03C8
ENCODING 968
SWIDTH 660 0
DWIDTH 11 0
BBX 9 12 1 -3
BITMAP
8880
8880
8880
8880
8880
8880
8880
4900
3E00
0800
0800
0800
ENDCHAR
STARTCHAR 03C9
ENCODING 969
SWIDTH 780 0
DWIDTH 13 0
BBX 11 9 1 0
BITMAP
4040
4040
8420
8420
8420
8420
8420
4A40
7BC0
ENDCHAR
STARTCHAR 03CA
ENCODING 970
SWIDTH 180 0
DWIDTH 3 0
BBX 3 11 0 0
BITMAP
A0
00
40
40
40
40
40
40
40
40
40
ENDCHAR
STARTCHAR 03CB
ENCODING 971
SWIDTH 540 0
DWIDTH 9 0
BBX 7 11 1 0
BITMAP
28
00
82
82
82
82
82
82
82
C4
38
ENDCHAR
STARTCHAR 03CC
ENCODING 972
SWIDTH 540 0
DWIDTH 9 0
BBX 7 12 1 0
BITMAP
08
10
00
38
44
82
82
82
82
82
44
38
ENDCHAR
STARTCHAR 03CD
ENCODING 973
SWIDTH 540 0
DWIDTH 9 0
BBX 7 12 1 0
BITMAP
08
10
00
82
82
82
82
82
82
82
C4
38
ENDCHAR
STARTCHAR 03CE
ENCODING 974
SWIDTH 780 0
DWIDTH 13 0
BBX 11 12 1 0
BITMAP
0200
0400
0000
4040
4040
8420
8420
8420
8420
8420
4A40
7BC0
ENDCHAR
STARTCHAR 0401
ENCODING 1025
SWIDTH 660 0
DWIDTH 11 0
BBX 9 14 1 0
BITMAP
0A00
0000
FF80
8000
8000
8000
8000
FF00
8000
8000
8000
8000
8000
FF80
ENDCHAR
STARTCHAR 0402
ENCODING 1026
SWIDTH 900 0
DWIDTH 15 0
BBX 14 12 0 0
BITMAP
FFE0
0400
0400
0400
0400
05F0
0608
0404
0404
0404
0408
0470
ENDCHAR
STARTCHAR 0403
ENCODING 1027
SWIDTH 540 0
DWIDTH 9 0
BBX 7 15 2 0
BITMAP
10
20
00
FE
80
80
80
80
80
80
80
80
80
80
80
ENDCHAR
STARTCHAR 0404
ENCODING 1028
SWIDTH 720 0
DWIDTH 12 0
BBX 10 12 1 0
BITMAP
1F00
2080
4040
8000
8000
FC00
8000
8000
8000
4040
2080
1F00
ENDCHAR
STARTCHAR 0405
ENCODING 1029
SWIDTH 660 0
DWIDTH 11 0
BBX 9 12 1 0
BITMAP
3E00
4100
8080
8000
4000
3800
0700
0080
8080
8080
4100
3E00
ENDCHAR
STARTCHAR 0406
ENCODING 1030
SWIDTH 300 0
DWIDTH 5 0
BBX 1 12 2 0
BITMAP
80
80
80
80
80
80
80
80
80
80
80
80
ENDCHAR
STARTCHAR 0407
ENCODING 1031
SWIDTH 300 0
DWIDTH 5 0
BBX 3 14 1 0
BITMAP
A0
00
40
40
40
40
40
40
40
40
40
40
40
40
ENDCHAR
STARTCHAR 0408
ENCODING 1032
SWIDTH 540 0
DWIDTH 9 0
BBX 7 12 1 0
BITMAP
02
02
02
02
02
02
02
02
82
82
44
78
ENDCHAR
STARTCHAR 0409
ENCODING 1033
SWIDTH 1080 0
DWIDTH 18 0
BBX 17 12 0 0
BITMAP
3F8000
208000
208000
208000
208000
20FE00
208100
208080
208080
208080
208100
C0FE00
ENDCHAR
STARTCHAR 040A
ENCODING 1034
SWIDTH 1020 0
DWIDTH 17 0
BBX 15 12 1 0
BITMAP
8100
8100
8100
8100
8100
FFF8
8104
8102
8102
8102
8104
81F8
ENDCHAR
STARTCHAR 040B
ENCODING 1035
SWIDTH 900 0
DWIDTH 15 0
BBX 14 12 0 0
BITMAP
FFE0
0400
0400
0400
0400
05F0
0608
0404
0404
0404
0404
0404
ENDCHAR
STARTCHAR 040C
ENCODING 1036
SWIDTH 600 0
DWIDTH 10 0
BBX 9 15 1 0
BITMAP
0400
0800
0000
8180
8200
8400
8400
8800
F000
9800
8400
8200
8200
8100
8080
ENDCHAR
STARTCHAR 040E
ENCODING 1038
SWIDTH 660 0
DWIDTH 11 0
BBX 9 15 1 0
BITMAP
2200
1C00
0000
8080
8080
4100
4100
2200
2200
1400
1400
0800
0800
1000
7000
ENDCHAR
STARTCHAR 040F
ENCODING 1039
SWIDTH 660 0
DWIDTH 11 0
BBX 9 15 1 -3
BITMAP
8080
8080
8080
8080
8080
8080
8080
8080
8080
8080
8080
FF80
0800
0800
0800
ENDCHAR
STARTCHAR 0410
ENCODING 1040
SWIDTH 660 0
DWIDTH 11 0
BBX 11 12 0 0
BITMAP
0400
0A00
0A00
1100
1100
1100
2080
3F80
4040
4040
8020
8020
ENDCHAR
STARTCHAR 0411
ENCODING 1041
SWIDTH 660 0
DWIDTH 11 0
BBX 9 12 1 0
BITMAP
FF00
8000
8000
8000
8000
FE00
8100
8080
8080
8080
8100
FE00
ENDCHAR
STARTCHAR 0412
ENCODING 1042
SWIDTH 660 0
DWIDTH 11 0
BBX 9 12 1 0
BITMAP
FF00
8100
8080
8080
8100
FF00
8100
8080
8080
8080
8100
FE00
ENDCHAR
STARTCHAR 0413
ENCODING 1043
SWIDTH 540 0
DWIDTH 9 0
BBX 7 12 2 0
BITMAP
FE
80
80
80
80
80
80
80
80
80
80
80
ENDCHAR
STARTCHAR 0414
ENCODING 1044
SWIDTH 720 0
DWIDTH 12 0
BBX 11 15 0 -3
BITMAP
1FC0
1040
1040
1040
1040
1040
1040
2040
2040
2040
4040
FFE0
8020
8020
8020
ENDCHAR
STARTCHAR 0415
ENCODING 1045
SWIDTH 660 0
DWIDTH 11 0
BBX 9 12 1 0
BITMAP
FF80
8000
8000
8000
8000
FF00
8000
8000
8000
8000
8000
FF80
ENDCHAR
STARTCHAR 0416
ENCODING 1046
SWIDTH 900 0
DWIDTH 15 0
BBX 15 12 0 0
BITMAP
C106
2108
1110
1110
0920
07C0
1930
1110
2108
4104
4104
8102
ENDCHAR
STARTCHAR 0417
ENCODING 1047
SWIDTH 600 0
DWIDTH 10 0
BBX 8 12 1 0
BITMAP
38
44
82
82
04
18
06
01
01
81
42
3C
ENDCHAR
STARTCHAR 0418
ENCODING 1048
SWIDTH 720 0
DWIDTH 12 0
BBX 10 12 1 0
BITMAP
8040
80C0
80C0
8140
8240
8440
8840
9040
A040
C040
C040
8040
ENDCHAR
STARTCHAR 0419
ENCODING 1049
SWIDTH 720 0
DWIDTH 12 0
BBX 10 15 1 0
BITMAP
1100
0E00
0000
8040
80C0
80C0
8140
8240
8440
8840
9040
A040
C040
C040
8040
ENDCHAR
STARTCHAR 041A
ENCODING 1050
SWIDTH 600 0
DWIDTH 10 0
BBX 9 12 1 0
BITMAP
8180
8200
8400
8400
8800
F000
9800
8400
8200
8200
8100
8080
ENDCHAR
STARTCHAR 041B
ENCODING 1051
SWIDTH 600 0
DWIDTH 10 0
BBX 9 12 0 0
BITMAP
3F80
2080
2080
2080
2080
2080
2080
2080
2080
2080
2080
C080
ENDCHAR
STARTCHAR 041C
ENCODING 1052
SWIDTH 780 0
DWIDTH 13 0
BBX 11 12 1 0
BITMAP
8020
C060
C060
A0A0
A0A0
9120
9120
9220
8A20
8A20
8420
8420
ENDCHAR
STARTCHAR 041D
ENCODING 1053
SWIDTH 660 0
DWIDTH 11 0
BBX 9 12 1 0
BITMAP
8080
8080
8080
8080
8080
FF80
8080
8080
8080
8080
8080
8080
ENDCHAR
STARTCHAR 041E
ENCODING 1054
SWIDTH 720 0
DWIDTH 12 0
BBX 10 12 1 0
BITMAP
1E00
2100
4080
8040
8040
8040
8040
8040
8040
4080
2180
1E00
ENDCHAR
STARTCHAR 041F
ENCODING 1055
SWIDTH 660 0
DWIDTH 11 0
BBX 9 12 1 0
BITMAP
FF80
8080
8080
8080
8080
8080
8080
8080
8080
8080
8080
8080
ENDCHAR
STARTCHAR 0420
ENCODING 1056
SWIDTH 660 0
DWIDTH 11 0
BBX 9 12 1 0
BITMAP
FE00
8100
8080
8080
8080
8100
FE00
8000
8000
8000
8000
8000
ENDCHAR
STARTCHAR 0421
ENCODING 1057
SWIDTH 720 0
DWIDTH 12 0
BBX 10 12 1 0
BITMAP
1F00
2080
4040
8000
8000
8000
8000
8000
8000
4040
6080
1F00
ENDCHAR
STARTCHAR 0422
ENCODING 1058
SWIDTH 540 0
DWIDTH 9 0
BBX 9 12 0 0
BITMAP
FF80
0800
0800
0800
0800
0800
0800
0800
0800
0800
0800
0800
ENDCHAR
STARTCHAR 0423
ENCODING 1059
SWIDTH 660 0
DWIDTH 11 0
BBX 9 12 1 0
BITMAP
8080
8080
4100
4100
2200
2200
1400
1400
0800
0800
1000
7000
ENDCHAR
STARTCHAR 0424
ENCODING 1060
SWIDTH 780 0
DWIDTH 13 0
BBX 11 12 1 0
BITMAP
0400
0400
1F00
64C0
8420
8420
8420
8420
64C0
1F00
0400
0400
ENDCHAR
STARTCHAR 0425
ENCODING 1061
SWIDTH 660 0
DWIDTH 11 0
BBX 11 12 0 0
BITMAP
4040
2080
1100
1100
0A00
0400
0A00
1100
1100
2080
4040
8020
ENDCHAR
STARTCHAR 0426
ENCODING 1062
SWIDTH 780 0
DWIDTH 13 0
BBX 11 15 1 -3
BITMAP
8080
8080
8080
8080
8080
8080
8080
8080
8080
8080
8080
FFE0
0020
0020
0020
ENDCHAR
STARTCHAR 0427
ENCODING 1063
SWIDTH 600 0
DWIDTH 10 0
BBX 8 12 1 0
BITMAP
81
81
81
81
81
81
43
3D
01
01
01
01
ENDCHAR
STARTCHAR 0428
ENCODING 1064
SWIDTH 900 0
DWIDTH 15 0
BBX 13 12 1 0
BITMAP
8208
8208
8208
8208
8208
8208
8208
8208
8208
8208
8208
FFF8
ENDCHAR
STARTCHAR 0429
ENCODING 1065
SWIDTH 900 0
DWIDTH 15 0
BBX 14 15 1 -3
BITMAP
8208
8208
8208
8208
8208
8208
8208
8208
8208
8208
8208
FFFC
0004
0004
0004
ENDCHAR
STARTCHAR 042A
ENCODING 1066
SWIDTH 780 0
DWIDTH 13 0
BBX 12 12 0 0
BITMAP
F800
0800
0800
0800
0800
0FC0
0820
0810
0810
0810
0820
0FC0
ENDCHAR
STARTCHAR 042B
ENCODING 1067
SWIDTH 840 0
DWIDTH 14 0
BBX 12 12 1 0
BITMAP
8010
8010
8010
8010
8010
FC10
8210
8110
8110
8110
8210
FC10
ENDCHAR
STARTCHAR 042C
ENCODING 1068
SWIDTH 600 0
DWIDTH 10 0
BBX 8 12 1 0
BITMAP
80
80
80
80
80
FC
82
81
81
81
82
FC
ENDCHAR
STARTCHAR 042D
ENCODING 1069
SWIDTH 720 0
DWIDTH 12 0
BBX 10 12 1 0
BITMAP
3E00
4100
8080
0040
0040
0FC0
0040
0040
0040
8080
4100
3E00
ENDCHAR
STARTCHAR 042E
ENCODING 1070
SWIDTH 960 0
DWIDTH 16 0
BBX 14 12 1 0
BITMAP
81E0
8210
8408
8804
8804
8804
F804
8804
8804
8408
8210
81E0
ENDCHAR
STARTCHAR 042F
ENCODING 1071
SWIDTH 720 0
DWIDTH 12 0
BBX 9 12 2 0
BITMAP
3F80
4080
8080
8080
8080
4080
3F80
1080
2080
2080
4080
8080
ENDCHAR
STARTCHAR 0430
ENCODING 1072
SWIDTH 540 0
DWIDTH 9 0
BBX 7 9 1 0
BITMAP
3C
42
82
0E
72
82
82
86
7A
ENDCHAR
STARTCHAR 0431
ENCODING 1073
SWIDTH 540 0
DWIDTH 9 0
BBX 7 12 1 0
BITMAP
3E
40
80
B8
C4
82
82
82
82
82
44
38
ENDCHAR
STARTCHAR 0432
ENCODING 1074
SWIDTH 540 0
DWIDTH 9 0
BBX 7 9 1 0
BITMAP
FC
82
82
82
FC
82
82
82
FC
ENDCHAR
STARTCHAR 0433
ENCODING 1075
SWIDTH 360 0
DWIDTH 6 0
BBX 5 9 1 0
BITMAP
F8
80
80
80
80
80
80
80
80
ENDCHAR
STARTCHAR 0434
ENCODING 1076
SWIDTH 600 0
DWIDTH 10 0
BBX 9 12 0 -3
BITMAP
3F00
2100
2100
2100
2100
2100
4100
4100
FF80
8080
8080
8080
ENDCHAR
STARTCHAR 0435
ENCODING 1077
SWIDTH 540 0
DWIDTH 9 0
BBX 7 9 1 0
BITMAP
38
44
82
82
FE
80
82
44
38
ENDCHAR
STARTCHAR 0436
ENCODING 1078
SWIDTH 660 0
DWIDTH 11 0
BBX 11 9 0 0
BITMAP
C460
4440
2480
2480
1F00
2480
2480
4440
8420
ENDCHAR
STARTCHAR 0437
ENCODING 1079
SWIDTH 480 0
DWIDTH 8 0
BBX 6 9 1 0
BITMAP
78
84
84
04
38
04
84
84
78
ENDCHAR
STARTCHAR 0438
ENCODING 1080
SWIDTH 540 0
DWIDTH 9 0
BBX 7 9 1 0
BITMAP
82
86
8A
8A
92
A2
C2
C2
82
ENDCHAR
STARTCHAR 0439
ENCODING 1081
SWIDTH 540 0
DWIDTH 9 0
BBX 7 12 1 0
BITMAP
44
38
00
82
86
8A
8A
92
A2
C2
C2
82
ENDCHAR
STARTCHAR 043A
ENCODING 1082
SWIDTH 420 0
DWIDTH 7 0
BBX 6 9 1 0
BITMAP
84
88
90
90
E0
90
90
88
84
ENDCHAR
STARTCHAR 043B
ENCODING 1083
SWIDTH 600 0
DWIDTH 10 0
BBX 9 9 0 0
BITMAP
3F80
2080
2080
2080
2080
2080
2080
2080
C080
ENDCHAR
STARTCHAR 043C
ENCODING 1084
SWIDTH 660 0
DWIDTH 11 0
BBX 9 9 1 0
BITMAP
C180
C180
C180
A280
A280
9480
9480
8880
8880
ENDCHAR
STARTCHAR 043D
ENCODING 1085
SWIDTH 540 0
DWIDTH 9 0
BBX 7 9 1 0
BITMAP
82
82
82
82
FE
82
82
82
82
ENDCHAR
STARTCHAR 043E
ENCODING 1086
SWIDTH 540 0
DWIDTH 9 0
BBX 7 9 1 0
BITMAP
38
44
82
82
82
82
82
44
38
ENDCHAR
STARTCHAR 043F
ENCODING 1087
SWIDTH 540 0
DWIDTH 9 0
BBX 7 9 1 0
BITMAP
FE
82
82
82
82
82
82
82
82
ENDCHAR
STARTCHAR 0440
ENCODING 1088
SWIDTH 540 0
DWIDTH 9 0
BBX 7 12 1 -3
BITMAP
B8
C4
82
82
82
82
82
C4
B8
80
80
80
ENDCHAR
STARTCHAR 0441
ENCODING 1089
SWIDTH 540 0
DWIDTH 9 0
BBX 7 9 1 0
BITMAP
38
44
82
80
80
80
82
44
38
ENDCHAR
STARTCHAR 0442
ENCODING 1090
SWIDTH 480 0
DWIDTH 8 0
BBX 7 9 0 0
BITMAP
FE
10
10
10
10
10
10
10
10
ENDCHAR
STARTCHAR 0443
ENCODING 1091
SWIDTH 540 0
DWIDTH 9 0
BBX 7 12 1 -3
BITMAP
82
82
82
44
44
2C
28
38
10
10
20
E0
ENDCHAR
STARTCHAR 0444
ENCODING 1092
SWIDTH 780 0
DWIDTH 13 0
BBX 11 15 1 -3
BITMAP
0400
0400
0400
3580
4E40
8420
8420
8420
8420
8420
4E40
3580
0400
0400
0400
ENDCHAR
STARTCHAR 0445
ENCODING 1093
SWIDTH 420 0
DWIDTH 7 0
BBX 7 9 0 0
BITMAP
82
44
28
28
10
28
28
44
82
ENDCHAR
STARTCHAR 0446
ENCODING 1094
SWIDTH 600 0
DWIDTH 10 0
BBX 8 12 1 -3
BITMAP
82
82
82
82
82
82
82
82
FF
01
01
01
ENDCHAR
STARTCHAR 0447
ENCODING 1095
SWIDTH 540 0
DWIDTH 9 0
BBX 7 9 1 0
BITMAP
82
82
82
82
42
3E
02
02
02
ENDCHAR
STARTCHAR 0448
ENCODING 1096
SWIDTH 840 0
DWIDTH 14 0
BBX 11 9 1 0
BITMAP
8420
8420
8420
8420
8420
8420
8420
8420
FFE0
ENDCHAR
STARTCHAR 0449
ENCODING 1097
SWIDTH 840 0
DWIDTH 14 0
BBX 12 12 1 -3
BITMAP
8420
8420
8420
8420
8420
8420
8420
8420
FFF0
0010
0010
0010
ENDCHAR
STARTCHAR 044A
ENCODING 1098
SWIDTH 660 0
DWIDTH 11 0
BBX 9 9 1 0
BITMAP
E000
2000
2000
2000
3F00
2080
2080
2080
3F00
ENDCHAR
STARTCHAR 044B
ENCODING 1099
SWIDTH 720 0
DWIDTH 12 0
BBX 10 9 1 0
BITMAP
8040
8040
8040
8040
FC40
8240
8240
8240
FC40
ENDCHAR
STARTCHAR 044C
ENCODING 1100
SWIDTH 540 0
DWIDTH 9 0
BBX 7 9 1 0
BITMAP
80
80
80
80
FC
82
82
82
FC
ENDCHAR
STARTCHAR 044D
ENCODING 1101
SWIDTH 540 0
DWIDTH 9 0
BBX 7 9 1 0
BITMAP
38
44
82
02
1E
02
82
44
38
ENDCHAR
STARTCHAR 044E
ENCODING 1102
SWIDTH 780 0
DWIDTH 13 0
BBX 11 9 1 0
BITMAP
8380
8440
8820
8820
F820
8820
8820
8440
8380
ENDCHAR
STARTCHAR 044F
ENCODING 1103
SWIDTH 540 0
DWIDTH 9 0
BBX 7 9 1 0
BITMAP
7E
82
82
82
7E
62
42
82
82
ENDCHAR
STARTCHAR 0451
ENCODING 1105
SWIDTH 540 0
DWIDTH 9 0
BBX 7 11 1 0
BITMAP
28
00
38
44
82
82
FE
80
82
44
38
ENDCHAR
STARTCHAR 0452
ENCODING 1106
SWIDTH 540 0
DWIDTH 9 0
BBX 8 15 0 -3
BITMAP
40
F8
40
5E
61
41
41
41
41
41
41
41
01
01
06
ENDCHAR
STARTCHAR 0453
ENCODING 1107
SWIDTH 360 0
DWIDTH 6 0
BBX 5 12 1 0
BITMAP
10
20
00
F8
80
80
80
80
80
80
80
80
ENDCHAR
STARTCHAR 0454
ENCODING 1108
SWIDTH 540 0
DWIDTH 9 0
BBX 7 9 1 0
BITMAP
38
44
82
80
F0
80
82
44
38
ENDCHAR
STARTCHAR 0455
ENCODING 1109
SWIDTH 480 0
DWIDTH 8 0
BBX 6 9 1 0
BITMAP
78
84
80
80
78
04
04
84
78
ENDCHAR
STARTCHAR 0456
ENCODING 1110
SWIDTH 240 0
DWIDTH 4 0
BBX 1 12 1 0
BITMAP
80
00
00
80
80
80
80
80
80
80
80
80
ENDCHAR
STARTCHAR 0457
ENCODING 1111
SWIDTH 300 0
DWIDTH 5 0
BBX 3 11 1 0
BITMAP
A0
00
40
40
40
40
40
40
40
40
40
ENDCHAR
STARTCHAR 0458
ENCODING 1112
SWIDTH 180 0
DWIDTH 3 0
BBX 3 15 -1 -3
BITMAP
20
00
00
20
20
20
20
20
20
20
20
20
20
20
C0
ENDCHAR
STARTCHAR 0459
ENCODING 1113
SWIDTH 900 0
DWIDTH 15 0
BBX 14 9 0 0
BITMAP
3F00
2100
2100
2100
21F8
2104
2104
2104
C1F8
ENDCHAR
STARTCHAR 045A
ENCODING 1114
SWIDTH 840 0
DWIDTH 14 0
BBX 12 9 1 0
BITMAP
8400
8400
8400
8400
FFE0
8410
8410
8410
87E0
ENDCHAR
STARTCHAR 045B
ENCODING 1115
SWIDTH 540 0
DWIDTH 9 0
BBX 8 12 0 0
BITMAP
40
F8
40
5E
61
41
41
41
41
41
41
41
ENDCHAR
STARTCHAR 045C
ENCODING 1116
SWIDTH 420 0
DWIDTH 7 0
BBX 6 12 1 0
BITMAP
10
20
00
84
88
90
90
E0
90
90
88
84
ENDCHAR
STARTCHAR 045E
ENCODING 1118
SWIDTH 540 0
DWIDTH 9 0
BBX 7 15 1 -3
BITMAP
44
38
00
82
82
82
44
44
2C
28
38
10
10
20
E0
ENDCHAR
STARTCHAR 045F
ENCODING 1119
SWIDTH 540 0
DWIDTH 9 0
BBX 7 12 1 -3
BITMAP
82
82
82
82
82
82
82
82
FE
10
10
10
ENDCHAR
STARTCHAR 0490
ENCODING 1168
SWIDTH 480 0
DWIDTH 8 0
BBX 7 16 1 0
BITMAP
02
02
02
02
FE
80
80
80
80
80
80
80
80
80
80
80
ENDCHAR
STARTCHAR 0491
ENCODING 1169
SWIDTH 420 0
DWIDTH 7 0
BBX 5 12 1 0
BITMAP
08
08
08
F8
80
80
80
80
80
80
80
80
ENDCHAR
STARTCHAR 0492
ENCODING 1170
SWIDTH 540 0
DWIDTH 9 0
BBX 9 12 0 0
BITMAP
7F80
4000
4000
4000
4000
FC00
4000
4000
4000
4000
4000
4000
ENDCHAR
STARTCHAR 0493
ENCODING 1171
SWIDTH 360 0
DWIDTH 6 0
BBX 6 9 0 0
BITMAP
7C
40
40
F0
40
40
40
40
40
ENDCHAR
STARTCHAR 0496
ENCODING 1174
SWIDTH 960 0
DWIDTH 16 0
BBX 15 15 0 -3
BITMAP
C106
2108
1110
1110
0920
07C0
0920
1110
2108
2108
4104
8106
0002
0002
0002
ENDCHAR
STARTCHAR 0497
ENCODING 1175
SWIDTH 660 0
DWIDTH 11 0
BBX 11 12 0 -3
BITMAP
C460
4440
2480
2480
1F00
3580
2480
4440
8460
0020
0020
0020
ENDCHAR
STARTCHAR 049A
ENCODING 1178
SWIDTH 600 0
DWIDTH 10 0
BBX 9 15 1 -3
BITMAP
8380
8200
8400
8400
8800
F000
9800
8400
8400
8200
8100
8180
0080
0080
0080
ENDCHAR
STARTCHAR 049B
ENCODING 1179
SWIDTH 420 0
DWIDTH 7 0
BBX 6 12 1 -3
BITMAP
8C
88
90
90
E0
90
88
88
84
04
04
04
ENDCHAR
STARTCHAR 049C
ENCODING 1180
SWIDTH 600 0
DWIDTH 10 0
BBX 9 12 1 0
BITMAP
8380
8400
A800
A800
B000
E000
A000
B000
A800
A400
8200
8100
ENDCHAR
STARTCHAR 049D
ENCODING 1181
SWIDTH 420 0
DWIDTH 7 0
BBX 6 9 1 0
BITMAP
8C
A8
B0
B0
E0
B0
B0
A8
84
ENDCHAR
STARTCHAR 04A2
ENCODING 1186
SWIDTH 720 0
DWIDTH 12 0
BBX 11 15 1 -3
BITMAP
8040
8040
8040
8040
8040
FFC0
8040
8040
8040
8040
8040
8060
0020
0020
0020
ENDCHAR
STARTCHAR 04A3
ENCODING 1187
SWIDTH 540 0
DWIDTH 9 0
BBX 8 12 1 -3
BITMAP
82
82
82
82
FE
82
82
82
83
01
01
01
ENDCHAR
STARTCHAR 04AE
ENCODING 1198
SWIDTH 540 0
DWIDTH 9 0
BBX 9 12 0 0
BITMAP
8080
4100
4100
2200
1400
1400
0800
0800
0800
0800
0800
0800
ENDCHAR
STARTCHAR 04AF
ENCODING 1199
SWIDTH 540 0
DWIDTH 9 0
BBX 7 12 1 -3
BITMAP
82
C2
44
44
44
28
28
28
10
10
10
10
ENDCHAR
STARTCHAR 04B0
ENCODING 1200
SWIDTH 540 0
DWIDTH 9 0
BBX 9 12 0 0
BITMAP
8080
4100
4100
2200
1400
1400
7F00
0800
0800
0800
0800
0800
ENDCHAR
STARTCHAR 04B1
ENCODING 1201
SWIDTH 540 0
DWIDTH 9 0
BBX 7 12 1 -3
BITMAP
82
44
44
44
28
28
28
18
10
7C
10
10
ENDCHAR
STARTCHAR 04B2
ENCODING 1202
SWIDTH 660 0
DWIDTH 11 0
BBX 11 15 0 -3
BITMAP
4020
2040
1080
0900
0A00
0400
0400
0A00
1100
2080
4040
8060
0020
0020
0020
ENDCHAR
STARTCHAR 04B3
ENCODING 1203
SWIDTH 540 0
DWIDTH 9 0
BBX 8 12 0 -3
BITMAP
81
42
24
18
10
18
24
42
83
01
01
01
ENDCHAR
STARTCHAR 04B8
ENCODING 1208
SWIDTH 660 0
DWIDTH 11 0
BBX 8 12 1 0
BITMAP
81
81
81
89
89
89
4B
3D
09
09
01
01
ENDCHAR
STARTCHAR 04B9
ENCODING 1209
SWIDTH 540 0
DWIDTH 9 0
BBX 6 9 1 0
BITMAP
84
84
94
94
94
7C
14
14
04
ENDCHAR
STARTCHAR 04BA
ENCODING 1210
SWIDTH 660 0
DWIDTH 11 0
BBX 9 12 1 0
BITMAP
8000
8000
8000
8000
BE00
C100
8080
8080
8080
8080
8080
8080
ENDCHAR
STARTCHAR 04BB
ENCODING 1211
SWIDTH 540 0
DWIDTH 9 0
BBX 7 12 1 0
BITMAP
80
80
80
BC
C2
82
82
82
82
82
82
82
ENDCHAR
STARTCHAR 04D8
ENCODING 1240
SWIDTH 780 0
DWIDTH 13 0
BBX 11 12 1 0
BITMAP
1F00
2080
4040
4020
0020
FFE0
8020
8020
8020
4040
2080
1F00
ENDCHAR
STARTCHAR 04D9
ENCODING 1241
SWIDTH 540 0
DWIDTH 9 0
BBX 7 9 1 0
BITMAP
38
44
82
02
FE
82
82
44
38
ENDCHAR
STARTCHAR 04E8
ENCODING 1256
SWIDTH 780 0
DWIDTH 13 0
BBX 11 12 1 0
BITMAP
1F00
2080
4040
8020
8020
8020
FFE0
8020
8020
4040
2080
1F00
ENDCHAR
STARTCHAR 04E9
ENCODING 1257
SWIDTH 540 0
DWIDTH 9 0
BBX 7 9 1 0
BITMAP
38
44
82
82
FE
82
82
44
38
ENDCHAR
STARTCHAR 05B0
ENCODING 1456
SWIDTH 360 0
DWIDTH 6 0
BBX 1 3 2 -3
BITMAP
80
00
80
ENDCHAR
STARTCHAR 05B1
ENCODING 1457
SWIDTH 360 0
DWIDTH 6 0
BBX 5 3 0 -3
BITMAP
A8
00
48
ENDCHAR
STARTCHAR 05B2
ENCODING 1458
SWIDTH 360 0
DWIDTH 6 0
BBX 5 3 0 -3
BITMAP
E8
00
08
ENDCHAR
STARTCHAR 05B3
ENCODING 1459
SWIDTH 360 0
DWIDTH 6 0
BBX 5 3 0 -3
BITMAP
E8
40
08
ENDCHAR
STARTCHAR 05B4
ENCODING 1460
SWIDTH 360 0
DWIDTH 6 0
BBX 1 1 2 -3
BITMAP
80
ENDCHAR
STARTCHAR 05B5
ENCODING 1461
SWIDTH 360 0
DWIDTH 6 0
BBX 3 1 2 -3
BITMAP
A0
ENDCHAR
STARTCHAR 05B6
ENCODING 1462
SWIDTH 360 0
DWIDTH 6 0
BBX 3 3 2 -3
BITMAP
A0
00
40
ENDCHAR
STARTCHAR 05B7
ENCODING 1463
SWIDTH 360 0
DWIDTH 6 0
BBX 3 1 1 -3
BITMAP
E0
ENDCHAR
STARTCHAR 05B8
ENCODING 1464
SWIDTH 360 0
DWIDTH 6 0
BBX 3 2 2 -3
BITMAP
E0
40
ENDCHAR
STARTCHAR 05B9
ENCODING 1465
SWIDTH 360 0
DWIDTH 6 0
BBX 1 1 2 10
BITMAP
80
ENDCHAR
STARTCHAR 05BA
ENCODING 1466
SWIDTH 360 0
DWIDTH 6 0
BBX 1 1 2 10
BITMAP
80
ENDCHAR
STARTCHAR 05BB
ENCODING 1467
SWIDTH 360 0
DWIDTH 6 0
BBX 5 3 0 -3
BITMAP
80
20
08
ENDCHAR
STARTCHAR 05BC
ENCODING 1468
SWIDTH 360 0
DWIDTH 6 0
BBX 1 1 2 5
BITMAP
80
ENDCHAR
STARTCHAR 05BD
ENCODING 1469
SWIDTH 360 0
DWIDTH 6 0
BBX 1 2 2 -3
BITMAP
80
80
ENDCHAR
STARTCHAR 05BE
ENCODING 1470
SWIDTH 420 0
DWIDTH 7 0
BBX 4 1 1 8
BITMAP
F0
ENDCHAR
STARTCHAR 05BF
ENCODING 1471
SWIDTH 360 0
DWIDTH 6 0
BBX 3 1 1 10
BITMAP
E0
ENDCHAR
STARTCHAR 05C0
ENCODING 1472
SWIDTH 180 0
DWIDTH 3 0
BBX 1 11 1 0
BITMAP
80
80
80
80
80
80
80
80
80
80
80
ENDCHAR
STARTCHAR 05C1
ENCODING 1473
SWIDTH 360 0
DWIDTH 6 0
BBX 1 1 6 10
BITMAP
80
ENDCHAR
STARTCHAR 05C2
ENCODING 1474
SWIDTH 360 0
DWIDTH 6 0
BBX 1 1 -2 10
BITMAP
80
ENDCHAR
STARTCHAR 05C3
ENCODING 1475
SWIDTH 300 0
DWIDTH 5 0
BBX 1 9 2 0
BITMAP
80
00
00
00
00
00
00
00
80
ENDCHAR
STARTCHAR 05D0
ENCODING 1488
SWIDTH 600 0
DWIDTH 10 0
BBX 8 9 1 0
BITMAP
81
41
21
12
7C
88
84
82
81
ENDCHAR
STARTCHAR 05D1
ENCODING 1489
SWIDTH 540 0
DWIDTH 9 0
BBX 7 9 1 0
BITMAP
F0
08
04
04
04
04
04
04
FE
ENDCHAR
STARTCHAR 05D2
ENCODING 1490
SWIDTH 420 0
DWIDTH 7 0
BBX 5 9 1 0
BITMAP
70
08
08
08
08
38
48
88
88
ENDCHAR
STARTCHAR 05D3
ENCODING 1491
SWIDTH 540 0
DWIDTH 9 0
BBX 7 9 1 0
BITMAP
FE
08
08
08
08
08
08
08
08
ENDCHAR
STARTCHAR 05D4
ENCODING 1492
SWIDTH 600 0
DWIDTH 10 0
BBX 8 9 1 0
BITMAP
FC
02
01
01
81
81
81
81
81
ENDCHAR
STARTCHAR 05D5
ENCODING 1493
SWIDTH 180 0
DWIDTH 3 0
BBX 1 9 1 0
BITMAP
80
80
80
80
80
80
80
80
80
ENDCHAR
STARTCHAR 05D6
ENCODING 1494
SWIDTH 420 0
DWIDTH 7 0
BBX 5 9 1 0
BITMAP
F8
20
40
40
40
40
40
40
40
ENDCHAR
STARTCHAR 05D7
ENCODING 1495
SWIDTH 600 0
DWIDTH 10 0
BBX 8 9 1 0
BITMAP
FC
82
81
81
81
81
81
81
81
ENDCHAR
STARTCHAR 05D8
ENCODING 1496
SWIDTH 600 0
DWIDTH 10 0
BBX 8 9 1 0
BITMAP
8E
81
81
81
81
81
81
42
3C
ENDCHAR
STARTCHAR 05D9
ENCODING 1497
SWIDTH 180 0
DWIDTH 3 0
BBX 1 5 1 4
BITMAP
80
80
80
80
80
ENDCHAR
STARTCHAR 05DA
ENCODING 1498
SWIDTH 540 0
DWIDTH 9 0
BBX 8 12 0 -3
BITMAP
FC
02
01
01
01
01
01
01
01
01
01
01
ENDCHAR
STARTCHAR 05DB
ENCODING 1499
SWIDTH 480 0
DWIDTH 8 0
BBX 6 9 1 0
BITMAP
F0
08
04
04
04
04
04
08
F0
ENDCHAR
STARTCHAR 05DC
ENCODING 1500
SWIDTH 480 0
DWIDTH 8 0
BBX 6 12 1 0
BITMAP
80
80
80
FC
04
04
04
0C
10
10
10
10
ENDCHAR
STARTCHAR 05DD
ENCODING 1501
SWIDTH 600 0
DWIDTH 10 0
BBX 8 9 1 0
BITMAP
FC
82
81
81
81
81
81
81
FF
ENDCHAR
STARTCHAR 05DE
ENCODING 1502
SWIDTH 600 0
DWIDTH 10 0
BBX 8 9 1 0
BITMAP
9C
A2
61
41
41
41
81
81
9F
ENDCHAR
STARTCHAR 05DF
ENCODING 1503
SWIDTH 180 0
DWIDTH 3 0
BBX 1 12 1 -3
BITMAP
80
80
80
80
80
80
80
80
80
80
80
80
ENDCHAR
STARTCHAR 05E0
ENCODING 1504
SWIDTH 360 0
DWIDTH 6 0
BBX 4 9 1 0
BITMAP
E0
10
10
10
10
10
10
10
F0
ENDCHAR
STARTCHAR 05E1
ENCODING 1505
SWIDTH 600 0
DWIDTH 10 0
BBX 8 9 1 0
BITMAP
3C
42
81
81
81
81
81
42
3C
ENDCHAR
STARTCHAR 05E2
ENCODING 1506
SWIDTH 540 0
DWIDTH 9 0
BBX 8 10 0 -1
BITMAP
41
41
21
21
21
11
12
16
18
E0
ENDCHAR
STARTCHAR 05E3
ENCODING 1507
SWIDTH 600 0
DWIDTH 10 0
BBX 8 12 1 -3
BITMAP
FC
82
81
81
81
71
01
01
01
01
01
01
ENDCHAR
STARTCHAR 05E4
ENCODING 1508
SWIDTH 540 0
DWIDTH 9 0
BBX 7 9 1 0
BITMAP
F8
84
82
82
62
02
02
84
78
ENDCHAR
STARTCHAR 05E5
ENCODING 1509
SWIDTH 480 0
DWIDTH 8 0
BBX 7 12 0 -3
BITMAP
82
42
42
24
24
18
10
10
10
10
10
10
ENDCHAR
STARTCHAR 05E6
ENCODING 1510
SWIDTH 480 0
DWIDTH 8 0
BBX 7 9 0 0
BITMAP
82
42
22
24
18
08
08
04
FE
ENDCHAR
STARTCHAR 05E7
ENCODING 1511
SWIDTH 540 0
DWIDTH 9 0
BBX 7 12 1 -3
BITMAP
FE
02
02
02
86
88
88
88
88
80
80
80
ENDCHAR
STARTCHAR 05E8
ENCODING 1512
SWIDTH 540 0
DWIDTH 9 0
BBX 7 9 1 0
BITMAP
F8
04
02
02
02
02
02
02
02
ENDCHAR
STARTCHAR 05E9
ENCODING 1513
SWIDTH 720 0
DWIDTH 12 0
BBX 10 9 1 0
BITMAP
8840
8840
8840
8840
F040
4080
4080
2100
1E00
ENDCHAR
STARTCHAR 05EA
ENCODING 1514
SWIDTH 660 0
DWIDTH 11 0
BBX 9 9 1 0
BITMAP
FE00
2100
2080
2080
2080
2080
2080
2080
E080
ENDCHAR
STARTCHAR 05F0
ENCODING 1520
SWIDTH 420 0
DWIDTH 7 0
BBX 5 9 1 0
BITMAP
88
88
88
88
88
88
88
88
88
ENDCHAR
STARTCHAR 05F1
ENCODING 1521
SWIDTH 420 0
DWIDTH 7 0
BBX 5 9 1 0
BITMAP
88
88
88
88
88
08
08
08
08
ENDCHAR
STARTCHAR 05F2
ENCODING 1522
SWIDTH 420 0
DWIDTH 7 0
BBX 5 5 1 4
BITMAP
88
88
88
88
88
ENDCHAR
STARTCHAR 05F3
ENCODING 1523
SWIDTH 240 0
DWIDTH 4 0
BBX 2 3 1 6
BITMAP
40
80
80
ENDCHAR
STARTCHAR 05F4
ENCODING 1524
SWIDTH 420 0
DWIDTH 7 0
BBX 5 3 1 6
BITMAP
48
90
90
ENDCHAR
STARTCHAR 060C
ENCODING 1548
SWIDTH 300 0
DWIDTH 5 0
BBX 2 3 1 2
BITMAP
40
80
C0
ENDCHAR
STARTCHAR 061B
ENCODING 1563
SWIDTH 300 0
DWIDTH 5 0
BBX 2 5 1 2
BITMAP
40
80
C0
00
40
ENDCHAR
STARTCHAR 061F
ENCODING 1567
SWIDTH 360 0
DWIDTH 6 0
BBX 3 10 1 2
BITMAP
60
A0
A0
80
80
40
40
40
00
40
ENDCHAR
STARTCHAR 0621
ENCODING 1569
SWIDTH 420 0
DWIDTH 7 0
BBX 5 5 1 1
BITMAP
70
80
88
70
40
ENDCHAR
STARTCHAR 0622
ENCODING 1570
SWIDTH 240 0
DWIDTH 4 0
BBX 3 12 0 2
BITMAP
E0
00
20
20
20
20
20
20
20
20
20
20
ENDCHAR
STARTCHAR 0623
ENCODING 1571
SWIDTH 240 0
DWIDTH 4 0
BBX 3 13 1 2
BITMAP
60
80
60
00
40
40
40
40
40
40
40
40
40
ENDCHAR
STARTCHAR 0624
ENCODING 1572
SWIDTH 420 0
DWIDTH 7 0
BBX 7 11 0 -2
BITMAP
18
20
18
00
06
0A
0E
02
02
84
78
ENDCHAR
STARTCHAR 0625
ENCODING 1573
SWIDTH 240 0
DWIDTH 4 0
BBX 3 14 1 -2
BITMAP
40
40
40
40
40
40
40
40
40
40
00
60
80
60
ENDCHAR
STARTCHAR 0626
ENCODING 1574
SWIDTH 660 0
DWIDTH 11 0
BBX 10 11 0 -1
BITMAP
6000
8000
61C0
0240
4200
8400
8400
87C0
8040
8180
7E00
ENDCHAR
STARTCHAR 0627
ENCODING 1575
SWIDTH 240 0
DWIDTH 4 0
BBX 1 10 2 2
BITMAP
80
80
80
80
80
80
80
80
80
80
ENDCHAR
STARTCHAR 0628
ENCODING 1576
SWIDTH 720 0
DWIDTH 12 0
BBX 12 8 0 0
BITMAP
4020
8010
8010
8010
8010
7FF0
0000
0400
ENDCHAR
STARTCHAR 0629
ENCODING 1577
SWIDTH 300 0
DWIDTH 5 0
BBX 4 7 1 2
BITMAP
20
40
00
60
90
90
E0
ENDCHAR
STARTCHAR 062A
ENCODING 1578
SWIDTH 720 0
DWIDTH 12 0
BBX 12 8 0 2
BITMAP
0200
0400
4020
8010
8010
8010
8010
7FF0
ENDCHAR
STARTCHAR 062B
ENCODING 1579
SWIDTH 720 0
DWIDTH 12 0
BBX 12 8 0 2
BITMAP
0600
0400
4020
8010
8010
8010
8010
7FF0
ENDCHAR
STARTCHAR 062C
ENCODING 1580
SWIDTH 600 0
DWIDTH 10 0
BBX 9 10 0 -3
BITMAP
7F80
0C00
3000
4000
8200
8000
8000
8000
6000
1F00
ENDCHAR
STARTCHAR 062D
ENCODING 1581
SWIDTH 600 0
DWIDTH 10 0
BBX 9 10 0 -3
BITMAP
7F80
0C00
3000
4000
8000
8000
8000
8000
6000
1F00
ENDCHAR
STARTCHAR 062E
ENCODING 1582
SWIDTH 600 0
DWIDTH 10 0
BBX 9 13 0 -3
BITMAP
0400
0000
0000
7F80
0C00
3000
4000
8000
8000
8000
8000
6000
1F00
ENDCHAR
STARTCHAR 062F
ENCODING 1583
SWIDTH 360 0
DWIDTH 6 0
BBX 5 6 1 2
BITMAP
20
10
08
08
88
F8
ENDCHAR
STARTCHAR 0630
ENCODING 1584
SWIDTH 360 0
DWIDTH 6 0
BBX 5 9 1 2
BITMAP
40
00
00
20
10
08
08
88
F8
ENDCHAR
STARTCHAR 0631
ENCODING 1585
SWIDTH 480 0
DWIDTH 8 0
BBX 7 9 1 -2
BITMAP
04
02
02
02
02
02
04
88
70
ENDCHAR
STARTCHAR 0632
ENCODING 1586
SWIDTH 480 0
DWIDTH 8 0
BBX 7 12 1 -2
BITMAP
04
00
00
04
02
02
02
02
02
04
88
70
ENDCHAR
STARTCHAR 0633
ENCODING 1587
SWIDTH 840 0
DWIDTH 14 0
BBX 13 8 1 -1
BITMAP
0250
4148
8148
8148
81F8
8100
8200
7C00
ENDCHAR
STARTCHAR 0634
ENCODING 1588
SWIDTH 840 0
DWIDTH 14 0
BBX 13 11 1 -1
BITMAP
0060
0040
0000
0250
4148
8148
8148
81F8
8100
8200
7C00
ENDCHAR
STARTCHAR 0635
ENCODING 1589
SWIDTH 1140 0
DWIDTH 19 0
BBX 18 8 1 -1
BITMAP
010380
408440
808840
809040
80FFC0
808000
810000
7E0000
ENDCHAR
STARTCHAR 0636
ENCODING 1590
SWIDTH 1140 0
DWIDTH 19 0
BBX 18 10 1 -1
BITMAP
000800
000000
010380
408440
808840
809040
80FFC0
808000
810000
7E0000
ENDCHAR
STARTCHAR 0637
ENCODING 1591
SWIDTH 600 0
DWIDTH 10 0
BBX 11 11 -1 2
BITMAP
2000
3800
1000
1000
0800
0800
0800
0BC0
0C20
1020
FFE0
ENDCHAR
STARTCHAR 0638
ENCODING 1592
SWIDTH 600 0
DWIDTH 10 0
BBX 11 11 -1 2
BITMAP
2000
3800
1000
1000
0880
0800
0800
0BC0
0C20
1020
FFE0
ENDCHAR
STARTCHAR 0639
ENCODING 1593
SWIDTH 540 0
DWIDTH 9 0
BBX 7 12 0 -3
BITMAP
70
80
82
6C
30
40
80
80
80
80
40
3E
ENDCHAR
STARTCHAR 063A
ENCODING 1594
SWIDTH 540 0
DWIDTH 9 0
BBX 7 15 0 -3
BITMAP
10
00
00
70
80
82
6C
30
40
80
80
80
80
40
3E
ENDCHAR
STARTCHAR 0640
ENCODING 1600
SWIDTH 240 0
DWIDTH 4 0
BBX 5 1 -1 2
BITMAP
F8
ENDCHAR
STARTCHAR 0641
ENCODING 1601
SWIDTH 780 0
DWIDTH 13 0
BBX 13 9 0 2
BITMAP
0020
0000
0000
4010
8028
8028
8028
4018
3FF8
ENDCHAR
STARTCHAR 0642
ENCODING 1602
SWIDTH 600 0
DWIDTH 10 0
BBX 9 11 1 -1
BITMAP
0200
0400
0000
0300
4480
8780
8080
8080
8080
8100
7E00
ENDCHAR
STARTCHAR 0643
ENCODING 1603
SWIDTH 600 0
DWIDTH 10 0
BBX 10 11 0 2
BITMAP
0080
00C0
0880
1080
1C80
0480
8440
9840
8040
8040
7FC0
ENDCHAR
STARTCHAR 0644
ENCODING 1604
SWIDTH 540 0
DWIDTH 9 0
BBX 8 13 1 0
BITMAP
02
03
02
02
02
02
21
41
81
81
81
82
7C
ENDCHAR
STARTCHAR 0645
ENCODING 1605
SWIDTH 360 0
DWIDTH 6 0
BBX 6 8 0 -3
BITMAP
78
04
7C
80
80
80
40
40
ENDCHAR
STARTCHAR 0646
ENCODING 1606
SWIDTH 540 0
DWIDTH 9 0
BBX 8 10 1 -1
BITMAP
08
00
02
41
81
81
81
81
82
7C
ENDCHAR
STARTCHAR 0647
ENCODING 1607
SWIDTH 300 0
DWIDTH 5 0
BBX 5 4 0 2
BITMAP
60
98
88
F0
ENDCHAR
STARTCHAR 0648
ENCODING 1608
SWIDTH 420 0
DWIDTH 7 0
BBX 7 7 0 -2
BITMAP
06
0A
0E
02
02
84
78
ENDCHAR
STARTCHAR 0649
ENCODING 1609
SWIDTH 660 0
DWIDTH 11 0
BBX 10 9 0 -1
BITMAP
01C0
0240
4200
8400
8400
87C0
8040
8180
7E00
ENDCHAR
STARTCHAR 064A
ENCODING 1610
SWIDTH 660 0
DWIDTH 11 0
BBX 10 11 0 -3
BITMAP
01C0
0240
4200
8400
8400
87C0
8040
8180
7E00
0400
0800
ENDCHAR
STARTCHAR 064B
ENCODING 1611
SWIDTH 180 0
DWIDTH 3 0
BBX 3 4 1 10
BITMAP
20
C0
20
C0
ENDCHAR
STARTCHAR 064C
ENCODING 1612
SWIDTH 240 0
DWIDTH 4 0
BBX 6 5 -1 10
BITMAP
0C
14
DC
54
60
ENDCHAR
STARTCHAR 064D
ENCODING 1613
SWIDTH 180 0
DWIDTH 3 0
BBX 3 4 1 -3
BITMAP
20
C0
20
C0
ENDCHAR
STARTCHAR 064E
ENCODING 1614
SWIDTH 180 0
DWIDTH 3 0
BBX 3 2 1 10
BITMAP
20
C0
ENDCHAR
STARTCHAR 064F
ENCODING 1615
SWIDTH 240 0
DWIDTH 4 0
BBX 3 4 1 10
BITMAP
60
A0
E0
80
ENDCHAR
STARTCHAR 0650
ENCODING 1616
SWIDTH 180 0
DWIDTH 3 0
BBX 3 2 1 0
BITMAP
20
C0
ENDCHAR
STARTCHAR 0651
ENCODING 1617
SWIDTH 240 0
DWIDTH 4 0
BBX 5 3 0 10
BITMAP
28
B8
C0
ENDCHAR
STARTCHAR 0652
ENCODING 1618
SWIDTH 180 0
DWIDTH 3 0
BBX 3 3 0 10
BITMAP
60
A0
E0
ENDCHAR
STARTCHAR 0653
ENCODING 1619
SWIDTH 240 0
DWIDTH 4 0
BBX 3 1 0 12
BITMAP
E0
ENDCHAR
STARTCHAR 0654
ENCODING 1620
SWIDTH 240 0
DWIDTH 4 0
BBX 3 3 0 12
BITMAP
60
80
60
ENDCHAR
STARTCHAR 0655
ENCODING 1621
SWIDTH 240 0
DWIDTH 4 0
BBX 3 3 0 -2
BITMAP
60
80
60
ENDCHAR
STARTCHAR 0660
ENCODING 1632
SWIDTH 540 0
DWIDTH 9 0
BBX 3 4 3 4
BITMAP
40
E0
E0
40
ENDCHAR
STARTCHAR 0661
ENCODING 1633
SWIDTH 540 0
DWIDTH 9 0
BBX 2 10 4 2
BITMAP
80
80
80
80
40
40
40
40
40
40
ENDCHAR
STARTCHAR 0662
ENCODING 1634
SWIDTH 540 0
DWIDTH 9 0
BBX 4 10 3 2
BITMAP
90
F0
80
40
40
20
20
20
20
20
ENDCHAR
STARTCHAR 0663
ENCODING 1635
SWIDTH 540 0
DWIDTH 9 0
BBX 7 10 2 2
BITMAP
92
FE
80
40
20
20
20
20
20
20
ENDCHAR
STARTCHAR 0664
ENCODING 1636
SWIDTH 540 0
DWIDTH 9 0
BBX 4 9 3 2
BITMAP
40
80
80
80
60
40
80
80
70
ENDCHAR
STARTCHAR 0665
ENCODING 1637
SWIDTH 540 0
DWIDTH 9 0
BBX 6 5 1 4
BITMAP
38
44
84
84
F8
ENDCHAR
STARTCHAR 0666
ENCODING 1638
SWIDTH 540 0
DWIDTH 9 0
BBX 5 10 2 2
BITMAP
80
F0
10
10
10
10
10
10
10
08
ENDCHAR
STARTCHAR 0667
ENCODING 1639
SWIDTH 540 0
DWIDTH 9 0
BBX 6 10 1 2
BITMAP
80
84
44
48
28
28
28
10
10
10
ENDCHAR
STARTCHAR 0668
ENCODING 1640
SWIDTH 540 0
DWIDTH 9 0
BBX 7 10 1 2
BITMAP
10
10
10
28
28
48
48
44
84
82
ENDCHAR
STARTCHAR 0669
ENCODING 1641
SWIDTH 540 0
DWIDTH 9 0
BBX 6 10 1 2
BITMAP
70
88
88
F8
08
08
08
08
08
04
ENDCHAR
STARTCHAR 066A
ENCODING 1642
SWIDTH 540 0
DWIDTH 9 0
BBX 7 11 1 2
BITMAP
82
04
04
08
08
10
20
20
40
40
82
ENDCHAR
STARTCHAR 066B
ENCODING 1643
SWIDTH 300 0
DWIDTH 5 0
BBX 2 3 2 0
BITMAP
C0
40
80
ENDCHAR
STARTCHAR 066C
ENCODING 1644
SWIDTH 300 0
DWIDTH 5 0
BBX 2 3 1 2
BITMAP
40
80
C0
ENDCHAR
STARTCHAR 066D
ENCODING 1645
SWIDTH 540 0
DWIDTH 9 0
BBX 7 7 1 5
BITMAP
10
54
38
EE
38
54
10
ENDCHAR
STARTCHAR 066E
ENCODING 1646
SWIDTH 720 0
DWIDTH 12 0
BBX 12 6 0 2
BITMAP
4020
8010
8010
8010
8010
7FF0
ENDCHAR
STARTCHAR 066F
ENCODING 1647
SWIDTH 600 0
DWIDTH 10 0
BBX 9 8 1 -1
BITMAP
0300
4480
8780
8080
8080
8080
8180
7E00
ENDCHAR
STARTCHAR 0670
ENCODING 1648
SWIDTH 0 0
DWIDTH 0 0
BBX 1 5 -1 9
BITMAP
80
80
80
80
80
ENDCHAR
STARTCHAR 0671
ENCODING 1649
SWIDTH 240 0
DWIDTH 4 0
BBX 4 13 0 2
BITMAP
30
F0
80
20
20
20
20
20
20
20
20
20
20
ENDCHAR
STARTCHAR 0672
ENCODING 1650
SWIDTH 240 0
DWIDTH 4 0
BBX 4 13 0 2
BITMAP
30
40
F0
00
20
20
20
20
20
20
20
20
20
ENDCHAR
STARTCHAR 0673
ENCODING 1651
SWIDTH 240 0
DWIDTH 4 0
BBX 4 14 0 -2
BITMAP
20
20
20
20
20
20
20
20
20
20
00
30
40
F0
ENDCHAR
STARTCHAR 0674
ENCODING 1652
SWIDTH 240 0
DWIDTH 4 0
BBX 3 3 0 12
BITMAP
60
80
60
ENDCHAR
STARTCHAR 0675
ENCODING 1653
SWIDTH 240 0
DWIDTH 4 0
BBX 4 11 1 2
BITMAP
30
C0
B0
80
80
80
80
80
80
80
80
ENDCHAR
STARTCHAR 0676
ENCODING 1654
SWIDTH 420 0
DWIDTH 7 0
BBX 9 11 0 -2
BITMAP
0180
0200
0180
0000
0600
0A00
0E00
0200
0200
8400
7800
ENDCHAR
STARTCHAR 0677
ENCODING 1655
SWIDTH 420 0
DWIDTH 7 0
BBX 9 12 0 -2
BITMAP
1800
2980
3A00
2180
0000
0600
0A00
0E00
0200
0200
8400
7800
ENDCHAR
STARTCHAR 0678
ENCODING 1656
SWIDTH 660 0
DWIDTH 11 0
BBX 11 14 0 -1
BITMAP
0060
0080
0060
0000
0000
01C0
0240
4200
8400
8400
87C0
8040
8180
7E00
ENDCHAR
STARTCHAR 0679
ENCODING 1657
SWIDTH 720 0
DWIDTH 12 0
BBX 12 12 0 2
BITMAP
0600
0400
0700
0500
0F00
0000
4020
8010
8010
8010
8010
7FF0
ENDCHAR
STARTCHAR 067A
ENCODING 1658
SWIDTH 720 0
DWIDTH 12 0
BBX 12 10 0 2
BITMAP
0400
0200
0000
0000
4020
8010
8010
8010
8010
7FF0
ENDCHAR
STARTCHAR 067B
ENCODING 1659
SWIDTH 720 0
DWIDTH 12 0
BBX 12 9 0 -1
BITMAP
4020
8010
8010
8010
8010
7FF0
0000
0200
0100
ENDCHAR
STARTCHAR 067C
ENCODING 1660
SWIDTH 720 0
DWIDTH 12 0
BBX 12 10 0 0
BITMAP
0200
0400
4020
8010
8010
8010
8010
7FF0
0500
0700
ENDCHAR
STARTCHAR 067D
ENCODING 1661
SWIDTH 720 0
DWIDTH 12 0
BBX 12 10 0 2
BITMAP
0200
0600
0000
0000
4020
8010
8010
8010
8010
7FF0
ENDCHAR
STARTCHAR 067E
ENCODING 1662
SWIDTH 720 0
DWIDTH 12 0
BBX 12 9 0 -1
BITMAP
4020
8010
8010
8010
8010
7FF0
0000
0200
0600
ENDCHAR
STARTCHAR 067F
ENCODING 1663
SWIDTH 720 0
DWIDTH 12 0
BBX 12 10 0 2
BITMAP
0200
0600
0400
0000
4020
8010
8010
8010
8010
7FF0
ENDCHAR
STARTCHAR 0680
ENCODING 1664
SWIDTH 720 0
DWIDTH 12 0
BBX 12 10 0 -2
BITMAP
4020
8010
8010
8010
8010
7FF0
0000
0200
0600
0400
ENDCHAR
STARTCHAR 0681
ENCODING 1665
SWIDTH 600 0
DWIDTH 10 0
BBX 9 14 0 -3
BITMAP
0C00
1000
0C00
0000
7F80
0C00
3000
4000
8000
8000
8000
8000
6000
1F00
ENDCHAR
STARTCHAR 0682
ENCODING 1666
SWIDTH 600 0
DWIDTH 10 0
BBX 9 14 0 -3
BITMAP
1000
0800
0000
0000
7F80
0C00
3000
4000
8000
8000
8000
8000
6000
1F00
ENDCHAR
STARTCHAR 0683
ENCODING 1667
SWIDTH 600 0
DWIDTH 10 0
BBX 9 10 0 -3
BITMAP
7F80
0C00
3000
4000
8000
8200
8400
8000
6000
1F00
ENDCHAR
STARTCHAR 0684
ENCODING 1668
SWIDTH 600 0
DWIDTH 10 0
BBX 9 10 0 -3
BITMAP
7F80
0C00
3000
4000
8000
8800
8400
8000
6000
1F00
ENDCHAR
STARTCHAR 0685
ENCODING 1669
SWIDTH 600 0
DWIDTH 10 0
BBX 9 14 0 -3
BITMAP
0800
0C00
0000
0000
7F80
0C00
3000
4000
8000
8000
8000
8000
6000
1F00
ENDCHAR
STARTCHAR 0686
ENCODING 1670
SWIDTH 600 0
DWIDTH 10 0
BBX 9 10 0 -3
BITMAP
7F80
0C00
3000
4000
8200
8600
8000
8000
6000
1F00
ENDCHAR
STARTCHAR 0687
ENCODING 1671
SWIDTH 600 0
DWIDTH 10 0
BBX 9 10 0 -3
BITMAP
7F80
0C00
3000
4000
8400
8C00
8800
8000
6000
1F00
ENDCHAR
STARTCHAR 0688
ENCODING 1672
SWIDTH 360 0
DWIDTH 6 0
BBX 5 12 1 2
BITMAP
30
20
38
28
78
00
20
10
08
08
88
F8
ENDCHAR
STARTCHAR 0689
ENCODING 1673
SWIDTH 360 0
DWIDTH 6 0
BBX 5 8 1 0
BITMAP
20
10
08
08
88
F8
50
70
ENDCHAR
STARTCHAR 068A
ENCODING 1674
SWIDTH 360 0
DWIDTH 6 0
BBX 5 8 1 0
BITMAP
20
10
08
08
88
F8
00
20
ENDCHAR
STARTCHAR 068B
ENCODING 1675
SWIDTH 360 0
DWIDTH 6 0
BBX 5 14 1 0
BITMAP
30
20
38
28
78
00
20
10
08
08
88
F8
00
20
ENDCHAR
STARTCHAR 068C
ENCODING 1676
SWIDTH 360 0
DWIDTH 6 0
BBX 5 10 1 2
BITMAP
20
40
00
00
20
10
08
08
88
F8
ENDCHAR
STARTCHAR 068D
ENCODING 1677
SWIDTH 360 0
DWIDTH 6 0
BBX 5 9 1 -1
BITMAP
20
10
08
08
88
F8
00
10
20
ENDCHAR
STARTCHAR 068E
ENCODING 1678
SWIDTH 360 0
DWIDTH 6 0
BBX 5 10 1 2
BITMAP
40
60
00
00
20
10
08
08
88
F8
ENDCHAR
STARTCHAR 068F
ENCODING 1679
SWIDTH 360 0
DWIDTH 6 0
BBX 5 10 1 2
BITMAP
20
60
00
00
20
10
08
08
88
F8
ENDCHAR
STARTCHAR 0690
ENCODING 1680
SWIDTH 360 0
DWIDTH 6 0
BBX 5 11 1 2
BITMAP
20
60
40
00
00
20
10
08
08
88
F8
ENDCHAR
STARTCHAR 0691
ENCODING 1681
SWIDTH 480 0
DWIDTH 8 0
BBX 7 15 1 -2
BITMAP
0C
08
0E
0A
1E
00
04
02
02
02
02
02
04
88
70
ENDCHAR
STARTCHAR 0692
ENCODING 1682
SWIDTH 480 0
DWIDTH 8 0
BBX 7 12 1 -2
BITMAP
14
08
00
04
02
02
02
02
02
04
88
70
ENDCHAR
STARTCHAR 0693
ENCODING 1683
SWIDTH 480 0
DWIDTH 8 0
BBX 7 10 1 -3
BITMAP
04
02
02
02
02
02
04
8E
7A
0E
ENDCHAR
STARTCHAR 0694
ENCODING 1684
SWIDTH 480 0
DWIDTH 8 0
BBX 7 9 1 -2
BITMAP
04
02
02
02
02
02
04
88
72
ENDCHAR
STARTCHAR 0695
ENCODING 1685
SWIDTH 480 0
DWIDTH 8 0
BBX 7 11 1 -4
BITMAP
04
02
02
02
02
02
04
88
70
0A
04
ENDCHAR
STARTCHAR 0696
ENCODING 1686
SWIDTH 480 0
DWIDTH 8 0
BBX 7 9 1 -2
BITMAP
04
02
02
02
02
22
04
88
72
ENDCHAR
STARTCHAR 0697
ENCODING 1687
SWIDTH 480 0
DWIDTH 8 0
BBX 7 12 1 -2
BITMAP
04
08
00
04
02
02
02
02
02
04
88
70
ENDCHAR
STARTCHAR 0698
ENCODING 1688
SWIDTH 480 0
DWIDTH 8 0
BBX 7 12 1 -2
BITMAP
0C
08
00
04
02
02
02
02
02
04
88
70
ENDCHAR
STARTCHAR 0699
ENCODING 1689
SWIDTH 480 0
DWIDTH 8 0
BBX 7 13 1 -2
BITMAP
04
0C
08
00
04
02
02
02
02
02
04
88
70
ENDCHAR
STARTCHAR 069A
ENCODING 1690
SWIDTH 840 0
DWIDTH 14 0
BBX 13 10 1 -1
BITMAP
0040
0000
0250
4148
8148
8148
81F8
8100
8220
7C00
ENDCHAR
STARTCHAR 069B
ENCODING 1691
SWIDTH 840 0
DWIDTH 14 0
BBX 13 8 1 -1
BITMAP
0250
4148
8148
8148
81F8
8100
8210
7C30
ENDCHAR
STARTCHAR 069C
ENCODING 1692
SWIDTH 840 0
DWIDTH 14 0
BBX 13 11 1 -1
BITMAP
0040
0060
0000
0250
4148
8148
8148
81F8
8100
8210
7C30
ENDCHAR
STARTCHAR 069D
ENCODING 1693
SWIDTH 1140 0
DWIDTH 19 0
BBX 18 8 1 -1
BITMAP
010380
408440
808840
809040
80FFC0
808000
810400
7E0800
ENDCHAR
STARTCHAR 069E
ENCODING 1694
SWIDTH 1140 0
DWIDTH 19 0
BBX 18 11 1 -1
BITMAP
000800
000C00
000000
010380
408440
808840
809040
80FFC0
808000
810000
7E0000
ENDCHAR
STARTCHAR 069F
ENCODING 1695
SWIDTH 600 0
DWIDTH 10 0
BBX 11 11 -1 2
BITMAP
2000
3800
1000
1200
0B00
0800
0800
0BC0
0C20
1020
FFE0
ENDCHAR
STARTCHAR 06A0
ENCODING 1696
SWIDTH 540 0
DWIDTH 9 0
BBX 7 16 0 -3
BITMAP
20
30
00
00
70
80
82
6C
30
40
80
80
80
80
40
3E
ENDCHAR
STARTCHAR 06A1
ENCODING 1697
SWIDTH 780 0
DWIDTH 13 0
BBX 13 6 0 2
BITMAP
4010
8028
8028
8028
4018
3FF8
ENDCHAR
STARTCHAR 06A2
ENCODING 1698
SWIDTH 780 0
DWIDTH 13 0
BBX 13 8 0 0
BITMAP
4010
8028
8028
8028
4018
3FF8
0000
0010
ENDCHAR
STARTCHAR 06A3
ENCODING 1699
SWIDTH 780 0
DWIDTH 13 0
BBX 13 11 0 0
BITMAP
0010
0000
0000
4010
8028
8028
8028
4018
3FF8
0000
0200
ENDCHAR
STARTCHAR 06A4
ENCODING 1700
SWIDTH 780 0
DWIDTH 13 0
BBX 13 8 0 2
BITMAP
0040
0060
4010
8028
8028
8028
4018
3FF8
ENDCHAR
STARTCHAR 06A5
ENCODING 1701
SWIDTH 780 0
DWIDTH 13 0
BBX 13 9 0 -1
BITMAP
4010
8028
8028
8028
4018
3FF8
0000
0008
0018
ENDCHAR
STARTCHAR 06A6
ENCODING 1702
SWIDTH 780 0
DWIDTH 13 0
BBX 13 10 0 2
BITMAP
0008
0018
0010
0000
4010
8028
8028
8028
4018
3FF8
ENDCHAR
STARTCHAR 06A7
ENCODING 1703
SWIDTH 600 0
DWIDTH 10 0
BBX 9 11 1 -1
BITMAP
0200
0000
0000
0300
4480
8780
8080
8080
8080
8180
7E00
ENDCHAR
STARTCHAR 06A8
ENCODING 1704
SWIDTH 600 0
DWIDTH 10 0
BBX 9 12 1 -1
BITMAP
0200
0300
0000
0000
0300
4480
8780
8080
8080
8080
8180
7E00
ENDCHAR
STARTCHAR 06A9
ENCODING 1705
SWIDTH 840 0
DWIDTH 14 0
BBX 14 10 0 2
BITMAP
0008
0030
0040
0080
0080
4060
8010
8008
8004
7FFC
ENDCHAR
STARTCHAR 06AA
ENCODING 1706
SWIDTH 840 0
DWIDTH 14 0
BBX 14 9 0 2
BITMAP
0100
0600
0800
1000
0E00
01E0
8018
8004
7FFC
ENDCHAR
STARTCHAR 06AB
ENCODING 1707
SWIDTH 840 0
DWIDTH 14 0
BBX 14 10 0 2
BITMAP
0008
0038
0068
00B8
0080
4060
8010
8008
8004
7FFC
ENDCHAR
STARTCHAR 06AC
ENCODING 1708
SWIDTH 600 0
DWIDTH 10 0
BBX 10 11 0 2
BITMAP
0880
00C0
0880
1080
1C80
0480
8440
9840
8040
8040
7FC0
ENDCHAR
STARTCHAR 06AD
ENCODING 1709
SWIDTH 600 0
DWIDTH 10 0
BBX 10 12 0 2
BITMAP
1000
1880
00C0
0880
1080
1C80
0480
8440
9840
8040
8040
7FC0
ENDCHAR
STARTCHAR 06AE
ENCODING 1710
SWIDTH 600 0
DWIDTH 10 0
BBX 10 14 0 -1
BITMAP
0080
00C0
0880
1080
1C80
0480
8440
9840
8040
8040
7FC0
0000
0400
0C00
ENDCHAR
STARTCHAR 06AF
ENCODING 1711
SWIDTH 840 0
DWIDTH 14 0
BBX 14 12 0 2
BITMAP
0008
0030
00C8
0030
0040
0080
0080
4060
8010
8008
8004
7FFC
ENDCHAR
STARTCHAR 06B0
ENCODING 1712
SWIDTH 840 0
DWIDTH 14 0
BBX 14 12 0 2
BITMAP
0008
0030
00C8
0038
0068
00B8
0080
4060
8010
8008
8004
7FFC
ENDCHAR
STARTCHAR 06B1
ENCODING 1713
SWIDTH 840 0
DWIDTH 14 0
BBX 14 13 0 2
BITMAP
0030
00C8
0030
00C8
0030
0040
0080
0080
4060
8010
8008
8004
7FFC
ENDCHAR
STARTCHAR 06B2
ENCODING 1714
SWIDTH 840 0
DWIDTH 14 0
BBX 14 15 0 -1
BITMAP
0008
0030
00C8
0030
0040
0080
0080
4060
8010
8008
8004
7FFC
0000
0100
0200
ENDCHAR
STARTCHAR 06B3
ENCODING 1715
SWIDTH 840 0
DWIDTH 14 0
BBX 14 15 0 -1
BITMAP
0008
0030
00C8
0030
0040
0080
0080
4060
8010
8008
8004
7FFC
0000
0200
0100
ENDCHAR
STARTCHAR 06B4
ENCODING 1716
SWIDTH 840 0
DWIDTH 14 0
BBX 14 13 0 2
BITMAP
0180
0108
0030
00C8
0030
0040
0080
0080
4060
8010
8008
8004
7FFC
ENDCHAR
STARTCHAR 06B5
ENCODING 1717
SWIDTH 540 0
DWIDTH 9 0
BBX 8 15 1 0
BITMAP
05
02
00
03
02
02
02
02
21
41
81
81
81
82
7C
ENDCHAR
STARTCHAR 06B6
ENCODING 1718
SWIDTH 540 0
DWIDTH 9 0
BBX 8 14 1 0
BITMAP
02
00
03
02
02
02
02
21
41
81
81
81
82
7C
ENDCHAR
STARTCHAR 06B7
ENCODING 1719
SWIDTH 540 0
DWIDTH 9 0
BBX 8 15 1 0
BITMAP
06
04
00
01
02
02
02
02
21
41
81
81
81
82
7C
ENDCHAR
STARTCHAR 06B8
ENCODING 1720
SWIDTH 540 0
DWIDTH 9 0
BBX 8 16 1 -3
BITMAP
02
03
02
02
02
02
21
41
81
81
81
82
7C
00
08
18
ENDCHAR
STARTCHAR 06B9
ENCODING 1721
SWIDTH 540 0
DWIDTH 9 0
BBX 8 12 1 -3
BITMAP
08
00
02
41
81
81
81
81
82
7C
00
08
ENDCHAR
STARTCHAR 06BA
ENCODING 1722
SWIDTH 540 0
DWIDTH 9 0
BBX 8 8 1 -1
BITMAP
02
41
81
81
81
81
83
7C
ENDCHAR
STARTCHAR 06BB
ENCODING 1723
SWIDTH 540 0
DWIDTH 9 0
BBX 8 14 1 -1
BITMAP
30
20
38
28
78
00
02
41
81
81
81
81
83
7C
ENDCHAR
STARTCHAR 06BC
ENCODING 1724
SWIDTH 540 0
DWIDTH 9 0
BBX 8 12 1 -3
BITMAP
08
00
02
41
81
81
81
81
82
7C
28
38
ENDCHAR
STARTCHAR 06BD
ENCODING 1725
SWIDTH 540 0
DWIDTH 9 0
BBX 8 12 1 -1
BITMAP
10
18
00
00
02
41
81
81
81
81
83
7C
ENDCHAR
STARTCHAR 06BE
ENCODING 1726
SWIDTH 480 0
DWIDTH 8 0
BBX 8 6 -1 2
BITMAP
08
1C
26
25
19
E7
ENDCHAR
STARTCHAR 06BF
ENCODING 1727
SWIDTH 600 0
DWIDTH 10 0
BBX 9 13 0 -3
BITMAP
0800
0000
0000
7F80
0C00
3000
4000
8200
8600
8000
8000
6000
1F00
ENDCHAR
STARTCHAR 06C0
ENCODING 1728
SWIDTH 300 0
DWIDTH 5 0
BBX 5 8 0 2
BITMAP
30
40
30
00
60
98
88
F0
ENDCHAR
STARTCHAR 06C1
ENCODING 1729
SWIDTH 420 0
DWIDTH 7 0
BBX 7 4 0 1
BITMAP
18
28
46
80
ENDCHAR
STARTCHAR 06C2
ENCODING 1730
SWIDTH 420 0
DWIDTH 7 0
BBX 7 8 0 1
BITMAP
18
20
18
00
18
28
46
80
ENDCHAR
STARTCHAR 06C3
ENCODING 1731
SWIDTH 420 0
DWIDTH 7 0
BBX 7 7 0 1
BITMAP
10
20
00
18
28
46
80
ENDCHAR
STARTCHAR 06C4
ENCODING 1732
SWIDTH 420 0
DWIDTH 7 0
BBX 7 7 0 -2
BITMAP
06
0A
0E
02
12
AC
78
ENDCHAR
STARTCHAR 06C5
ENCODING 1733
SWIDTH 420 0
DWIDTH 7 0
BBX 7 7 0 -2
BITMAP
06
0A
06
32
0E
84
78
ENDCHAR
STARTCHAR 06C6
ENCODING 1734
SWIDTH 420 0
DWIDTH 7 0
BBX 7 10 0 -2
BITMAP
0A
04
00
06
0A
0E
02
02
84
78
ENDCHAR
STARTCHAR 06C7
ENCODING 1735
SWIDTH 420 0
DWIDTH 7 0
BBX 7 13 0 -2
BITMAP
06
0A
0E
08
00
00
06
0A
0E
02
02
84
78
ENDCHAR
STARTCHAR 06C8
ENCODING 1736
SWIDTH 420 0
DWIDTH 7 0
BBX 7 13 0 -2
BITMAP
04
04
04
04
04
00
06
0A
0E
02
02
84
78
ENDCHAR
STARTCHAR 06C9
ENCODING 1737
SWIDTH 420 0
DWIDTH 7 0
BBX 7 10 0 -2
BITMAP
04
0A
00
06
0A
0E
02
02
84
78
ENDCHAR
STARTCHAR 06CA
ENCODING 1738
SWIDTH 420 0
DWIDTH 7 0
BBX 7 10 0 -2
BITMAP
04
08
00
06
0A
0E
02
02
84
78
ENDCHAR
STARTCHAR 06CB
ENCODING 1739
SWIDTH 420 0
DWIDTH 7 0
BBX 7 11 0 -2
BITMAP
08
0C
00
00
06
0A
0E
02
02
84
78
ENDCHAR
STARTCHAR 06CC
ENCODING 1740
SWIDTH 660 0
DWIDTH 11 0
BBX 10 9 0 -1
BITMAP
01C0
0240
4200
8400
8400
87C0
8040
8180
7E00
ENDCHAR
STARTCHAR 06CD
ENCODING 1741
SWIDTH 660 0
DWIDTH 11 0
BBX 11 9 -1 -1
BITMAP
00E0
0120
2100
C200
4200
43E0
4020
40C0
3F00
ENDCHAR
STARTCHAR 06CE
ENCODING 1742
SWIDTH 660 0
DWIDTH 11 0
BBX 10 10 0 -1
BITMAP
2800
11C0
0240
4200
8400
8400
87C0
8040
8180
7E00
ENDCHAR
STARTCHAR 06CF
ENCODING 1743
SWIDTH 420 0
DWIDTH 7 0
BBX 7 9 0 -2
BITMAP
04
00
06
0A
0E
02
02
84
78
ENDCHAR
STARTCHAR 06D0
ENCODING 1744
SWIDTH 660 0
DWIDTH 11 0
BBX 10 11 0 -3
BITMAP
01C0
0240
4200
8400
8400
87C0
8040
8180
7E00
0800
0800
ENDCHAR
STARTCHAR 06D1
ENCODING 1745
SWIDTH 660 0
DWIDTH 11 0
BBX 10 12 0 -4
BITMAP
01C0
0240
4200
8400
8400
87C0
8040
8180
7E00
0000
1800
0800
ENDCHAR
STARTCHAR 06D2
ENCODING 1746
SWIDTH 840 0
DWIDTH 14 0
BBX 12 6 1 0
BITMAP
0400
0A00
1000
6000
8000
FFF0
ENDCHAR
STARTCHAR 06D3
ENCODING 1747
SWIDTH 840 0
DWIDTH 14 0
BBX 12 8 1 0
BITMAP
3000
4000
3400
0A00
1000
6000
8000
FFF0
ENDCHAR
STARTCHAR 06D4
ENCODING 1748
SWIDTH 240 0
DWIDTH 4 0
BBX 3 1 0 2
BITMAP
E0
ENDCHAR
STARTCHAR 06D5
ENCODING 1749
SWIDTH 300 0
DWIDTH 5 0
BBX 5 4 0 2
BITMAP
60
98
88
F0
ENDCHAR
STARTCHAR 06D6
ENCODING 1750
SWIDTH 0 0
DWIDTH 0 0
BBX 8 6 -4 9
BITMAP
20
20
2B
7F
80
FC
ENDCHAR
STARTCHAR 06D7
ENCODING 1751
SWIDTH 0 0
DWIDTH 0 0
BBX 6 6 -3 9
BITMAP
48
50
58
78
80
FC
ENDCHAR
STARTCHAR 06D8
ENCODING 1752
SWIDTH 0 0
DWIDTH 0 0
BBX 3 2 -2 9
BITMAP
60
A0
ENDCHAR
STARTCHAR 06D9
ENCODING 1753
SWIDTH 0 0
DWIDTH 0 0
BBX 4 5 -2 9
BITMAP
90
50
50
20
70
ENDCHAR
STARTCHAR 06DA
ENCODING 1754
SWIDTH 0 0
DWIDTH 0 0
BBX 4 5 -2 9
BITMAP
F0
40
A0
80
70
ENDCHAR
STARTCHAR 06DB
ENCODING 1755
SWIDTH 0 0
DWIDTH 0 0
BBX 2 2 -1 9
BITMAP
80
C0
ENDCHAR
STARTCHAR 06DC
ENCODING 1756
SWIDTH 0 0
DWIDTH 0 0
BBX 6 4 -3 9
BITMAP
B4
BC
A0
C0
ENDCHAR
STARTCHAR 06DD
ENCODING 1757
SWIDTH 1140 0
DWIDTH 19 0
BBX 19 18 0 -3
BITMAP
03F800
1C0700
1FFF00
180100
200080
400040
C00060
800020
800020
800020
800020
800020
400040
200080
180100
1FFF00
1C0700
03F800
ENDCHAR
STARTCHAR 06DE
ENCODING 1758
SWIDTH 1080 0
DWIDTH 18 0
BBX 18 18 0 -3
BITMAP
00C000
012000
3FFF00
240900
280500
300300
200100
60C180
A12140
A12140
60C180
200100
300300
280500
240900
3FFF00
012000
00C000
ENDCHAR
STARTCHAR 06DF
ENCODING 1759
SWIDTH 0 0
DWIDTH 0 0
BBX 1 1 -1 9
BITMAP
80
ENDCHAR
STARTCHAR 06E0
ENCODING 1760
SWIDTH 0 0
DWIDTH 0 0
BBX 1 1 -1 9
BITMAP
80
ENDCHAR
STARTCHAR 06E1
ENCODING 1761
SWIDTH 0 0
DWIDTH 0 0
BBX 5 3 -2 9
BITMAP
60
10
F8
ENDCHAR
STARTCHAR 06E2
ENCODING 1762
SWIDTH 0 0
DWIDTH 0 0
BBX 3 5 -1 9
BITMAP
40
A0
60
80
80
ENDCHAR
STARTCHAR 06E3
ENCODING 1763
SWIDTH 0 0
DWIDTH 0 0
BBX 6 4 -3 -3
BITMAP
B4
BC
A0
C0
ENDCHAR
STARTCHAR 06E4
ENCODING 1764
SWIDTH 0 0
DWIDTH 0 0
BBX 2 1 -1 9
BITMAP
C0
ENDCHAR
STARTCHAR 06E5
ENCODING 1765
SWIDTH 180 0
DWIDTH 3 0
BBX 3 4 0 9
BITMAP
60
60
20
C0
ENDCHAR
STARTCHAR 06E6
ENCODING 1766
SWIDTH 360 0
DWIDTH 6 0
BBX 6 4 0 9
BITMAP
10
70
80
FC
ENDCHAR
STARTCHAR 06E7
ENCODING 1767
SWIDTH 0 0
DWIDTH 0 0
BBX 6 4 -3 9
BITMAP
10
70
80
FC
ENDCHAR
STARTCHAR 06E8
ENCODING 1768
SWIDTH 0 0
DWIDTH 0 0
BBX 4 6 -2 9
BITMAP
40
10
90
90
90
60
ENDCHAR
STARTCHAR 06E9
ENCODING 1769
SWIDTH 600 0
DWIDTH 10 0
BBX 13 15 -1 0
BITMAP
0200
0D80
1240
6DB0
9248
6DF0
1DC0
1DC0
1DC0
1DC0
1FC0
38E0
2FA0
4010
FFF8
ENDCHAR
STARTCHAR 06EA
ENCODING 1770
SWIDTH 0 0
DWIDTH 0 0
BBX 3 3 -1 -3
BITMAP
40
A0
40
ENDCHAR
STARTCHAR 06EB
ENCODING 1771
SWIDTH 0 0
DWIDTH 0 0
BBX 3 3 -1 9
BITMAP
40
A0
40
ENDCHAR
STARTCHAR 06EC
ENCODING 1772
SWIDTH 0 0
DWIDTH 0 0
BBX 1 1 -1 9
BITMAP
80
ENDCHAR
STARTCHAR 06ED
ENCODING 1773
SWIDTH 0 0
DWIDTH 0 0
BBX 3 5 -1 -3
BITMAP
40
A0
60
80
80
ENDCHAR
STARTCHAR 06F0
ENCODING 1776
SWIDTH 540 0
DWIDTH 9 0
BBX 3 4 3 4
BITMAP
40
E0
E0
40
ENDCHAR
STARTCHAR 06F1
ENCODING 1777
SWIDTH 540 0
DWIDTH 9 0
BBX 2 10 4 2
BITMAP
80
80
80
80
40
40
40
40
40
40
ENDCHAR
STARTCHAR 06F2
ENCODING 1778
SWIDTH 540 0
DWIDTH 9 0
BBX 4 10 3 2
BITMAP
90
F0
80
40
40
20
20
20
20
20
ENDCHAR
STARTCHAR 06F3
ENCODING 1779
SWIDTH 540 0
DWIDTH 9 0
BBX 7 10 2 2
BITMAP
92
FE
80
40
20
20
20
20
20
20
ENDCHAR
STARTCHAR 06F4
ENCODING 1780
SWIDTH 540 0
DWIDTH 9 0
BBX 6 10 3 2
BITMAP
98
A0
A4
F8
40
40
40
40
40
40
ENDCHAR
STARTCHAR 06F5
ENCODING 1781
SWIDTH 540 0
DWIDTH 9 0
BBX 7 9 1 2
BITMAP
08
18
24
42
82
82
82
8A
7C
ENDCHAR
STARTCHAR 06F6
ENCODING 1782
SWIDTH 540 0
DWIDTH 9 0
BBX 6 10 2 2
BITMAP
30
40
84
F8
10
20
20
40
40
40
ENDCHAR
STARTCHAR 06F7
ENCODING 1783
SWIDTH 540 0
DWIDTH 9 0
BBX 6 10 1 2
BITMAP
80
84
44
48
28
28
28
10
10
10
ENDCHAR
STARTCHAR 06F8
ENCODING 1784
SWIDTH 540 0
DWIDTH 9 0
BBX 7 10 1 2
BITMAP
10
10
10
28
28
48
48
44
84
82
ENDCHAR
STARTCHAR 06F9
ENCODING 1785
SWIDTH 540 0
DWIDTH 9 0
BBX 6 10 1 2
BITMAP
70
88
88
F8
08
08
08
08
08
04
ENDCHAR
STARTCHAR 06FA
ENCODING 1786
SWIDTH 840 0
DWIDTH 14 0
BBX 13 11 1 -1
BITMAP
0040
0060
0000
0250
4148
8148
8148
81F8
8100
8220
7C00
ENDCHAR
STARTCHAR 06FB
ENCODING 1787
SWIDTH 1140 0
DWIDTH 19 0
BBX 18 10 1 -1
BITMAP
000800
000000
010380
408440
808840
809040
80FFC0
808000
810400
7E0000
ENDCHAR
STARTCHAR 06FC
ENCODING 1788
SWIDTH 540 0
DWIDTH 9 0
BBX 7 15 0 -3
BITMAP
10
00
00
70
80
82
6C
30
40
80
80
88
80
40
3E
ENDCHAR
STARTCHAR 06FD
ENCODING 1789
SWIDTH 420 0
DWIDTH 7 0
BBX 5 8 1 -2
BITMAP
70
80
88
70
40
28
28
28
ENDCHAR
STARTCHAR 06FE
ENCODING 1790
SWIDTH 360 0
DWIDTH 6 0
BBX 6 8 0 -3
BITMAP
78
04
7C
80
80
94
54
54
ENDCHAR
STARTCHAR 1E80
ENCODING 7808
SWIDTH 1020 0
DWIDTH 17 0
BBX 17 15 0 0
BITMAP
010000
008000
000000
808080
414100
414100
414100
222200
222200
222200
141400
141400
141400
080800
080800
ENDCHAR
STARTCHAR 1E81
ENCODING 7809
SWIDTH 660 0
DWIDTH 11 0
BBX 11 12 0 0
BITMAP
0800
0400
0000
8420
8420
4A40
4A40
5140
5140
5140
2080
2080
ENDCHAR
STARTCHAR 1E82
ENCODING 7810
SWIDTH 1020 0
DWIDTH 17 0
BBX 17 15 0 0
BITMAP
004000
008000
000000
808080
414100
414100
414100
222200
222200
222200
141400
141400
141400
080800
080800
ENDCHAR
STARTCHAR 1E83
ENCODING 7811
SWIDTH 660 0
DWIDTH 11 0
BBX 11 12 0 0
BITMAP
0200
0400
0000
8420
8420
4A40
4A40
5140
5140
5140
2080
2080
ENDCHAR
STARTCHAR 1E84
ENCODING 7812
SWIDTH 1020 0
DWIDTH 17 0
BBX 17 14 0 0
BITMAP
014000
000000
808080
414100
414100
414100
222200
222200
222200
141400
141400
141400
080800
080800
ENDCHAR
STARTCHAR 1E85
ENCODING 7813
SWIDTH 660 0
DWIDTH 11 0
BBX 11 11 0 0
BITMAP
0A00
0000
8420
8420
4A40
4A40
5140
5140
5140
2080
2080
ENDCHAR
STARTCHAR 1EA0
ENCODING 7840
SWIDTH 660 0
DWIDTH 11 0
BBX 11 14 0 -2
BITMAP
0400
0A00
0A00
1100
1100
1100
2080
3F80
4040
4040
8020
8020
0000
0400
ENDCHAR
STARTCHAR 1EA1
ENCODING 7841
SWIDTH 540 0
DWIDTH 9 0
BBX 7 11 1 -2
BITMAP
3C
42
82
0E
72
82
82
86
7A
00
10
ENDCHAR
STARTCHAR 1EA2
ENCODING 7842
SWIDTH 660 0
DWIDTH 11 0
BBX 11 15 0 0
BITMAP
0E00
0400
0000
0400
0A00
0A00
1100
1100
1100
2080
3F80
4040
4040
8020
8020
ENDCHAR
STARTCHAR 1EA3
ENCODING 7843
SWIDTH 540 0
DWIDTH 9 0
BBX 7 13 1 0
BITMAP
38
08
10
00
3C
42
82
0E
72
82
82
86
7A
ENDCHAR
STARTCHAR 1EA4
ENCODING 7844
SWIDTH 660 0
DWIDTH 11 0
BBX 11 15 0 0
BITMAP
0100
0600
0A00
0400
0A00
0A00
1100
1100
1100
2080
3F80
4040
4040
8020
8020
ENDCHAR
STARTCHAR 1EA5
ENCODING 7845
SWIDTH 540 0
DWIDTH 9 0
BBX 7 15 1 0
BITMAP
08
10
00
18
24
00
3C
42
82
0E
72
82
82
86
7A
ENDCHAR
STARTCHAR 1EA6
ENCODING 7846
SWIDTH 660 0
DWIDTH 11 0
BBX 11 15 0 0
BITMAP
1800
0C00
0A00
0400
0A00
0A00
1100
1100
1100
2080
3F80
4040
4040
8020
8020
ENDCHAR
STARTCHAR 1EA7
ENCODING 7847
SWIDTH 540 0
DWIDTH 9 0
BBX 7 15 1 0
BITMAP
10
08
00
18
24
00
3C
42
82
0E
72
82
82
86
7A
ENDCHAR
STARTCHAR 1EA8
ENCODING 7848
SWIDTH 660 0
DWIDTH 11 0
BBX 11 15 0 0
BITMAP
0F80
0F00
0A00
0400
0A00
0A00
1100
1100
1100
2080
3F80
4040
4040
8020
8020
ENDCHAR
STARTCHAR 1EA9
ENCODING 7849
SWIDTH 540 0
DWIDTH 9 0
BBX 7 15 1 0
BITMAP
1C
08
00
18
24
00
3C
42
82
0E
72
82
82
86
7A
ENDCHAR
STARTCHAR 1EAA
ENCODING 7850
SWIDTH 660 0
DWIDTH 11 0
BBX 11 15 0 0
BITMAP
1CC0
3F80
0A00
0400
0A00
0A00
1100
1100
1100
2080
3F80
4040
4040
8020
8020
ENDCHAR
STARTCHAR 1EAB
ENCODING 7851
SWIDTH 540 0
DWIDTH 9 0
BBX 7 15 1 0
BITMAP
1A
24
00
18
24
00
3C
42
82
0E
72
82
82
86
7A
ENDCHAR
STARTCHAR 1EAC
ENCODING 7852
SWIDTH 660 0
DWIDTH 11 0
BBX 11 18 0 -3
BITMAP
0400
0A00
0000
0400
0A00
0A00
1100
1100
1100
2080
3F80
4040
4040
8020
8020
0000
0600
0600
ENDCHAR
STARTCHAR 1EAD
ENCODING 7853
SWIDTH 540 0
DWIDTH 9 0
BBX 7 14 1 -2
BITMAP
18
24
00
3C
42
82
0E
72
82
82
86
7A
00
10
ENDCHAR
STARTCHAR 1EAE
ENCODING 7854
SWIDTH 660 0
DWIDTH 11 0
BBX 11 15 0 0
BITMAP
0600
1C80
0F00
0400
0A00
0A00
1100
1100
1100
2080
3F80
4040
4040
8020
8020
ENDCHAR
STARTCHAR 1EAF
ENCODING 7855
SWIDTH 540 0
DWIDTH 9 0
BBX 7 15 1 0
BITMAP
08
10
00
44
38
00
3C
42
82
0E
72
82
82
86
7A
ENDCHAR
STARTCHAR 1EB0
ENCODING 7856
SWIDTH 660 0
DWIDTH 11 0
BBX 11 15 0 0
BITMAP
0C00
1680
0F00
0400
0A00
0A00
1100
1100
1100
2080
3F80
4040
4040
8020
8020
ENDCHAR
STARTCHAR 1EB1
ENCODING 7857
SWIDTH 540 0
DWIDTH 9 0
BBX 7 15 1 0
BITMAP
20
10
00
44
38
00
3C
42
82
0E
72
82
82
86
7A
ENDCHAR
STARTCHAR 1EB2
ENCODING 7858
SWIDTH 660 0
DWIDTH 11 0
BBX 11 15 0 0
BITMAP
0F80
1F80
0F00
0400
0A00
0A00
1100
1100
1100
2080
3F80
4040
4040
8020
8020
ENDCHAR
STARTCHAR 1EB3
ENCODING 7859
SWIDTH 540 0
DWIDTH 9 0
BBX 7 15 1 0
BITMAP
38
10
00
44
38
00
3C
42
82
0E
72
82
82
86
7A
ENDCHAR
STARTCHAR 1EB4
ENCODING 7860
SWIDTH 660 0
DWIDTH 11 0
BBX 11 15 0 0
BITMAP
1CC0
3F80
0F00
0400
0A00
0A00
1100
1100
1100
2080
3F80
4040
4040
8020
8020
ENDCHAR
STARTCHAR 1EB5
ENCODING 7861
SWIDTH 540 0
DWIDTH 9 0
BBX 7 15 1 0
BITMAP
34
48
00
44
38
00
3C
42
82
0E
72
82
82
86
7A
ENDCHAR
STARTCHAR 1EB6
ENCODING 7862
SWIDTH 660 0
DWIDTH 11 0
BBX 11 18 0 -3
BITMAP
1080
0F00
0000
0400
0A00
0A00
1100
1100
1100
2080
3F80
4040
4040
8020
8020
0000
0600
0600
ENDCHAR
STARTCHAR 1EB7
ENCODING 7863
SWIDTH 540 0
DWIDTH 9 0
BBX 7 14 1 -2
BITMAP
44
38
00
3C
42
82
0E
72
82
82
86
7A
00
10
ENDCHAR
STARTCHAR 1EB8
ENCODING 7864
SWIDTH 660 0
DWIDTH 11 0
BBX 9 14 1 -2
BITMAP
FF80
8000
8000
8000
8000
FF00
8000
8000
8000
8000
8000
FF80
0000
0800
ENDCHAR
STARTCHAR 1EB9
ENCODING 7865
SWIDTH 540 0
DWIDTH 9 0
BBX 7 11 1 -2
BITMAP
38
44
82
82
FE
80
82
44
38
00
10
ENDCHAR
STARTCHAR 1EBA
ENCODING 7866
SWIDTH 660 0
DWIDTH 11 0
BBX 9 15 1 0
BITMAP
1C00
0800
0000
FF80
8000
8000
8000
8000
FF00
8000
8000
8000
8000
8000
FF80
ENDCHAR
STARTCHAR 1EBB
ENCODING 7867
SWIDTH 540 0
DWIDTH 9 0
BBX 7 13 1 0
BITMAP
38
08
10
00
38
44
82
82
FE
80
82
44
38
ENDCHAR
STARTCHAR 1EBC
ENCODING 7868
SWIDTH 660 0
DWIDTH 11 0
BBX 9 15 1 0
BITMAP
0A00
1400
0000
FF80
8000
8000
8000
8000
FF00
8000
8000
8000
8000
8000
FF80
ENDCHAR
STARTCHAR 1EBD
ENCODING 7869
SWIDTH 540 0
DWIDTH 9 0
BBX 7 12 1 0
BITMAP
14
28
00
38
44
82
82
FE
80
82
44
38
ENDCHAR
STARTCHAR 1EBE
ENCODING 7870
SWIDTH 660 0
DWIDTH 11 0
BBX 9 15 1 0
BITMAP
0200
0C00
1400
FF80
8000
8000
8000
8000
FF00
8000
8000
8000
8000
8000
FF80
ENDCHAR
STARTCHAR 1EBF
ENCODING 7871
SWIDTH 540 0
DWIDTH 9 0
BBX 7 15 1 0
BITMAP
08
10
00
18
24
00
38
44
82
82
FE
80
82
44
38
ENDCHAR
STARTCHAR 1EC0
ENCODING 7872
SWIDTH 660 0
DWIDTH 11 0
BBX 9 15 1 0
BITMAP
3000
1800
1400
FF80
8000
8000
8000
8000
FF00
8000
8000
8000
8000
8000
FF80
ENDCHAR
STARTCHAR 1EC1
ENCODING 7873
SWIDTH 540 0
DWIDTH 9 0
BBX 7 15 1 0
BITMAP
10
08
00
18
24
00
38
44
82
82
FE
80
82
44
38
ENDCHAR
STARTCHAR 1EC2
ENCODING 7874
SWIDTH 660 0
DWIDTH 11 0
BBX 9 15 1 0
BITMAP
1F00
1E00
1400
FF80
8000
8000
8000
8000
FF00
8000
8000
8000
8000
8000
FF80
ENDCHAR
STARTCHAR 1EC3
ENCODING 7875
SWIDTH 540 0
DWIDTH 9 0
BBX 7 15 1 0
BITMAP
1C
08
00
18
24
00
38
44
82
82
FE
80
82
44
38
ENDCHAR
STARTCHAR 1EC4
ENCODING 7876
SWIDTH 660 0
DWIDTH 11 0
BBX 9 15 1 0
BITMAP
3980
7F00
1400
FF80
8000
8000
8000
8000
FF00
8000
8000
8000
8000
8000
FF80
ENDCHAR
STARTCHAR 1EC5
ENCODING 7877
SWIDTH 540 0
DWIDTH 9 0
BBX 7 15 1 0
BITMAP
1A
24
00
18
24
00
38
44
82
82
FE
80
82
44
38
ENDCHAR
STARTCHAR 1EC6
ENCODING 7878
SWIDTH 660 0
DWIDTH 11 0
BBX 9 18 1 -3
BITMAP
0800
1400
0000
FF80
8000
8000
8000
8000
FF00
8000
8000
8000
8000
8000
FF80
0000
0C00
0C00
ENDCHAR
STARTCHAR 1EC7
ENCODING 7879
SWIDTH 540 0
DWIDTH 9 0
BBX 7 14 1 -2
BITMAP
18
24
00
38
44
82
82
FE
80
82
44
38
00
10
ENDCHAR
STARTCHAR 1EC8
ENCODING 7880
SWIDTH 300 0
DWIDTH 5 0
BBX 3 15 1 0
BITMAP
E0
40
00
40
40
40
40
40
40
40
40
40
40
40
40
ENDCHAR
STARTCHAR 1EC9
ENCODING 7881
SWIDTH 240 0
DWIDTH 4 0
BBX 3 13 0 0
BITMAP
E0
20
40
00
40
40
40
40
40
40
40
40
40
ENDCHAR
STARTCHAR 1ECA
ENCODING 7882
SWIDTH 300 0
DWIDTH 5 0
BBX 1 14 2 -2
BITMAP
80
80
80
80
80
80
80
80
80
80
80
80
00
80
ENDCHAR
STARTCHAR 1ECB
ENCODING 7883
SWIDTH 240 0
DWIDTH 4 0
BBX 1 14 1 -2
BITMAP
80
00
00
80
80
80
80
80
80
80
80
80
00
80
ENDCHAR
STARTCHAR 1ECC
ENCODING 7884
SWIDTH 720 0
DWIDTH 12 0
BBX 10 14 1 -2
BITMAP
1E00
2100
4080
8040
8040
8040
8040
8040
8040
4080
2180
1E00
0000
0400
ENDCHAR
STARTCHAR 1ECD
ENCODING 7885
SWIDTH 540 0
DWIDTH 9 0
BBX 7 11 1 -2
BITMAP
38
44
82
82
82
82
82
44
38
00
10
ENDCHAR
STARTCHAR 1ECE
ENCODING 7886
SWIDTH 720 0
DWIDTH 12 0
BBX 10 15 1 0
BITMAP
0E00
0400
0000
1E00
2100
4080
8040
8040
8040
8040
8040
8040
4080
2180
1E00
ENDCHAR
STARTCHAR 1ECF
ENCODING 7887
SWIDTH 540 0
DWIDTH 9 0
BBX 7 13 1 0
BITMAP
38
08
10
00
38
44
82
82
82
82
82
44
38
ENDCHAR
STARTCHAR 1ED0
ENCODING 7888
SWIDTH 720 0
DWIDTH 12 0
BBX 10 15 1 0
BITMAP
0100
0600
0A00
1E00
2100
4080
8040
8040
8040
8040
8040
8040
4080
2180
1E00
ENDCHAR
STARTCHAR 1ED1
ENCODING 7889
SWIDTH 540 0
DWIDTH 9 0
BBX 7 15 1 0
BITMAP
08
10
00
18
24
00
38
44
82
82
82
82
82
44
38
ENDCHAR
STARTCHAR 1ED2
ENCODING 7890
SWIDTH 720 0
DWIDTH 12 0
BBX 10 15 1 0
BITMAP
1800
0C00
0A00
1E00
2100
4080
8040
8040
8040
8040
8040
8040
4080
2180
1E00
ENDCHAR
STARTCHAR 1ED3
ENCODING 7891
SWIDTH 540 0
DWIDTH 9 0
BBX 7 15 1 0
BITMAP
10
08
00
18
24
00
38
44
82
82
82
82
82
44
38
ENDCHAR
STARTCHAR 1ED4
ENCODING 7892
SWIDTH 720 0
DWIDTH 12 0
BBX 10 15 1 0
BITMAP
0F80
0F00
0A00
1E00
2100
4080
8040
8040
8040
8040
8040
8040
4080
2180
1E00
ENDCHAR
STARTCHAR 1ED5
ENCODING 7893
SWIDTH 540 0
DWIDTH 9 0
BBX 7 15 1 0
BITMAP
1C
08
00
18
24
00
38
44
82
82
82
82
82
44
38
ENDCHAR
STARTCHAR 1ED6
ENCODING 7894
SWIDTH 720 0
DWIDTH 12 0
BBX 10 15 1 0
BITMAP
1CC0
3F80
0A00
1E00
2100
4080
8040
8040
8040
8040
8040
8040
4080
2180
1E00
ENDCHAR
STARTCHAR 1ED7
ENCODING 7895
SWIDTH 540 0
DWIDTH 9 0
BBX 7 15 1 0
BITMAP
1A
24
00
18
24
00
38
44
82
82
82
82
82
44
38
ENDCHAR
STARTCHAR 1ED8
ENCODING 7896
SWIDTH 720 0
DWIDTH 12 0
BBX 10 18 1 -3
BITMAP
0400
0A00
0000
1E00
2100
4080
8040
8040
8040
8040
8040
8040
4080
2180
1E00
0000
0C00
0C00
ENDCHAR
STARTCHAR 1ED9
ENCODING 7897
SWIDTH 540 0
DWIDTH 9 0
BBX 7 14 1 -2
BITMAP
18
24
00
38
44
82
82
82
82
82
44
38
00
10
ENDCHAR
STARTCHAR 1EDA
ENCODING 7898
SWIDTH 900 0
DWIDTH 15 0
BBX 12 15 1 0
BITMAP
0200
0400
0000
1F10
2090
4050
8020
8020
8020
8020
8020
8020
4040
2080
1F00
ENDCHAR
STARTCHAR 1EDB
ENCODING 7899
SWIDTH 660 0
DWIDTH 11 0
BBX 9 12 1 0
BITMAP
0400
0800
0000
3C80
4280
8180
8100
8100
8100
8100
4200
3C00
ENDCHAR
STARTCHAR 1EDC
ENCODING 7900
SWIDTH 900 0
DWIDTH 15 0
BBX 12 15 1 0
BITMAP
0800
0400
0000
1F10
2090
4050
8020
8020
8020
8020
8020
8020
4040
2080
1F00
ENDCHAR
STARTCHAR 1EDD
ENCODING 7901
SWIDTH 660 0
DWIDTH 11 0
BBX 9 12 1 0
BITMAP
1000
0800
0000
3C80
4280
8180
8100
8100
8100
8100
4200
3C00
ENDCHAR
STARTCHAR 1EDE
ENCODING 7902
SWIDTH 900 0
DWIDTH 15 0
BBX 12 15 1 0
BITMAP
0E00
0400
0000
1F10
2090
4050
8020
8020
8020
8020
8020
8020
4040
2080
1F00
ENDCHAR
STARTCHAR 1EDF
ENCODING 7903
SWIDTH 660 0
DWIDTH 11 0
BBX 9 13 1 0
BITMAP
1C00
0400
0800
0000
3C80
4280
8180
8100
8100
8100
8100
4200
3C00
ENDCHAR
STARTCHAR 1EE0
ENCODING 7904
SWIDTH 900 0
DWIDTH 15 0
BBX 12 15 1 0
BITMAP
0500
0A00
0000
1F10
2090
4050
8020
8020
8020
8020
8020
8020
4040
2080
1F00
ENDCHAR
STARTCHAR 1EE1
ENCODING 7905
SWIDTH 660 0
DWIDTH 11 0
BBX 9 12 1 0
BITMAP
1400
2800
0000
3C80
4280
8180
8100
8100
8100
8100
4200
3C00
ENDCHAR
STARTCHAR 1EE2
ENCODING 7906
SWIDTH 900 0
DWIDTH 15 0
BBX 12 14 1 -2
BITMAP
1F10
2090
4050
8020
8020
8020
8020
8020
8020
4040
2080
1F00
0000
0400
ENDCHAR
STARTCHAR 1EE3
ENCODING 7907
SWIDTH 660 0
DWIDTH 11 0
BBX 9 11 1 -2
BITMAP
3C80
4280
8180
8100
8100
8100
8100
4200
3C00
0000
0800
ENDCHAR
STARTCHAR 1EE4
ENCODING 7908
SWIDTH 660 0
DWIDTH 11 0
BBX 9 14 1 -2
BITMAP
8080
8080
8080
8080
8080
8080
8080
8080
8080
8080
4100
3E00
0000
0800
ENDCHAR
STARTCHAR 1EE5
ENCODING 7909
SWIDTH 540 0
DWIDTH 9 0
BBX 7 11 1 -2
BITMAP
82
82
82
82
82
82
82
86
7A
00
10
ENDCHAR
STARTCHAR 1EE6
ENCODING 7910
SWIDTH 660 0
DWIDTH 11 0
BBX 9 15 1 0
BITMAP
1C00
0800
0000
8080
8080
8080
8080
8080
8080
8080
8080
8080
8080
4100
3E00
ENDCHAR
STARTCHAR 1EE7
ENCODING 7911
SWIDTH 540 0
DWIDTH 9 0
BBX 7 13 1 0
BITMAP
38
08
10
00
82
82
82
82
82
82
82
86
7A
ENDCHAR
STARTCHAR 1EE8
ENCODING 7912
SWIDTH 900 0
DWIDTH 15 0
BBX 12 15 1 0
BITMAP
0200
0400
0000
8050
8050
8050
8060
8040
8040
8040
8040
8040
8040
4080
3F00
ENDCHAR
STARTCHAR 1EE9
ENCODING 7913
SWIDTH 660 0
DWIDTH 11 0
BBX 9 12 1 0
BITMAP
0800
1000
0000
8280
8280
8280
8300
8200
8200
8200
8600
7A00
ENDCHAR
STARTCHAR 1EEA
ENCODING 7914
SWIDTH 900 0
DWIDTH 15 0
BBX 12 15 1 0
BITMAP
0800
0400
0000
8050
8050
8050
8060
8040
8040
8040
8040
8040
8040
4080
3F00
ENDCHAR
STARTCHAR 1EEB
ENCODING 7915
SWIDTH 660 0
DWIDTH 11 0
BBX 9 12 1 0
BITMAP
2000
1000
0000
8280
8280
8280
8300
8200
8200
8200
8600
7A00
ENDCHAR
STARTCHAR 1EEC
ENCODING 7916
SWIDTH 900 0
DWIDTH 15 0
BBX 12 15 1 0
BITMAP
1C00
0800
0000
8050
8050
8050
8060
8040
8040
8040
8040
8040
8040
4080
3F00
ENDCHAR
STARTCHAR 1EED
ENCODING 7917
SWIDTH 660 0
DWIDTH 11 0
BBX 9 13 1 0
BITMAP
3800
0800
1000
0000
8280
8280
8280
8300
8200
8200
8200
8600
7A00
ENDCHAR
STARTCHAR 1EEE
ENCODING 7918
SWIDTH 900 0
DWIDTH 15 0
BBX 12 15 1 0
BITMAP
0A00
1400
0000
8050
8050
8050
8060
8040
8040
8040
8040
8040
8040
4080
3F00
ENDCHAR
STARTCHAR 1EEF
ENCODING 7919
SWIDTH 660 0
DWIDTH 11 0
BBX 9 12 1 0
BITMAP
1400
2800
0000
8280
8280
8280
8300
8200
8200
8200
8600
7A00
ENDCHAR
STARTCHAR 1EF0
ENCODING 7920
SWIDTH 900 0
DWIDTH 15 0
BBX 12 14 1 -2
BITMAP
8050
8050
8050
8060
8040
8040
8040
8040
8040
8040
4080
3F00
0000
0400
ENDCHAR
STARTCHAR 1EF1
ENCODING 7921
SWIDTH 660 0
DWIDTH 11 0
BBX 9 11 1 -2
BITMAP
8280
8280
8280
8300
8200
8200
8200
8600
7A00
0000
1000
ENDCHAR
STARTCHAR 1EF2
ENCODING 7922
SWIDTH 660 0
DWIDTH 11 0
BBX 9 15 1 0
BITMAP
0800
0400
0000
8080
4100
4100
2200
1400
1400
0800
0800
0800
0800
0800
0800
ENDCHAR
STARTCHAR 1EF3
ENCODING 7923
SWIDTH 540 0
DWIDTH 9 0
BBX 7 15 1 -3
BITMAP
10
08
00
82
82
82
44
44
2C
28
38
10
10
20
E0
ENDCHAR
STARTCHAR 1EF4
ENCODING 7924
SWIDTH 660 0
DWIDTH 11 0
BBX 9 14 1 -2
BITMAP
8080
4100
4100
2200
1400
1400
0800
0800
0800
0800
0800
0800
0000
0800
ENDCHAR
STARTCHAR 1EF5
ENCODING 7925
SWIDTH 540 0
DWIDTH 9 0
BBX 7 12 1 -3
BITMAP
82
82
82
44
44
2C
28
38
10
10
22
E0
ENDCHAR
STARTCHAR 1EF6
ENCODING 7926
SWIDTH 660 0
DWIDTH 11 0
BBX 9 15 1 0
BITMAP
1C00
0800
0000
8080
4100
4100
2200
1400
1400
0800
0800
0800
0800
0800
0800
ENDCHAR
STARTCHAR 1EF7
ENCODING 7927
SWIDTH 540 0
DWIDTH 9 0
BBX 7 16 1 -3
BITMAP
38
08
10
00
82
82
82
44
44
2C
28
38
10
10
20
E0
ENDCHAR
STARTCHAR 1EF8
ENCODING 7928
SWIDTH 660 0
DWIDTH 11 0
BBX 9 15 1 0
BITMAP
0A00
1400
0000
8080
4100
4100
2200
1400
1400
0800
0800
0800
0800
0800
0800
ENDCHAR
STARTCHAR 1EF9
ENCODING 7929
SWIDTH 540 0
DWIDTH 9 0
BBX 7 15 1 -3
BITMAP
14
28
00
82
82
82
44
44
2C
28
38
10
10
20
E0
ENDCHAR
STARTCHAR 200C
ENCODING 8204
SWIDTH 0 0
DWIDTH 0 0
BBX 1 13 0 -2
BITMAP
80
80
80
80
80
80
80
80
80
80
80
80
80
ENDCHAR
STARTCHAR 200D
ENCODING 8205
SWIDTH 0 0
DWIDTH 0 0
BBX 3 14 -1 -2
BITMAP
A0
40
E0
40
40
40
40
40
40
40
40
40
40
40
ENDCHAR
STARTCHAR 200E
ENCODING 8206
SWIDTH 0 0
DWIDTH 0 0
BBX 4 13 0 -2
BITMAP
20
F0
A0
80
80
80
80
80
80
80
80
80
80
ENDCHAR
STARTCHAR 200F
ENCODING 8207
SWIDTH 0 0
DWIDTH 0 0
BBX 4 13 -2 -2
BITMAP
40
F0
50
10
10
10
10
10
10
10
10
10
10
ENDCHAR
STARTCHAR 2013
ENCODING 8211
SWIDTH 540 0
DWIDTH 9 0
BBX 9 1 0 4
BITMAP
FF80
ENDCHAR
STARTCHAR 2014
ENCODING 8212
SWIDTH 1020 0
DWIDTH 17 0
BBX 17 1 0 4
BITMAP
FFFF80
ENDCHAR
STARTCHAR 2015
ENCODING 8213
SWIDTH 1020 0
DWIDTH 17 0
BBX 15 1 1 4
BITMAP
FFFE
ENDCHAR
STARTCHAR 2017
ENCODING 8215
SWIDTH 540 0
DWIDTH 9 0
BBX 9 3 0 -6
BITMAP
FF80
0000
FF80
ENDCHAR
STARTCHAR 2018
ENCODING 8216
SWIDTH 240 0
DWIDTH 4 0
BBX 1 3 1 9
BITMAP
80
80
80
ENDCHAR
STARTCHAR 2019
ENCODING 8217
SWIDTH 240 0
DWIDTH 4 0
BBX 1 3 1 9
BITMAP
80
80
80
ENDCHAR
STARTCHAR 201A
ENCODING 8218
SWIDTH 240 0
DWIDTH 4 0
BBX 1 3 1 -2
BITMAP
80
80
80
ENDCHAR
STARTCHAR 201B
ENCODING 8219
SWIDTH 240 0
DWIDTH 4 0
BBX 1 4 1 8
BITMAP
80
80
80
80
ENDCHAR
STARTCHAR 201C
ENCODING 8220
SWIDTH 360 0
DWIDTH 6 0
BBX 3 3 1 9
BITMAP
A0
A0
A0
ENDCHAR
STARTCHAR 201D
ENCODING 8221
SWIDTH 360 0
DWIDTH 6 0
BBX 3 3 1 9
BITMAP
A0
A0
A0
ENDCHAR
STARTCHAR 201E
ENCODING 8222
SWIDTH 360 0
DWIDTH 6 0
BBX 3 3 1 -2
BITMAP
A0
A0
A0
ENDCHAR
STARTCHAR 2020
ENCODING 8224
SWIDTH 540 0
DWIDTH 9 0
BBX 7 15 1 -3
BITMAP
10
10
10
FE
10
10
10
10
10
10
10
10
10
10
10
ENDCHAR
STARTCHAR 2021
ENCODING 8225
SWIDTH 540 0
DWIDTH 9 0
BBX 7 15 1 -3
BITMAP
10
10
10
FE
10
10
10
10
10
10
10
FE
10
10
10
ENDCHAR
STARTCHAR 2022
ENCODING 8226
SWIDTH 360 0
DWIDTH 6 0
BBX 4 4 1 4
BITMAP
60
F0
F0
60
ENDCHAR
STARTCHAR 2026
ENCODING 8230
SWIDTH 1020 0
DWIDTH 17 0
BBX 11 1 2 0
BITMAP
8420
ENDCHAR
STARTCHAR 202A
ENCODING 8234
SWIDTH 0 0
DWIDTH 0 0
BBX 4 12 0 -2
BITMAP
F0
80
80
80
80
80
80
80
80
80
80
80
ENDCHAR
STARTCHAR 202B
ENCODING 8235
SWIDTH 0 0
DWIDTH 0 0
BBX 4 12 -3 -2
BITMAP
F0
10
10
10
10
10
10
10
10
10
10
10
ENDCHAR
STARTCHAR 202C
ENCODING 8236
SWIDTH 0 0
DWIDTH 0 0
BBX 5 14 -2 -2
BITMAP
F8
F8
F8
F8
20
20
20
20
20
20
20
20
20
20
ENDCHAR
STARTCHAR 202D
ENCODING 8237
SWIDTH 0 0
DWIDTH 0 0
BBX 5 14 -2 -2
BITMAP
F8
80
80
F8
20
20
20
20
20
20
20
20
20
20
ENDCHAR
STARTCHAR 202E
ENCODING 8238
SWIDTH 0 0
DWIDTH 0 0
BBX 5 14 -2 -2
BITMAP
F8
08
08
F8
20
20
20
20
20
20
20
20
20
20
ENDCHAR
STARTCHAR 2030
ENCODING 8240
SWIDTH 1020 0
DWIDTH 17 0
BBX 17 12 0 0
BITMAP
710000
890000
8A0000
8A0000
8A0000
740000
05C700
0A2880
0A2880
0A2880
122880
11C700
ENDCHAR
STARTCHAR 2032
ENCODING 8242
SWIDTH 180 0
DWIDTH 3 0
BBX 1 4 1 8
BITMAP
80
80
80
80
ENDCHAR
STARTCHAR 2033
ENCODING 8243
SWIDTH 360 0
DWIDTH 6 0
BBX 3 4 1 8
BITMAP
A0
A0
A0
A0
ENDCHAR
STARTCHAR 2039
ENCODING 8249
SWIDTH 360 0
DWIDTH 6 0
BBX 3 8 1 1
BITMAP
20
40
40
80
80
40
40
20
ENDCHAR
STARTCHAR 203A
ENCODING 8250
SWIDTH 360 0
DWIDTH 6 0
BBX 3 8 2 1
BITMAP
80
40
40
20
20
40
40
80
ENDCHAR
STARTCHAR 203C
ENCODING 8252
SWIDTH 540 0
DWIDTH 9 0
BBX 5 12 2 0
BITMAP
88
88
88
88
88
88
88
88
88
88
00
88
ENDCHAR
STARTCHAR 203E
ENCODING 8254
SWIDTH 360 0
DWIDTH 6 0
BBX 6 1 0 10
BITMAP
FC
ENDCHAR
STARTCHAR 2044
ENCODING 8260
SWIDTH 180 0
DWIDTH 3 0
BBX 9 13 -3 -1
BITMAP
0080
0100
0100
0200
0400
0400
0800
1000
1000
2000
4000
4000
8000
ENDCHAR
STARTCHAR 206A
ENCODING 8298
SWIDTH 0 0
DWIDTH 0 0
BBX 5 14 -2 -2
BITMAP
F8
20
20
F8
20
20
20
20
20
20
20
20
20
20
ENDCHAR
STARTCHAR 206B
ENCODING 8299
SWIDTH 0 0
DWIDTH 0 0
BBX 5 14 -2 -2
BITMAP
F8
88
88
F8
20
20
20
20
20
20
20
20
20
20
ENDCHAR
STARTCHAR 206C
ENCODING 8300
SWIDTH 0 0
DWIDTH 0 0
BBX 5 14 -2 -2
BITMAP
F8
70
20
20
20
20
20
20
20
20
20
20
20
20
ENDCHAR
STARTCHAR 206D
ENCODING 8301
SWIDTH 0 0
DWIDTH 0 0
BBX 5 14 -2 -2
BITMAP
20
20
70
F8
20
20
20
20
20
20
20
20
20
20
ENDCHAR
STARTCHAR 206E
ENCODING 8302
SWIDTH 0 0
DWIDTH 0 0
BBX 5 15 -2 -2
BITMAP
20
50
88
50
20
20
20
20
20
20
20
20
20
20
20
ENDCHAR
STARTCHAR 206F
ENCODING 8303
SWIDTH 0 0
DWIDTH 0 0
BBX 5 14 -2 -2
BITMAP
E0
20
20
F8
20
20
20
20
20
20
20
20
20
20
ENDCHAR
STARTCHAR 207F
ENCODING 8319
SWIDTH 360 0
DWIDTH 6 0
BBX 5 6 0 4
BITMAP
F0
88
88
88
88
88
ENDCHAR
STARTCHAR 20A3
ENCODING 8355
SWIDTH 540 0
DWIDTH 9 0
BBX 8 12 0 0
BITMAP
7F
40
40
40
40
40
7E
40
40
F8
40
40
ENDCHAR
STARTCHAR 20A4
ENCODING 8356
SWIDTH 540 0
DWIDTH 9 0
BBX 8 12 0 0
BITMAP
1C
22
41
40
40
F8
20
F8
20
40
71
8E
ENDCHAR
STARTCHAR 20A7
ENCODING 8359
SWIDTH 1140 0
DWIDTH 19 0
BBX 18 12 0 0
BITMAP
FC0000
824000
814000
81FF80
814840
825040
FC4C00
804380
804040
805040
805080
806F00
ENDCHAR
STARTCHAR 20AA
ENCODING 8362
SWIDTH 720 0
DWIDTH 12 0
BBX 10 9 1 0
BITMAP
FC40
8240
8240
9240
9240
9240
9040
9040
9F80
ENDCHAR
STARTCHAR 20AB
ENCODING 8363
SWIDTH 540 0
DWIDTH 9 0
BBX 7 10 1 2
BITMAP
1E
04
34
4C
84
84
4C
34
00
FE
ENDCHAR
STARTCHAR 20AC
ENCODING 8364
SWIDTH 540 0
DWIDTH 9 0
BBX 8 12 0 0
BITMAP
0F
31
40
40
FE
40
40
FE
40
40
21
1E
ENDCHAR
STARTCHAR 2105
ENCODING 8453
SWIDTH 900 0
DWIDTH 15 0
BBX 13 12 0 0
BITMAP
7080
8880
8100
8100
8200
8AF0
7508
0508
0908
0908
1108
10F0
ENDCHAR
STARTCHAR 2113
ENCODING 8467
SWIDTH 360 0
DWIDTH 6 0
BBX 4 12 0 0
BITMAP
30
50
50
50
60
60
40
C0
C0
40
50
70
ENDCHAR
STARTCHAR 2116
ENCODING 8470
SWIDTH 1080 0
DWIDTH 18 0
BBX 16 12 1 0
BITMAP
8080
C080
C09E
A0A1
90A1
88A1
88A1
84A1
829E
8180
80BF
8080
ENDCHAR
STARTCHAR 2122
ENCODING 8482
SWIDTH 1020 0
DWIDTH 17 0
BBX 13 7 2 5
BITMAP
FB18
2318
2338
22A8
22A8
22A8
2248
ENDCHAR
STARTCHAR 2126
ENCODING 8486
SWIDTH 780 0
DWIDTH 13 0
BBX 11 12 1 0
BITMAP
1F00
2080
4040
8020
8020
8020
8020
8020
4040
4040
3180
FBE0
ENDCHAR
STARTCHAR 212E
ENCODING 8494
SWIDTH 600 0
DWIDTH 10 0
BBX 9 9 1 0
BITMAP
3C00
4200
8100
8100
FF00
8000
8000
4180
3E00
ENDCHAR
STARTCHAR 2153
ENCODING 8531
SWIDTH 840 0
DWIDTH 14 0
BBX 13 12 1 0
BITMAP
2020
6040
A080
2100
2100
2200
0478
0888
0830
1008
2088
4070
ENDCHAR
STARTCHAR 2154
ENCODING 8532
SWIDTH 840 0
DWIDTH 14 0
BBX 14 12 0 0
BITMAP
7010
8820
0840
3080
4080
F900
023C
0444
0418
0804
1044
2038
ENDCHAR
STARTCHAR 215B
ENCODING 8539
SWIDTH 840 0
DWIDTH 14 0
BBX 13 13 1 0
BITMAP
2020
6040
A080
2100
2100
2200
0400
0470
0888
1070
1088
2088
4070
ENDCHAR
STARTCHAR 215C
ENCODING 8540
SWIDTH 840 0
DWIDTH 14 0
BBX 13 13 0 0
BITMAP
7810
8820
1040
0880
8880
7100
0200
0270
0488
0870
0888
1088
2070
ENDCHAR
STARTCHAR 215D
ENCODING 8541
SWIDTH 840 0
DWIDTH 14 0
BBX 13 13 1 0
BITMAP
7820
8040
F080
0900
8900
7200
0400
0470
0888
1070
1088
2088
4070
ENDCHAR
STARTCHAR 215E
ENCODING 8542
SWIDTH 840 0
DWIDTH 14 0
BBX 13 13 0 0
BITMAP
F020
2020
2040
2080
4080
4100
0200
0470
0488
0870
1088
1088
2070
ENDCHAR
STARTCHAR 2190
ENCODING 8592
SWIDTH 1020 0
DWIDTH 17 0
BBX 15 6 1 1
BITMAP
2000
6000
FFFE
4000
2000
1000
ENDCHAR
STARTCHAR 2191
ENCODING 8593
SWIDTH 540 0
DWIDTH 9 0
BBX 6 15 1 -4
BITMAP
10
30
78
94
10
10
10
10
10
10
10
10
10
10
10
ENDCHAR
STARTCHAR 2192
ENCODING 8594
SWIDTH 1020 0
DWIDTH 17 0
BBX 15 6 1 1
BITMAP
0008
000C
FFFE
0004
0008
0010
ENDCHAR
STARTCHAR 2193
ENCODING 8595
SWIDTH 540 0
DWIDTH 9 0
BBX 5 14 2 -3
BITMAP
20
20
20
20
20
20
20
20
20
20
20
B8
70
60
ENDCHAR
STARTCHAR 2194
ENCODING 8596
SWIDTH 1020 0
DWIDTH 17 0
BBX 15 6 1 1
BITMAP
2008
600C
FFFE
4004
2008
1010
ENDCHAR
STARTCHAR 2195
ENCODING 8597
SWIDTH 540 0
DWIDTH 9 0
BBX 6 15 1 -3
BITMAP
10
30
78
94
10
10
10
10
10
10
10
10
5C
38
30
ENDCHAR
STARTCHAR 21A8
ENCODING 8616
SWIDTH 540 0
DWIDTH 9 0
BBX 6 17 1 -5
BITMAP
10
30
78
94
10
10
10
10
10
10
10
10
5C
38
30
00
FC
ENDCHAR
STARTCHAR 2202
ENCODING 8706
SWIDTH 480 0
DWIDTH 8 0
BBX 8 12 0 0
BITMAP
0E
12
21
01
01
3F
41
81
82
82
84
78
ENDCHAR
STARTCHAR 2206
ENCODING 8710
SWIDTH 660 0
DWIDTH 11 0
BBX 9 11 0 0
BITMAP
0800
0800
1400
1400
2200
2200
6200
4100
4100
8080
FF80
ENDCHAR
STARTCHAR 220F
ENCODING 8719
SWIDTH 840 0
DWIDTH 14 0
BBX 12 15 1 -3
BITMAP
FFF0
8010
8010
8010
8010
8010
8010
8010
8010
8010
8010
8010
8010
8010
8010
ENDCHAR
STARTCHAR 2211
ENCODING 8721
SWIDTH 720 0
DWIDTH 12 0
BBX 10 15 1 -3
BITMAP
FFC0
8000
4000
2000
1000
0800
0800
0400
0800
1000
1000
2000
4000
8000
FFC0
ENDCHAR
STARTCHAR 2212
ENCODING 8722
SWIDTH 600 0
DWIDTH 10 0
BBX 8 1 1 5
BITMAP
FF
ENDCHAR
STARTCHAR 2215
ENCODING 8725
SWIDTH 180 0
DWIDTH 3 0
BBX 9 13 -3 -1
BITMAP
0080
0100
0100
0200
0400
0400
0800
1000
1000
2000
4000
4000
8000
ENDCHAR
STARTCHAR 2219
ENCODING 8729
SWIDTH 300 0
DWIDTH 5 0
BBX 1 1 2 5
BITMAP
80
ENDCHAR
STARTCHAR 221A
ENCODING 8730
SWIDTH 600 0
DWIDTH 10 0
BBX 9 16 1 0
BITMAP
0080
0080
0180
0100
0100
0100
0100
4100
A200
2200
1200
1200
0A00
0A00
0400
0400
ENDCHAR
STARTCHAR 221E
ENCODING 8734
SWIDTH 720 0
DWIDTH 12 0
BBX 9 5 1 4
BITMAP
6700
9880
8880
9880
6700
ENDCHAR
STARTCHAR 221F
ENCODING 8735
SWIDTH 1020 0
DWIDTH 17 0
BBX 11 11 3 0
BITMAP
8000
8000
8000
8000
8000
8000
8000
8000
8000
8000
FFE0
ENDCHAR
STARTCHAR 2229
ENCODING 8745
SWIDTH 720 0
DWIDTH 12 0
BBX 9 12 1 0
BITMAP
3E00
4100
8080
8080
8080
8080
8080
8080
8080
8080
8080
8080
ENDCHAR
STARTCHAR 222B
ENCODING 8747
SWIDTH 240 0
DWIDTH 4 0
BBX 4 18 0 -1
BITMAP
30
70
40
40
40
40
40
40
40
40
40
40
40
40
40
40
40
80
ENDCHAR
STARTCHAR 2248
ENCODING 8776
SWIDTH 540 0
DWIDTH 9 0
BBX 9 5 0 4
BITMAP
F080
8F00
0000
F080
8F00
ENDCHAR
STARTCHAR 2260
ENCODING 8800
SWIDTH 540 0
DWIDTH 9 0
BBX 7 12 1 0
BITMAP
04
04
08
08
FE
10
10
20
FE
20
40
40
ENDCHAR
STARTCHAR 2261
ENCODING 8801
SWIDTH 600 0
DWIDTH 10 0
BBX 8 9 1 1
BITMAP
FF
00
00
00
FF
00
00
00
FF
ENDCHAR
STARTCHAR 2264
ENCODING 8804
SWIDTH 540 0
DWIDTH 9 0
BBX 8 11 0 1
BITMAP
01
06
18
60
80
60
18
06
01
00
FF
ENDCHAR
STARTCHAR 2265
ENCODING 8805
SWIDTH 540 0
DWIDTH 9 0
BBX 8 11 0 1
BITMAP
80
60
18
06
01
06
18
60
80
00
FF
ENDCHAR
STARTCHAR 2302
ENCODING 8962
SWIDTH 600 0
DWIDTH 10 0
BBX 8 9 1 0
BITMAP
18
24
42
81
81
81
81
81
FF
ENDCHAR
STARTCHAR 2310
ENCODING 8976
SWIDTH 600 0
DWIDTH 10 0
BBX 8 5 1 4
BITMAP
FF
80
80
80
80
ENDCHAR
STARTCHAR 2320
ENCODING 8992
SWIDTH 600 0
DWIDTH 10 0
BBX 3 18 5 -4
BITMAP
E0
80
80
80
80
80
80
80
80
80
80
80
80
80
80
80
80
80
ENDCHAR
STARTCHAR 2321
ENCODING 8993
SWIDTH 600 0
DWIDTH 10 0
BBX 4 18 2 -4
BITMAP
10
10
10
10
10
10
10
10
10
10
10
10
10
10
10
10
20
E0
ENDCHAR
STARTCHAR 2500
ENCODING 9472
SWIDTH 720 0
DWIDTH 12 0
BBX 12 2 0 4
BITMAP
FFF0
FFF0
ENDCHAR
STARTCHAR 2502
ENCODING 9474
SWIDTH 660 0
DWIDTH 11 0
BBX 1 20 4 -5
BITMAP
80
80
80
80
80
80
80
80
80
80
80
80
80
80
80
80
80
80
80
80
ENDCHAR
STARTCHAR 250C
ENCODING 9484
SWIDTH 720 0
DWIDTH 12 0
BBX 7 11 5 -5
BITMAP
FE
FE
C0
C0
C0
C0
C0
C0
C0
C0
C0
ENDCHAR
STARTCHAR 2510
ENCODING 9488
SWIDTH 720 0
DWIDTH 12 0
BBX 7 11 0 -5
BITMAP
FE
FE
06
06
06
06
06
06
06
06
06
ENDCHAR
STARTCHAR 2514
ENCODING 9492
SWIDTH 720 0
DWIDTH 12 0
BBX 7 11 5 4
BITMAP
C0
C0
C0
C0
C0
C0
C0
C0
C0
FE
FE
ENDCHAR
STARTCHAR 2518
ENCODING 9496
SWIDTH 720 0
DWIDTH 12 0
BBX 7 11 0 4
BITMAP
06
06
06
06
06
06
06
06
06
FE
FE
ENDCHAR
STARTCHAR 251C
ENCODING 9500
SWIDTH 720 0
DWIDTH 12 0
BBX 7 20 5 -5
BITMAP
C0
C0
C0
C0
C0
C0
C0
C0
C0
FE
FE
C0
C0
C0
C0
C0
C0
C0
C0
C0
ENDCHAR
STARTCHAR 2524
ENCODING 9508
SWIDTH 720 0
DWIDTH 12 0
BBX 7 20 0 -5
BITMAP
06
06
06
06
06
06
06
06
06
FE
FE
06
06
06
06
06
06
06
06
06
ENDCHAR
STARTCHAR 252C
ENCODING 9516
SWIDTH 720 0
DWIDTH 12 0
BBX 12 11 0 -5
BITMAP
FFF0
FFF0
0600
0600
0600
0600
0600
0600
0600
0600
0600
ENDCHAR
STARTCHAR 2534
ENCODING 9524
SWIDTH 720 0
DWIDTH 12 0
BBX 12 11 0 4
BITMAP
0600
0600
0600
0600
0600
0600
0600
0600
0600
FFF0
FFF0
ENDCHAR
STARTCHAR 253C
ENCODING 9532
SWIDTH 720 0
DWIDTH 12 0
BBX 12 20 0 -5
BITMAP
0600
0600
0600
0600
0600
0600
0600
0600
0600
FFF0
FFF0
0600
0600
0600
0600
0600
0600
0600
0600
0600
ENDCHAR
STARTCHAR 2550
ENCODING 9552
SWIDTH 720 0
DWIDTH 12 0
BBX 12 4 0 3
BITMAP
FFF0
0000
0000
FFF0
ENDCHAR
STARTCHAR 2551
ENCODING 9553
SWIDTH 720 0
DWIDTH 12 0
BBX 4 20 4 -5
BITMAP
90
90
90
90
90
90
90
90
90
90
90
90
90
90
90
90
90
90
90
90
ENDCHAR
STARTCHAR 2552
ENCODING 9554
SWIDTH 720 0
DWIDTH 12 0
BBX 7 12 5 -5
BITMAP
FE
C0
C0
FE
C0
C0
C0
C0
C0
C0
C0
C0
ENDCHAR
STARTCHAR 2553
ENCODING 9555
SWIDTH 720 0
DWIDTH 12 0
BBX 8 11 4 -5
BITMAP
FF
FF
90
90
90
90
90
90
90
90
90
ENDCHAR
STARTCHAR 2554
ENCODING 9556
SWIDTH 720 0
DWIDTH 12 0
BBX 8 12 4 -5
BITMAP
FF
80
80
9F
90
90
90
90
90
90
90
90
ENDCHAR
STARTCHAR 2555
ENCODING 9557
SWIDTH 720 0
DWIDTH 12 0
BBX 7 12 0 -5
BITMAP
FE
06
06
FE
06
06
06
06
06
06
06
06
ENDCHAR
STARTCHAR 2556
ENCODING 9558
SWIDTH 720 0
DWIDTH 12 0
BBX 8 11 0 -5
BITMAP
FF
FF
09
09
09
09
09
09
09
09
09
ENDCHAR
STARTCHAR 2557
ENCODING 9559
SWIDTH 720 0
DWIDTH 12 0
BBX 8 12 0 -5
BITMAP
FF
01
01
F9
09
09
09
09
09
09
09
09
ENDCHAR
STARTCHAR 2558
ENCODING 9560
SWIDTH 720 0
DWIDTH 12 0
BBX 7 12 5 3
BITMAP
C0
C0
C0
C0
C0
C0
C0
C0
FE
C0
C0
FE
ENDCHAR
STARTCHAR 2559
ENCODING 9561
SWIDTH 720 0
DWIDTH 12 0
BBX 8 11 4 4
BITMAP
90
90
90
90
90
90
90
90
90
FF
FF
ENDCHAR
STARTCHAR 255A
ENCODING 9562
SWIDTH 720 0
DWIDTH 12 0
BBX 8 12 4 3
BITMAP
90
90
90
90
90
90
90
90
9F
80
80
FF
ENDCHAR
STARTCHAR 255B
ENCODING 9563
SWIDTH 720 0
DWIDTH 12 0
BBX 7 12 0 3
BITMAP
06
06
06
06
06
06
06
06
FE
06
06
FE
ENDCHAR
STARTCHAR 255C
ENCODING 9564
SWIDTH 720 0
DWIDTH 12 0
BBX 8 11 0 4
BITMAP
09
09
09
09
09
09
09
09
09
FF
FF
ENDCHAR
STARTCHAR 255D
ENCODING 9565
SWIDTH 720 0
DWIDTH 12 0
BBX 8 12 0 3
BITMAP
09
09
09
09
09
09
09
09
F9
01
01
FF
ENDCHAR
STARTCHAR 255E
ENCODING 9566
SWIDTH 720 0
DWIDTH 12 0
BBX 7 20 5 -5
BITMAP
C0
C0
C0
C0
C0
C0
C0
C0
FE
C0
C0
FE
C0
C0
C0
C0
C0
C0
C0
C0
ENDCHAR
STARTCHAR 255F
ENCODING 9567
SWIDTH 720 0
DWIDTH 12 0
BBX 8 20 4 -5
BITMAP
90
90
90
90
90
90
90
90
90
9F
9F
90
90
90
90
90
90
90
90
90
ENDCHAR
STARTCHAR 2560
ENCODING 9568
SWIDTH 720 0
DWIDTH 12 0
BBX 8 20 4 -5
BITMAP
90
90
90
90
90
90
90
90
9F
80
80
9F
90
90
90
90
90
90
90
90
ENDCHAR
STARTCHAR 2561
ENCODING 9569
SWIDTH 720 0
DWIDTH 12 0
BBX 7 20 0 -5
BITMAP
06
06
06
06
06
06
06
06
FE
06
06
FE
06
06
06
06
06
06
06
06
ENDCHAR
STARTCHAR 2562
ENCODING 9570
SWIDTH 720 0
DWIDTH 12 0
BBX 8 20 0 -5
BITMAP
09
09
09
09
09
09
09
09
09
F9
F9
09
09
09
09
09
09
09
09
09
ENDCHAR
STARTCHAR 2563
ENCODING 9571
SWIDTH 720 0
DWIDTH 12 0
BBX 8 20 0 -5
BITMAP
09
09
09
09
09
09
09
09
F9
01
01
F9
09
09
09
09
09
09
09
09
ENDCHAR
STARTCHAR 2564
ENCODING 9572
SWIDTH 720 0
DWIDTH 12 0
BBX 12 12 0 -5
BITMAP
FFF0
0000
0000
FFF0
0600
0600
0600
0600
0600
0600
0600
0600
ENDCHAR
STARTCHAR 2565
ENCODING 9573
SWIDTH 720 0
DWIDTH 12 0
BBX 12 11 0 -5
BITMAP
FFF0
FFF0
0900
0900
0900
0900
0900
0900
0900
0900
0900
ENDCHAR
STARTCHAR 2566
ENCODING 9574
SWIDTH 720 0
DWIDTH 12 0
BBX 12 12 0 -5
BITMAP
FFF0
0000
0000
F9F0
0900
0900
0900
0900
0900
0900
0900
0900
ENDCHAR
STARTCHAR 2567
ENCODING 9575
SWIDTH 720 0
DWIDTH 12 0
BBX 12 12 0 3
BITMAP
0600
0600
0600
0600
0600
0600
0600
0600
FFF0
0000
0000
FFF0
ENDCHAR
STARTCHAR 2568
ENCODING 9576
SWIDTH 720 0
DWIDTH 12 0
BBX 12 11 0 4
BITMAP
0900
0900
0900
0900
0900
0900
0900
0900
0900
FFF0
FFF0
ENDCHAR
STARTCHAR 2569
ENCODING 9577
SWIDTH 720 0
DWIDTH 12 0
BBX 12 12 0 3
BITMAP
0900
0900
0900
0900
0900
0900
0900
0900
F9F0
0000
0000
FFF0
ENDCHAR
STARTCHAR 256A
ENCODING 9578
SWIDTH 720 0
DWIDTH 12 0
BBX 12 20 0 -5
BITMAP
0600
0600
0600
0600
0600
0600
0600
0600
FFF0
0600
0600
FFF0
0600
0600
0600
0600
0600
0600
0600
0600
ENDCHAR
STARTCHAR 256B
ENCODING 9579
SWIDTH 720 0
DWIDTH 12 0
BBX 12 20 0 -5
BITMAP
0900
0900
0900
0900
0900
0900
0900
0900
0900
FFF0
FFF0
0900
0900
0900
0900
0900
0900
0900
0900
0900
ENDCHAR
STARTCHAR 256C
ENCODING 9580
SWIDTH 720 0
DWIDTH 12 0
BBX 12 20 0 -5
BITMAP
0900
0900
0900
0900
0900
0900
0900
0900
F9F0
0000
0000
F9F0
0900
0900
0900
0900
0900
0900
0900
0900
ENDCHAR
STARTCHAR 2580
ENCODING 9600
SWIDTH 720 0
DWIDTH 12 0
BBX 12 10 0 5
BITMAP
FFF0
FFF0
FFF0
FFF0
FFF0
FFF0
FFF0
FFF0
FFF0
FFF0
ENDCHAR
STARTCHAR 2584
ENCODING 9604
SWIDTH 720 0
DWIDTH 12 0
BBX 12 10 0 -5
BITMAP
FFF0
FFF0
FFF0
FFF0
FFF0
FFF0
FFF0
FFF0
FFF0
FFF0
ENDCHAR
STARTCHAR 2588
ENCODING 9608
SWIDTH 720 0
DWIDTH 12 0
BBX 12 20 0 -5
BITMAP
FFF0
FFF0
FFF0
FFF0
FFF0
FFF0
FFF0
FFF0
FFF0
FFF0
FFF0
FFF0
FFF0
FFF0
FFF0
FFF0
FFF0
FFF0
FFF0
FFF0
ENDCHAR
STARTCHAR 258C
ENCODING 9612
SWIDTH 720 0
DWIDTH 12 0
BBX 6 20 0 -5
BITMAP
FC
FC
FC
FC
FC
FC
FC
FC
FC
FC
FC
FC
FC
FC
FC
FC
FC
FC
FC
FC
ENDCHAR
STARTCHAR 2590
ENCODING 9616
SWIDTH 720 0
DWIDTH 12 0
BBX 6 20 6 -5
BITMAP
FC
FC
FC
FC
FC
FC
FC
FC
FC
FC
FC
FC
FC
FC
FC
FC
FC
FC
FC
FC
ENDCHAR
STARTCHAR 2591
ENCODING 9617
SWIDTH 720 0
DWIDTH 12 0
BBX 11 19 1 -4
BITMAP
8880
0000
2220
0000
8880
0000
2220
0000
8880
0000
2220
0000
8880
0000
2220
0000
8880
0000
2220
ENDCHAR
STARTCHAR 2592
ENCODING 9618
SWIDTH 720 0
DWIDTH 12 0
BBX 12 19 0 -4
BITMAP
5550
0000
AAA0
0000
5550
0000
AAA0
0000
5550
0000
AAA0
0000
5550
0000
AAA0
0000
5550
0000
AAA0
ENDCHAR
STARTCHAR 2593
ENCODING 9619
SWIDTH 720 0
DWIDTH 12 0
BBX 12 20 0 -5
BITMAP
5550
FFF0
AAA0
FFF0
5550
FFF0
AAA0
FFF0
5550
FFF0
AAA0
FFF0
5550
FFF0
AAA0
FFF0
5550
FFF0
AAA0
FFF0
ENDCHAR
STARTCHAR 25A0
ENCODING 9632
SWIDTH 600 0
DWIDTH 10 0
BBX 8 8 1 0
BITMAP
FF
FF
FF
FF
FF
FF
FF
FF
ENDCHAR
STARTCHAR 25A1
ENCODING 9633
SWIDTH 600 0
DWIDTH 10 0
BBX 8 8 1 0
BITMAP
FF
81
81
81
81
81
81
FF
ENDCHAR
STARTCHAR 25AA
ENCODING 9642
SWIDTH 360 0
DWIDTH 6 0
BBX 4 4 1 4
BITMAP
F0
F0
F0
F0
ENDCHAR
STARTCHAR 25AB
ENCODING 9643
SWIDTH 360 0
DWIDTH 6 0
BBX 4 5 1 3
BITMAP
F0
90
90
90
60
ENDCHAR
STARTCHAR 25AC
ENCODING 9644
SWIDTH 1020 0
DWIDTH 17 0
BBX 17 3 0 3
BITMAP
FFFF80
FFFF80
FFFF80
ENDCHAR
STARTCHAR 25B2
ENCODING 9650
SWIDTH 1020 0
DWIDTH 17 0
BBX 11 12 3 0
BITMAP
0400
0400
0E00
0E00
1F00
1F00
3F80
3F80
7FC0
7FC0
FFE0
FFE0
ENDCHAR
STARTCHAR 25BA
ENCODING 9658
SWIDTH 1020 0
DWIDTH 17 0
BBX 12 12 2 0
BITMAP
8000
E000
F800
FE00
FF80
FFE0
FFF0
FFC0
FF00
FC00
F000
C000
ENDCHAR
STARTCHAR 25BC
ENCODING 9660
SWIDTH 1020 0
DWIDTH 17 0
BBX 11 12 3 0
BITMAP
FFE0
FFE0
7FC0
7FC0
3F80
3F80
1F00
1F00
0E00
0E00
0400
0400
ENDCHAR
STARTCHAR 25C4
ENCODING 9668
SWIDTH 1020 0
DWIDTH 17 0
BBX 11 11 3 0
BITMAP
0060
01E0
07E0
1FE0
7FE0
FFE0
3FE0
0FE0
03E0
00E0
0020
ENDCHAR
STARTCHAR 25CA
ENCODING 9674
SWIDTH 480 0
DWIDTH 8 0
BBX 8 12 0 0
BITMAP
18
18
24
44
42
81
81
42
44
24
18
18
ENDCHAR
STARTCHAR 25CB
ENCODING 9675
SWIDTH 600 0
DWIDTH 10 0
BBX 8 7 1 1
BITMAP
3E
42
81
81
81
42
3C
ENDCHAR
STARTCHAR 25CF
ENCODING 9679
SWIDTH 600 0
DWIDTH 10 0
BBX 8 7 1 1
BITMAP
3E
7E
7F
FF
7F
7E
1C
ENDCHAR
STARTCHAR 25D8
ENCODING 9688
SWIDTH 600 0
DWIDTH 10 0
BBX 8 8 1 0
BITMAP
FF
FF
E7
E3
E3
F7
FF
FF
ENDCHAR
STARTCHAR 25D9
ENCODING 9689
SWIDTH 600 0
DWIDTH 10 0
BBX 10 10 0 0
BITMAP
FFC0
FFC0
ECC0
DFC0
FF40
BF40
FF40
DEC0
F1C0
FFC0
ENDCHAR
STARTCHAR 25E6
ENCODING 9702
SWIDTH 360 0
DWIDTH 6 0
BBX 4 5 1 3
BITMAP
60
90
90
90
60
ENDCHAR
STARTCHAR 263A
ENCODING 9786
SWIDTH 1020 0
DWIDTH 17 0
BBX 11 11 3 -1
BITMAP
0600
3980
4040
4020
9120
8020
8020
5120
4E40
2080
1F00
ENDCHAR
STARTCHAR 263B
ENCODING 9787
SWIDTH 1080 0
DWIDTH 18 0
BBX 10 11 4 -1
BITMAP
0C00
3F00
7F80
FFC0
CCC0
FFC0
FFC0
FFC0
E380
7F80
1E00
ENDCHAR
STARTCHAR 263C
ENCODING 9788
SWIDTH 960 0
DWIDTH 16 0
BBX 14 15 1 -2
BITMAP
0200
4208
2310
1CE0
2020
2020
2010
E01C
2020
2020
1060
2F90
4208
0200
0200
ENDCHAR
STARTCHAR 2640
ENCODING 9792
SWIDTH 780 0
DWIDTH 13 0
BBX 9 17 2 -4
BITMAP
0800
7600
8100
8080
0080
8080
8100
4100
2200
1C00
0800
0800
0800
7E00
0800
0800
0800
ENDCHAR
STARTCHAR 2642
ENCODING 9794
SWIDTH 780 0
DWIDTH 13 0
BBX 12 16 0 -3
BITMAP
00E0
0360
00A0
00A0
0110
0100
0600
3900
4080
4080
8040
8040
4080
4080
3100
0E00
ENDCHAR
STARTCHAR 2660
ENCODING 9824
SWIDTH 540 0
DWIDTH 9 0
BBX 8 10 1 0
BITMAP
10
10
38
7C
FE
FF
FE
D6
10
3C
ENDCHAR
STARTCHAR 2663
ENCODING 9827
SWIDTH 660 0
DWIDTH 11 0
BBX 11 10 0 0
BITMAP
0E00
1F00
1F00
7FC0
7FE0
FFE0
7FC0
3580
0400
1F00
ENDCHAR
STARTCHAR 2665
ENCODING 9829
SWIDTH 600 0
DWIDTH 10 0
BBX 9 9 1 1
BITMAP
E700
FF80
FF80
FF00
7F00
7E00
3C00
1800
1800
ENDCHAR
STARTCHAR 2666
ENCODING 9830
SWIDTH 540 0
DWIDTH 9 0
BBX 7 10 1 0
BITMAP
10
30
38
7C
FE
FE
7C
38
30
10
ENDCHAR
STARTCHAR 266A
ENCODING 9834
SWIDTH 540 0
DWIDTH 9 0
BBX 8 11 0 0
BITMAP
0E
0F
09
09
08
08
08
28
78
F8
70
ENDCHAR
STARTCHAR 266B
ENCODING 9835
SWIDTH 780 0
DWIDTH 13 0
BBX 10 13 1 -1
BITMAP
03C0
1FC0
1E40
1040
1040
1040
1040
1140
13C0
77C0
F3C0
F000
E000
ENDCHAR
STARTCHAR E801
ENCODING 59393
SWIDTH 180 0
DWIDTH 3 0
BBX 2 11 0 0
BITMAP
80
00
40
40
40
40
40
40
40
40
40
ENDCHAR
STARTCHAR E802
ENCODING 59394
SWIDTH 540 0
DWIDTH 9 0
BBX 8 12 0 -3
BITMAP
FC
02
01
01
01
01
11
01
11
01
01
01
ENDCHAR
STARTCHAR E803
ENCODING 59395
SWIDTH 540 0
DWIDTH 9 0
BBX 8 12 0 -3
BITMAP
FC
02
01
01
01
01
39
11
01
01
01
01
ENDCHAR
STARTCHAR E804
ENCODING 59396
SWIDTH 480 0
DWIDTH 8 0
BBX 8 12 -1 0
BITMAP
20
A0
20
3F
01
01
01
03
04
04
04
04
ENDCHAR
STARTCHAR E805
ENCODING 59397
SWIDTH 480 0
DWIDTH 8 0
BBX 8 12 -1 0
BITMAP
20
A0
20
3F
01
01
09
03
04
04
04
04
ENDCHAR
STARTCHAR E818
ENCODING 59416
SWIDTH 240 0
DWIDTH 4 0
BBX 5 7 0 10
BITMAP
10
60
10
60
08
B8
C0
ENDCHAR
STARTCHAR E83A
ENCODING 59450
SWIDTH 660 0
DWIDTH 11 0
BBX 12 1 -1 2
BITMAP
FFF0
ENDCHAR
STARTCHAR F001
ENCODING 61441
SWIDTH 540 0
DWIDTH 9 0
BBX 8 12 0 0
BITMAP
39
40
40
F1
41
41
41
41
41
41
41
41
ENDCHAR
STARTCHAR F002
ENCODING 61442
SWIDTH 540 0
DWIDTH 9 0
BBX 8 12 0 0
BITMAP
39
41
41
F1
41
41
41
41
41
41
41
41
ENDCHAR
STARTCHAR F004
ENCODING 61444
SWIDTH 360 0
DWIDTH 6 0
BBX 1 3 2 -4
BITMAP
80
80
80
ENDCHAR
STARTCHAR F005
ENCODING 61445
SWIDTH 360 0
DWIDTH 6 0
BBX 3 3 1 -4
BITMAP
60
20
E0
ENDCHAR
STARTCHAR F006
ENCODING 61446
SWIDTH 0 0
DWIDTH 0 0
BBX 2 2 -4 13
BITMAP
40
80
ENDCHAR
STARTCHAR F007
ENCODING 61447
SWIDTH 0 0
DWIDTH 0 0
BBX 2 2 -7 13
BITMAP
40
80
ENDCHAR
STARTCHAR F008
ENCODING 61448
SWIDTH 0 0
DWIDTH 0 0
BBX 2 2 -3 10
BITMAP
40
80
ENDCHAR
STARTCHAR F009
ENCODING 61449
SWIDTH 0 0
DWIDTH 0 0
BBX 2 2 -5 13
BITMAP
40
80
ENDCHAR
STARTCHAR F00A
ENCODING 61450
SWIDTH 0 0
DWIDTH 0 0
BBX 1 19 0 -4
BITMAP
80
80
80
80
80
80
80
80
00
00
00
80
80
80
80
80
80
80
80
ENDCHAR
STARTCHAR F00B
ENCODING 61451
SWIDTH 0 0
DWIDTH 0 0
BBX 5 19 -2 -4
BITMAP
F8
20
20
20
20
20
20
20
20
20
20
20
20
20
20
20
20
20
F8
ENDCHAR
STARTCHAR F00C
ENCODING 61452
SWIDTH 0 0
DWIDTH 0 0
BBX 3 19 0 -4
BITMAP
80
E0
C0
80
80
80
80
80
80
80
80
80
80
80
80
80
80
80
80
ENDCHAR
STARTCHAR F00D
ENCODING 61453
SWIDTH 0 0
DWIDTH 0 0
BBX 3 19 -2 -4
BITMAP
20
E0
60
20
20
20
20
20
20
20
20
20
20
20
20
20
20
20
20
ENDCHAR
STARTCHAR F00E
ENCODING 61454
SWIDTH 0 0
DWIDTH 0 0
BBX 3 19 0 -4
BITMAP
80
80
80
80
80
80
80
80
80
80
80
80
80
80
80
80
80
80
E0
ENDCHAR
STARTCHAR F00F
ENCODING 61455
SWIDTH 0 0
DWIDTH 0 0
BBX 2 2 -6 10
BITMAP
80
40
ENDCHAR
STARTCHAR F010
ENCODING 61456
SWIDTH 0 0
DWIDTH 0 0
BBX 3 2 -4 13
BITMAP
E0
40
ENDCHAR
STARTCHAR F011
ENCODING 61457
SWIDTH 0 0
DWIDTH 0 0
BBX 3 2 -7 13
BITMAP
E0
40
ENDCHAR
STARTCHAR F012
ENCODING 61458
SWIDTH 0 0
DWIDTH 0 0
BBX 3 3 -3 10
BITMAP
E0
20
40
ENDCHAR
STARTCHAR F013
ENCODING 61459
SWIDTH 0 0
DWIDTH 0 0
BBX 3 2 -6 13
BITMAP
E0
40
ENDCHAR
STARTCHAR F014
ENCODING 61460
SWIDTH 0 0
DWIDTH 0 0
BBX 3 3 -6 10
BITMAP
E0
20
40
ENDCHAR
STARTCHAR F015
ENCODING 61461
SWIDTH 0 0
DWIDTH 0 0
BBX 6 2 -9 13
BITMAP
64
98
ENDCHAR
STARTCHAR F016
ENCODING 61462
SWIDTH 0 0
DWIDTH 0 0
BBX 5 2 -9 13
BITMAP
68
90
ENDCHAR
STARTCHAR F017
ENCODING 61463
SWIDTH 0 0
DWIDTH 0 0
BBX 5 2 -11 13
BITMAP
68
90
ENDCHAR
STARTCHAR F018
ENCODING 61464
SWIDTH 0 0
DWIDTH 0 0
BBX 5 2 -11 13
BITMAP
68
90
ENDCHAR
STARTCHAR F019
ENCODING 61465
SWIDTH 0 0
DWIDTH 0 0
BBX 5 2 -7 10
BITMAP
68
90
ENDCHAR
STARTCHAR F01A
ENCODING 61466
SWIDTH 0 0
DWIDTH 0 0
BBX 5 2 -9 10
BITMAP
68
90
ENDCHAR
STARTCHAR F01B
ENCODING 61467
SWIDTH 0 0
DWIDTH 0 0
BBX 5 2 -10 10
BITMAP
68
90
ENDCHAR
STARTCHAR F01C
ENCODING 61468
SWIDTH 0 0
DWIDTH 0 0
BBX 5 2 -5 13
BITMAP
68
90
ENDCHAR
STARTCHAR F01D
ENCODING 61469
SWIDTH 0 0
DWIDTH 0 0
BBX 5 2 -5 10
BITMAP
68
90
ENDCHAR
STARTCHAR F01E
ENCODING 61470
SWIDTH 0 0
DWIDTH 0 0
BBX 1 1 -6 -2
BITMAP
80
ENDCHAR
STARTCHAR F01F
ENCODING 61471
SWIDTH 0 0
DWIDTH 0 0
BBX 1 1 -7 -2
BITMAP
80
ENDCHAR
STARTCHAR F020
ENCODING 61472
SWIDTH 0 0
DWIDTH 0 0
BBX 1 1 -9 -2
BITMAP
80
ENDCHAR
STARTCHAR F021
ENCODING 61473
SWIDTH 0 0
DWIDTH 0 0
BBX 1 1 -7 -2
BITMAP
80
ENDCHAR
STARTCHAR F022
ENCODING 61474
SWIDTH 0 0
DWIDTH 0 0
BBX 1 1 -9 -2
BITMAP
80
ENDCHAR
STARTCHAR F023
ENCODING 61475
SWIDTH 0 0
DWIDTH 0 0
BBX 1 1 -5 -2
BITMAP
80
ENDCHAR
STARTCHAR F024
ENCODING 61476
SWIDTH 0 0
DWIDTH 0 0
BBX 1 1 -5 -2
BITMAP
80
ENDCHAR
STARTCHAR F025
ENCODING 61477
SWIDTH 0 0
DWIDTH 0 0
BBX 1 1 -6 -2
BITMAP
80
ENDCHAR
STARTCHAR F026
ENCODING 61478
SWIDTH 0 0
DWIDTH 0 0
BBX 1 1 -7 -2
BITMAP
80
ENDCHAR
STARTCHAR F027
ENCODING 61479
SWIDTH 0 0
DWIDTH 0 0
BBX 1 1 -6 -2
BITMAP
80
ENDCHAR
STARTCHAR F028
ENCODING 61480
SWIDTH 0 0
DWIDTH 0 0
BBX 1 1 -8 -2
BITMAP
80
ENDCHAR
STARTCHAR F029
ENCODING 61481
SWIDTH 0 0
DWIDTH 0 0
BBX 1 1 -3 -2
BITMAP
80
ENDCHAR
STARTCHAR F02A
ENCODING 61482
SWIDTH 0 0
DWIDTH 0 0
BBX 1 1 -3 -2
BITMAP
80
ENDCHAR
STARTCHAR F02B
ENCODING 61483
SWIDTH 0 0
DWIDTH 0 0
BBX 1 1 -6 -2
BITMAP
80
ENDCHAR
STARTCHAR F02C
ENCODING 61484
SWIDTH 0 0
DWIDTH 0 0
BBX 1 1 -2 -2
BITMAP
80
ENDCHAR
STARTCHAR F02D
ENCODING 61485
SWIDTH 0 0
DWIDTH 0 0
BBX 6 2 -9 13
BITMAP
64
98
ENDCHAR
STARTCHAR F02E
ENCODING 61486
SWIDTH 0 0
DWIDTH 0 0
BBX 5 2 -8 13
BITMAP
68
90
ENDCHAR
STARTCHAR F02F
ENCODING 61487
SWIDTH 0 0
DWIDTH 0 0
BBX 6 2 -10 13
BITMAP
64
98
ENDCHAR
STARTCHAR F030
ENCODING 61488
SWIDTH 0 0
DWIDTH 0 0
BBX 5 2 -9 13
BITMAP
68
90
ENDCHAR
STARTCHAR F031
ENCODING 61489
SWIDTH 240 0
DWIDTH 4 0
BBX 1 9 1 0
BITMAP
80
80
80
80
80
80
80
80
80
ENDCHAR
STARTCHAR FB01
ENCODING 64257
SWIDTH 540 0
DWIDTH 9 0
BBX 8 12 0 0
BITMAP
39
40
40
F1
41
41
41
41
41
41
41
41
ENDCHAR
STARTCHAR FB02
ENCODING 64258
SWIDTH 540 0
DWIDTH 9 0
BBX 8 12 0 0
BITMAP
39
41
41
F1
41
41
41
41
41
41
41
41
ENDCHAR
STARTCHAR FB1D
ENCODING 64285
SWIDTH 180 0
DWIDTH 3 0
BBX 1 7 1 2
BITMAP
80
80
80
80
80
00
80
ENDCHAR
STARTCHAR FB1E
ENCODING 64286
SWIDTH 0 0
DWIDTH 0 0
BBX 5 2 -2 10
BITMAP
88
70
ENDCHAR
STARTCHAR FB1F
ENCODING 64287
SWIDTH 420 0
DWIDTH 7 0
BBX 5 7 1 2
BITMAP
88
88
88
88
88
00
F8
ENDCHAR
STARTCHAR FB20
ENCODING 64288
SWIDTH 540 0
DWIDTH 9 0
BBX 8 9 0 0
BITMAP
41
41
21
21
21
12
12
14
F8
ENDCHAR
STARTCHAR FB2A
ENCODING 64298
SWIDTH 720 0
DWIDTH 12 0
BBX 10 11 1 0
BITMAP
0040
0000
8840
8840
8840
8840
F040
4080
4080
2100
1E00
ENDCHAR
STARTCHAR FB2B
ENCODING 64299
SWIDTH 720 0
DWIDTH 12 0
BBX 10 11 1 0
BITMAP
8000
0000
8840
8840
8840
8840
F040
4080
4080
2100
1E00
ENDCHAR
STARTCHAR FB2C
ENCODING 64300
SWIDTH 720 0
DWIDTH 12 0
BBX 10 11 1 0
BITMAP
0040
0000
8840
8840
8840
8840
F040
4480
4080
2100
1E00
ENDCHAR
STARTCHAR FB2D
ENCODING 64301
SWIDTH 720 0
DWIDTH 12 0
BBX 10 11 1 0
BITMAP
8000
0000
8840
8840
8840
8840
F040
4480
4080
2100
1E00
ENDCHAR
STARTCHAR FB2E
ENCODING 64302
SWIDTH 600 0
DWIDTH 10 0
BBX 8 12 1 -3
BITMAP
81
41
21
12
7C
88
84
82
81
00
00
1C
ENDCHAR
STARTCHAR FB2F
ENCODING 64303
SWIDTH 600 0
DWIDTH 10 0
BBX 8 13 1 -4
BITMAP
81
41
21
12
7C
88
84
82
81
00
00
1C
08
ENDCHAR
STARTCHAR FB30
ENCODING 64304
SWIDTH 600 0
DWIDTH 10 0
BBX 8 9 1 0
BITMAP
81
41
21
12
7C
88
84
92
81
ENDCHAR
STARTCHAR FB31
ENCODING 64305
SWIDTH 540 0
DWIDTH 9 0
BBX 7 9 1 0
BITMAP
F0
08
04
04
24
04
04
04
FE
ENDCHAR
STARTCHAR FB32
ENCODING 64306
SWIDTH 420 0
DWIDTH 7 0
BBX 5 9 1 0
BITMAP
70
08
08
28
08
38
48
88
88
ENDCHAR
STARTCHAR FB33
ENCODING 64307
SWIDTH 540 0
DWIDTH 9 0
BBX 7 9 1 0
BITMAP
FE
08
08
28
08
08
08
08
08
ENDCHAR
STARTCHAR FB34
ENCODING 64308
SWIDTH 600 0
DWIDTH 10 0
BBX 8 9 1 0
BITMAP
FC
02
01
01
89
81
81
81
81
ENDCHAR
STARTCHAR FB35
ENCODING 64309
SWIDTH 300 0
DWIDTH 5 0
BBX 3 9 1 0
BITMAP
20
20
20
A0
20
20
20
20
20
ENDCHAR
STARTCHAR FB36
ENCODING 64310
SWIDTH 420 0
DWIDTH 7 0
BBX 7 9 0 0
BITMAP
7E
08
10
90
10
10
10
10
10
ENDCHAR
STARTCHAR FB38
ENCODING 64312
SWIDTH 600 0
DWIDTH 10 0
BBX 8 9 1 0
BITMAP
8E
81
81
81
89
81
81
42
3C
ENDCHAR
STARTCHAR FB39
ENCODING 64313
SWIDTH 300 0
DWIDTH 5 0
BBX 3 5 1 4
BITMAP
20
20
A0
20
20
ENDCHAR
STARTCHAR FB3A
ENCODING 64314
SWIDTH 540 0
DWIDTH 9 0
BBX 8 12 0 -3
BITMAP
FC
02
01
01
11
01
01
01
01
01
01
01
ENDCHAR
STARTCHAR FB3B
ENCODING 64315
SWIDTH 480 0
DWIDTH 8 0
BBX 6 9 1 0
BITMAP
F0
08
04
04
24
04
04
08
F0
ENDCHAR
STARTCHAR FB3C
ENCODING 64316
SWIDTH 480 0
DWIDTH 8 0
BBX 6 12 1 0
BITMAP
80
80
80
FC
04
04
24
0C
10
10
10
10
ENDCHAR
STARTCHAR FB3E
ENCODING 64318
SWIDTH 600 0
DWIDTH 10 0
BBX 8 9 1 0
BITMAP
9C
A2
61
41
49
41
81
81
9F
ENDCHAR
STARTCHAR FB40
ENCODING 64320
SWIDTH 360 0
DWIDTH 6 0
BBX 4 9 1 0
BITMAP
E0
10
10
10
50
10
10
10
F0
ENDCHAR
STARTCHAR FB41
ENCODING 64321
SWIDTH 600 0
DWIDTH 10 0
BBX 8 9 1 0
BITMAP
3C
42
81
81
89
81
81
42
3C
ENDCHAR
STARTCHAR FB43
ENCODING 64323
SWIDTH 600 0
DWIDTH 10 0
BBX 8 12 1 -3
BITMAP
FC
82
81
81
81
69
01
01
01
01
01
01
ENDCHAR
STARTCHAR FB44
ENCODING 64324
SWIDTH 540 0
DWIDTH 9 0
BBX 7 9 1 0
BITMAP
F8
84
82
82
D2
02
02
84
78
ENDCHAR
STARTCHAR FB46
ENCODING 64326
SWIDTH 480 0
DWIDTH 8 0
BBX 7 9 0 0
BITMAP
82
42
22
24
98
08
08
04
FE
ENDCHAR
STARTCHAR FB47
ENCODING 64327
SWIDTH 540 0
DWIDTH 9 0
BBX 7 12 1 -3
BITMAP
FE
02
02
22
86
88
88
88
88
80
80
80
ENDCHAR
STARTCHAR FB48
ENCODING 64328
SWIDTH 540 0
DWIDTH 9 0
BBX 7 9 1 0
BITMAP
F8
04
02
02
22
02
02
02
02
ENDCHAR
STARTCHAR FB49
ENCODING 64329
SWIDTH 720 0
DWIDTH 12 0
BBX 10 9 1 0
BITMAP
8840
8840
8840
8840
F040
4480
4080
2100
1E00
ENDCHAR
STARTCHAR FB4A
ENCODING 64330
SWIDTH 660 0
DWIDTH 11 0
BBX 9 9 1 0
BITMAP
FE00
2100
2080
2080
2480
2080
2080
2080
E080
ENDCHAR
STARTCHAR FB4B
ENCODING 64331
SWIDTH 180 0
DWIDTH 3 0
BBX 1 11 1 0
BITMAP
80
00
80
80
80
80
80
80
80
80
80
ENDCHAR
STARTCHAR FB4C
ENCODING 64332
SWIDTH 540 0
DWIDTH 9 0
BBX 7 11 1 0
BITMAP
E0
00
F0
08
04
04
04
04
04
04
FE
ENDCHAR
STARTCHAR FB4D
ENCODING 64333
SWIDTH 480 0
DWIDTH 8 0
BBX 6 11 1 0
BITMAP
70
00
F0
08
04
04
04
04
04
08
F0
ENDCHAR
STARTCHAR FB4E
ENCODING 64334
SWIDTH 540 0
DWIDTH 9 0
BBX 7 11 1 0
BITMAP
38
00
F8
84
82
82
62
02
02
84
78
ENDCHAR
STARTCHAR FB4F
ENCODING 64335
SWIDTH 600 0
DWIDTH 10 0
BBX 9 12 0 0
BITMAP
8000
8000
8000
C080
2080
1080
1900
2E00
4400
4200
4100
4080
ENDCHAR
STARTCHAR FB50
ENCODING 64336
SWIDTH 240 0
DWIDTH 4 0
BBX 4 13 0 2
BITMAP
30
F0
80
20
20
20
20
20
20
20
20
20
20
ENDCHAR
STARTCHAR FB51
ENCODING 64337
SWIDTH 240 0
DWIDTH 4 0
BBX 4 13 0 2
BITMAP
30
F0
80
40
40
40
40
40
40
40
40
40
30
ENDCHAR
STARTCHAR FB52
ENCODING 64338
SWIDTH 720 0
DWIDTH 12 0
BBX 12 9 0 -1
BITMAP
4020
8010
8010
8010
8010
7FF0
0000
0200
0100
ENDCHAR
STARTCHAR FB53
ENCODING 64339
SWIDTH 720 0
DWIDTH 12 0
BBX 12 9 0 -1
BITMAP
4020
8010
8010
8010
8010
7FF0
0000
0200
0100
ENDCHAR
STARTCHAR FB54
ENCODING 64340
SWIDTH 240 0
DWIDTH 4 0
BBX 5 9 -1 -1
BITMAP
10
08
08
08
08
F8
00
20
10
ENDCHAR
STARTCHAR FB55
ENCODING 64341
SWIDTH 240 0
DWIDTH 4 0
BBX 5 9 -1 -1
BITMAP
10
08
08
08
08
F8
00
20
10
ENDCHAR
STARTCHAR FB56
ENCODING 64342
SWIDTH 720 0
DWIDTH 12 0
BBX 12 9 0 -1
BITMAP
4020
8010
8010
8010
8010
7FF0
0000
0200
0600
ENDCHAR
STARTCHAR FB57
ENCODING 64343
SWIDTH 720 0
DWIDTH 12 0
BBX 12 9 0 -1
BITMAP
4020
8010
8010
8010
8010
7FF0
0000
0200
0600
ENDCHAR
STARTCHAR FB58
ENCODING 64344
SWIDTH 240 0
DWIDTH 4 0
BBX 5 9 -1 -1
BITMAP
10
08
08
08
08
F8
00
10
30
ENDCHAR
STARTCHAR FB59
ENCODING 64345
SWIDTH 240 0
DWIDTH 4 0
BBX 5 9 -1 -1
BITMAP
10
08
08
08
08
F8
00
10
30
ENDCHAR
STARTCHAR FB5A
ENCODING 64346
SWIDTH 720 0
DWIDTH 12 0
BBX 12 10 0 -2
BITMAP
4020
8010
8010
8010
8010
7FF0
0000
0200
0600
0400
ENDCHAR
STARTCHAR FB5B
ENCODING 64347
SWIDTH 720 0
DWIDTH 12 0
BBX 12 10 0 -2
BITMAP
4020
8010
8010
8010
8010
7FF0
0000
0200
0600
0400
ENDCHAR
STARTCHAR FB5C
ENCODING 64348
SWIDTH 240 0
DWIDTH 4 0
BBX 5 10 -1 -2
BITMAP
10
08
08
08
08
F8
00
10
30
20
ENDCHAR
STARTCHAR FB5D
ENCODING 64349
SWIDTH 240 0
DWIDTH 4 0
BBX 5 10 -1 -2
BITMAP
10
08
08
08
08
F8
00
10
30
20
ENDCHAR
STARTCHAR FB5E
ENCODING 64350
SWIDTH 720 0
DWIDTH 12 0
BBX 12 10 0 2
BITMAP
0400
0200
0000
0000
4020
8010
8010
8010
8010
7FF0
ENDCHAR
STARTCHAR FB5F
ENCODING 64351
SWIDTH 720 0
DWIDTH 12 0
BBX 12 10 0 2
BITMAP
0400
0200
0000
0000
4020
8010
8010
8010
8010
7FF0
ENDCHAR
STARTCHAR FB60
ENCODING 64352
SWIDTH 240 0
DWIDTH 4 0
BBX 5 9 -1 2
BITMAP
20
10
00
10
08
08
08
08
F8
ENDCHAR
STARTCHAR FB61
ENCODING 64353
SWIDTH 240 0
DWIDTH 4 0
BBX 5 9 -1 2
BITMAP
20
10
00
10
08
08
08
08
F8
ENDCHAR
STARTCHAR FB62
ENCODING 64354
SWIDTH 720 0
DWIDTH 12 0
BBX 12 10 0 2
BITMAP
0200
0600
0400
0000
4020
8010
8010
8010
8010
7FF0
ENDCHAR
STARTCHAR FB63
ENCODING 64355
SWIDTH 720 0
DWIDTH 12 0
BBX 12 10 0 2
BITMAP
0200
0600
0400
0000
4020
8010
8010
8010
8010
7FF0
ENDCHAR
STARTCHAR FB64
ENCODING 64356
SWIDTH 240 0
DWIDTH 4 0
BBX 5 10 -1 2
BITMAP
10
30
20
00
10
08
08
08
08
F8
ENDCHAR
STARTCHAR FB65
ENCODING 64357
SWIDTH 240 0
DWIDTH 4 0
BBX 5 10 -1 2
BITMAP
10
30
20
00
10
08
08
08
08
F8
ENDCHAR
STARTCHAR FB66
ENCODING 64358
SWIDTH 720 0
DWIDTH 12 0
BBX 12 12 0 2
BITMAP
0600
0400
0700
0500
0F00
0000
4020
8010
8010
8010
8010
7FF0
ENDCHAR
STARTCHAR FB67
ENCODING 64359
SWIDTH 720 0
DWIDTH 12 0
BBX 12 12 0 2
BITMAP
0600
0400
0700
0500
0F00
0000
4020
8010
8010
8010
8010
7FF0
ENDCHAR
STARTCHAR FB68
ENCODING 64360
SWIDTH 240 0
DWIDTH 4 0
BBX 5 12 -1 2
BITMAP
30
20
38
28
78
00
10
08
08
08
08
F8
ENDCHAR
STARTCHAR FB69
ENCODING 64361
SWIDTH 240 0
DWIDTH 4 0
BBX 5 12 -1 2
BITMAP
30
20
38
28
78
00
10
08
08
08
08
F8
ENDCHAR
STARTCHAR FB6A
ENCODING 64362
SWIDTH 780 0
DWIDTH 13 0
BBX 13 8 0 2
BITMAP
0040
0060
4010
8028
8028
8028
4018
3FF8
ENDCHAR
STARTCHAR FB6B
ENCODING 64363
SWIDTH 780 0
DWIDTH 13 0
BBX 13 8 0 2
BITMAP
0040
0060
4010
8028
8028
8028
4018
3FF8
ENDCHAR
STARTCHAR FB6C
ENCODING 64364
SWIDTH 300 0
DWIDTH 5 0
BBX 6 9 -1 2
BITMAP
20
30
00
00
18
24
3C
04
FC
ENDCHAR
STARTCHAR FB6D
ENCODING 64365
SWIDTH 240 0
DWIDTH 4 0
BBX 5 9 -1 2
BITMAP
20
30
00
00
30
48
48
38
F8
ENDCHAR
STARTCHAR FB6E
ENCODING 64366
SWIDTH 780 0
DWIDTH 13 0
BBX 13 10 0 2
BITMAP
0008
0018
0010
0000
4010
8028
8028
8028
4018
3FF8
ENDCHAR
STARTCHAR FB6F
ENCODING 64367
SWIDTH 780 0
DWIDTH 13 0
BBX 13 10 0 2
BITMAP
0008
0018
0010
0000
4010
8028
8028
8028
4018
3FF8
ENDCHAR
STARTCHAR FB70
ENCODING 64368
SWIDTH 300 0
DWIDTH 5 0
BBX 6 9 -1 2
BITMAP
10
30
20
00
18
24
3C
04
FC
ENDCHAR
STARTCHAR FB71
ENCODING 64369
SWIDTH 240 0
DWIDTH 4 0
BBX 5 9 -1 2
BITMAP
10
30
20
00
30
48
48
38
F8
ENDCHAR
STARTCHAR FB72
ENCODING 64370
SWIDTH 600 0
DWIDTH 10 0
BBX 9 10 0 -3
BITMAP
7F80
0C00
3000
4000
8000
8800
8400
8000
6000
1F00
ENDCHAR
STARTCHAR FB73
ENCODING 64371
SWIDTH 540 0
DWIDTH 9 0
BBX 9 10 0 -3
BITMAP
7F00
0C00
3400
4400
8780
9000
8800
8000
4000
3E00
ENDCHAR
STARTCHAR FB74
ENCODING 64372
SWIDTH 540 0
DWIDTH 9 0
BBX 10 7 -1 -1
BITMAP
3C00
0200
0180
FFC0
0000
0800
0400
ENDCHAR
STARTCHAR FB75
ENCODING 64373
SWIDTH 540 0
DWIDTH 9 0
BBX 10 7 -1 -1
BITMAP
3C00
0200
0180
FFC0
0000
0800
0400
ENDCHAR
STARTCHAR FB76
ENCODING 64374
SWIDTH 600 0
DWIDTH 10 0
BBX 9 10 0 -3
BITMAP
7F80
0C00
3000
4000
8000
8200
8400
8000
6000
1F00
ENDCHAR
STARTCHAR FB77
ENCODING 64375
SWIDTH 540 0
DWIDTH 9 0
BBX 9 10 0 -3
BITMAP
7F00
0C00
3400
4400
8780
9000
A000
8000
4000
3E00
ENDCHAR
STARTCHAR FB78
ENCODING 64376
SWIDTH 540 0
DWIDTH 9 0
BBX 10 7 -1 -1
BITMAP
3C00
0200
0180
FFC0
0000
0400
0800
ENDCHAR
STARTCHAR FB79
ENCODING 64377
SWIDTH 540 0
DWIDTH 9 0
BBX 10 7 -1 -1
BITMAP
3C00
0200
0180
FFC0
0000
0400
0800
ENDCHAR
STARTCHAR FB7A
ENCODING 64378
SWIDTH 600 0
DWIDTH 10 0
BBX 9 10 0 -3
BITMAP
7F80
0C00
3000
4000
8200
8600
8000
8000
6000
1F00
ENDCHAR
STARTCHAR FB7B
ENCODING 64379
SWIDTH 540 0
DWIDTH 9 0
BBX 9 10 0 -3
BITMAP
7F00
0C00
3400
4400
8780
8000
8800
9800
4000
3E00
ENDCHAR
STARTCHAR FB7C
ENCODING 64380
SWIDTH 540 0
DWIDTH 9 0
BBX 10 7 -1 -1
BITMAP
3C00
0200
0180
FFC0
0000
0400
0C00
ENDCHAR
STARTCHAR FB7D
ENCODING 64381
SWIDTH 540 0
DWIDTH 9 0
BBX 10 7 -1 -1
BITMAP
3C00
0200
0180
FFC0
0000
0400
0C00
ENDCHAR
STARTCHAR FB7E
ENCODING 64382
SWIDTH 600 0
DWIDTH 10 0
BBX 9 10 0 -3
BITMAP
7F80
0C00
3000
4000
8400
8C00
8800
8000
6000
1F00
ENDCHAR
STARTCHAR FB7F
ENCODING 64383
SWIDTH 540 0
DWIDTH 9 0
BBX 9 10 0 -3
BITMAP
7F00
0C00
3400
4400
8780
8800
9800
9000
4000
3E00
ENDCHAR
STARTCHAR FB80
ENCODING 64384
SWIDTH 540 0
DWIDTH 9 0
BBX 10 8 -1 -2
BITMAP
3C00
0200
0180
FFC0
0000
0400
0C00
0800
ENDCHAR
STARTCHAR FB81
ENCODING 64385
SWIDTH 540 0
DWIDTH 9 0
BBX 10 8 -1 -2
BITMAP
3C00
0200
0180
FFC0
0000
0400
0C00
0800
ENDCHAR
STARTCHAR FB82
ENCODING 64386
SWIDTH 360 0
DWIDTH 6 0
BBX 5 9 1 -1
BITMAP
20
10
08
08
88
F8
00
10
20
ENDCHAR
STARTCHAR FB83
ENCODING 64387
SWIDTH 360 0
DWIDTH 6 0
BBX 5 9 1 -1
BITMAP
20
10
08
08
88
F8
00
10
20
ENDCHAR
STARTCHAR FB84
ENCODING 64388
SWIDTH 360 0
DWIDTH 6 0
BBX 5 10 1 2
BITMAP
20
40
00
00
20
10
08
08
88
F8
ENDCHAR
STARTCHAR FB85
ENCODING 64389
SWIDTH 360 0
DWIDTH 6 0
BBX 5 10 1 2
BITMAP
20
40
00
00
20
10
08
08
88
F8
ENDCHAR
STARTCHAR FB86
ENCODING 64390
SWIDTH 360 0
DWIDTH 6 0
BBX 5 10 1 2
BITMAP
40
60
00
00
20
10
08
08
88
F8
ENDCHAR
STARTCHAR FB87
ENCODING 64391
SWIDTH 360 0
DWIDTH 6 0
BBX 5 10 1 2
BITMAP
40
60
00
00
20
10
08
08
88
F8
ENDCHAR
STARTCHAR FB88
ENCODING 64392
SWIDTH 360 0
DWIDTH 6 0
BBX 5 12 1 2
BITMAP
30
20
38
28
78
00
20
10
08
08
88
F8
ENDCHAR
STARTCHAR FB89
ENCODING 64393
SWIDTH 360 0
DWIDTH 6 0
BBX 5 12 1 2
BITMAP
30
20
38
28
78
00
20
10
08
08
88
F8
ENDCHAR
STARTCHAR FB8A
ENCODING 64394
SWIDTH 480 0
DWIDTH 8 0
BBX 7 12 1 -2
BITMAP
0C
08
00
04
02
02
02
02
02
04
88
70
ENDCHAR
STARTCHAR FB8B
ENCODING 64395
SWIDTH 480 0
DWIDTH 8 0
BBX 7 12 1 -2
BITMAP
0C
08
00
04
02
02
02
02
02
04
88
70
ENDCHAR
STARTCHAR FB8C
ENCODING 64396
SWIDTH 480 0
DWIDTH 8 0
BBX 7 15 1 -2
BITMAP
0C
08
0E
0A
1E
00
04
02
02
02
02
02
04
88
70
ENDCHAR
STARTCHAR FB8D
ENCODING 64397
SWIDTH 480 0
DWIDTH 8 0
BBX 7 15 1 -2
BITMAP
0C
08
0E
0A
1E
00
04
02
02
02
02
02
04
88
70
ENDCHAR
STARTCHAR FB8E
ENCODING 64398
SWIDTH 840 0
DWIDTH 14 0
BBX 14 10 0 2
BITMAP
0008
0030
0040
0080
0080
4060
8010
8008
8004
7FFC
ENDCHAR
STARTCHAR FB8F
ENCODING 64399
SWIDTH 960 0
DWIDTH 16 0
BBX 16 10 0 2
BITMAP
0008
0070
0080
0100
0100
40C0
8020
8038
8024
7FC3
ENDCHAR
STARTCHAR FB90
ENCODING 64400
SWIDTH 420 0
DWIDTH 7 0
BBX 8 10 -1 2
BITMAP
02
0C
10
20
20
18
04
02
01
FF
ENDCHAR
STARTCHAR FB91
ENCODING 64401
SWIDTH 540 0
DWIDTH 9 0
BBX 10 10 -1 2
BITMAP
0200
1C00
2000
4000
4000
3000
0800
0E00
0900
F0C0
ENDCHAR
STARTCHAR FB92
ENCODING 64402
SWIDTH 840 0
DWIDTH 14 0
BBX 14 12 0 2
BITMAP
0008
0030
00C8
0030
0040
0080
0080
4060
8010
8008
8004
7FFC
ENDCHAR
STARTCHAR FB93
ENCODING 64403
SWIDTH 960 0
DWIDTH 16 0
BBX 16 12 0 2
BITMAP
0008
0070
0188
0070
0080
0100
0100
40C0
8020
8038
8024
7FC3
ENDCHAR
STARTCHAR FB94
ENCODING 64404
SWIDTH 420 0
DWIDTH 7 0
BBX 8 12 -1 2
BITMAP
02
0C
32
0C
10
20
20
18
04
02
01
FF
ENDCHAR
STARTCHAR FB95
ENCODING 64405
SWIDTH 540 0
DWIDTH 9 0
BBX 10 12 -1 2
BITMAP
0200
1C00
6200
1C00
2000
4000
4000
3000
0800
0E00
0900
F0C0
ENDCHAR
STARTCHAR FB96
ENCODING 64406
SWIDTH 840 0
DWIDTH 14 0
BBX 14 15 0 -1
BITMAP
0008
0030
00C8
0030
0040
0080
0080
4060
8010
8008
8004
7FFC
0000
0200
0100
ENDCHAR
STARTCHAR FB97
ENCODING 64407
SWIDTH 960 0
DWIDTH 16 0
BBX 16 15 0 -1
BITMAP
0008
0070
0188
0070
0080
0100
0100
40C0
8020
8038
8024
7FC3
0000
0400
0200
ENDCHAR
STARTCHAR FB98
ENCODING 64408
SWIDTH 420 0
DWIDTH 7 0
BBX 8 15 -1 -1
BITMAP
02
0C
32
0C
10
20
20
18
04
02
01
FF
00
10
08
ENDCHAR
STARTCHAR FB99
ENCODING 64409
SWIDTH 540 0
DWIDTH 9 0
BBX 10 15 -1 -1
BITMAP
0200
1C00
6200
1C00
2000
4000
4000
3000
0800
0E00
0900
F0C0
0000
2000
1000
ENDCHAR
STARTCHAR FB9A
ENCODING 64410
SWIDTH 840 0
DWIDTH 14 0
BBX 14 13 0 2
BITMAP
0030
00C8
0030
00C8
0030
0040
0080
0080
4060
8010
8008
8004
7FFC
ENDCHAR
STARTCHAR FB9B
ENCODING 64411
SWIDTH 960 0
DWIDTH 16 0
BBX 16 13 0 2
BITMAP
00C0
0308
0070
0188
0070
0080
0100
0100
40C0
8020
8038
8024
7FC3
ENDCHAR
STARTCHAR FB9C
ENCODING 64412
SWIDTH 420 0
DWIDTH 7 0
BBX 8 13 -1 2
BITMAP
0C
32
0C
32
0C
10
20
20
18
04
02
01
FF
ENDCHAR
STARTCHAR FB9D
ENCODING 64413
SWIDTH 540 0
DWIDTH 9 0
BBX 10 13 -1 2
BITMAP
1800
6200
1C00
6200
1C00
2000
4000
4000
3000
0800
0E00
0900
F0C0
ENDCHAR
STARTCHAR FB9E
ENCODING 64414
SWIDTH 540 0
DWIDTH 9 0
BBX 8 8 1 -1
BITMAP
02
41
81
81
81
81
83
7C
ENDCHAR
STARTCHAR FB9F
ENCODING 64415
SWIDTH 540 0
DWIDTH 9 0
BBX 8 8 1 -1
BITMAP
02
41
81
81
81
81
83
7C
ENDCHAR
STARTCHAR FBA0
ENCODING 64416
SWIDTH 540 0
DWIDTH 9 0
BBX 8 14 1 -1
BITMAP
30
20
38
28
78
00
02
41
81
81
81
81
83
7C
ENDCHAR
STARTCHAR FBA1
ENCODING 64417
SWIDTH 540 0
DWIDTH 9 0
BBX 8 14 1 -1
BITMAP
30
20
38
28
78
00
02
41
81
81
81
81
83
7C
ENDCHAR
STARTCHAR FBA2
ENCODING 64418
SWIDTH 240 0
DWIDTH 4 0
BBX 5 12 -1 2
BITMAP
30
20
38
28
78
00
10
08
08
08
08
F8
ENDCHAR
STARTCHAR FBA3
ENCODING 64419
SWIDTH 240 0
DWIDTH 4 0
BBX 5 12 -1 2
BITMAP
30
20
38
28
78
00
10
08
08
08
08
F8
ENDCHAR
STARTCHAR FBA4
ENCODING 64420
SWIDTH 300 0
DWIDTH 5 0
BBX 5 8 0 2
BITMAP
30
40
30
00
60
98
88
F0
ENDCHAR
STARTCHAR FBA5
ENCODING 64421
SWIDTH 360 0
DWIDTH 6 0
BBX 6 11 0 2
BITMAP
30
40
30
00
10
10
30
50
F0
08
0C
ENDCHAR
STARTCHAR FBA6
ENCODING 64422
SWIDTH 300 0
DWIDTH 5 0
BBX 5 4 0 2
BITMAP
60
98
88
F0
ENDCHAR
STARTCHAR FBA7
ENCODING 64423
SWIDTH 420 0
DWIDTH 7 0
BBX 7 4 0 1
BITMAP
18
28
46
80
ENDCHAR
STARTCHAR FBA8
ENCODING 64424
SWIDTH 240 0
DWIDTH 4 0
BBX 5 10 -1 -2
BITMAP
10
08
08
08
08
F8
00
10
20
30
ENDCHAR
STARTCHAR FBA9
ENCODING 64425
SWIDTH 300 0
DWIDTH 5 0
BBX 6 8 -1 -3
BITMAP
20
60
EC
30
20
00
20
30
ENDCHAR
STARTCHAR FBAA
ENCODING 64426
SWIDTH 480 0
DWIDTH 8 0
BBX 8 6 -1 2
BITMAP
08
1C
26
25
19
E7
ENDCHAR
STARTCHAR FBAB
ENCODING 64427
SWIDTH 360 0
DWIDTH 6 0
BBX 6 7 0 2
BITMAP
10
10
30
50
F0
08
0C
ENDCHAR
STARTCHAR FBAC
ENCODING 64428
SWIDTH 480 0
DWIDTH 8 0
BBX 8 6 -1 2
BITMAP
08
1C
26
25
19
E7
ENDCHAR
STARTCHAR FBAD
ENCODING 64429
SWIDTH 420 0
DWIDTH 7 0
BBX 8 7 -1 -1
BITMAP
0C
14
28
FF
28
24
1C
ENDCHAR
STARTCHAR FBAE
ENCODING 64430
SWIDTH 840 0
DWIDTH 14 0
BBX 12 6 1 0
BITMAP
0400
0A00
1000
6000
8000
FFF0
ENDCHAR
STARTCHAR FBAF
ENCODING 64431
SWIDTH 840 0
DWIDTH 14 0
BBX 13 6 1 -3
BITMAP
03F8
0C00
3000
4000
8000
FFF0
ENDCHAR
STARTCHAR FBB0
ENCODING 64432
SWIDTH 840 0
DWIDTH 14 0
BBX 12 8 1 0
BITMAP
3000
4000
3400
0A00
1000
6000
8000
FFF0
ENDCHAR
STARTCHAR FBB1
ENCODING 64433
SWIDTH 840 0
DWIDTH 14 0
BBX 13 11 1 -3
BITMAP
00C0
0100
00C0
0000
0000
03F8
0C00
3000
4000
8000
FFF0
ENDCHAR
STARTCHAR FBD3
ENCODING 64467
SWIDTH 600 0
DWIDTH 10 0
BBX 10 12 0 2
BITMAP
1000
1880
00C0
0880
1080
1C80
0480
8440
9840
8040
8040
7FC0
ENDCHAR
STARTCHAR FBD4
ENCODING 64468
SWIDTH 600 0
DWIDTH 10 0
BBX 10 12 0 2
BITMAP
1000
1880
00C0
0880
1080
1C80
0480
8440
9840
8040
8040
7FC0
ENDCHAR
STARTCHAR FBD5
ENCODING 64469
SWIDTH 420 0
DWIDTH 7 0
BBX 8 13 -1 2
BITMAP
30
20
00
02
0C
10
20
20
18
04
02
01
FF
ENDCHAR
STARTCHAR FBD6
ENCODING 64470
SWIDTH 420 0
DWIDTH 7 0
BBX 8 13 -1 2
BITMAP
30
20
00
02
0C
10
20
20
18
04
02
01
FF
ENDCHAR
STARTCHAR FBD7
ENCODING 64471
SWIDTH 420 0
DWIDTH 7 0
BBX 7 13 0 -2
BITMAP
06
0A
0E
08
00
00
06
0A
0E
02
02
84
78
ENDCHAR
STARTCHAR FBD8
ENCODING 64472
SWIDTH 420 0
DWIDTH 7 0
BBX 7 13 0 -2
BITMAP
06
0A
0E
08
00
00
06
0A
0E
02
02
84
78
ENDCHAR
STARTCHAR FBD9
ENCODING 64473
SWIDTH 420 0
DWIDTH 7 0
BBX 7 10 0 -2
BITMAP
0A
04
00
06
0A
0E
02
02
84
78
ENDCHAR
STARTCHAR FBDA
ENCODING 64474
SWIDTH 420 0
DWIDTH 7 0
BBX 7 10 0 -2
BITMAP
0A
04
00
06
0A
0E
02
02
84
78
ENDCHAR
STARTCHAR FBDB
ENCODING 64475
SWIDTH 420 0
DWIDTH 7 0
BBX 7 13 0 -2
BITMAP
04
04
04
04
04
00
06
0A
0E
02
02
84
78
ENDCHAR
STARTCHAR FBDC
ENCODING 64476
SWIDTH 420 0
DWIDTH 7 0
BBX 7 13 0 -2
BITMAP
04
04
04
04
04
00
06
0A
0E
02
02
84
78
ENDCHAR
STARTCHAR FBDD
ENCODING 64477
SWIDTH 420 0
DWIDTH 7 0
BBX 9 12 0 -2
BITMAP
1800
2980
3A00
2180
0000
0600
0A00
0E00
0200
0200
8400
7800
ENDCHAR
STARTCHAR FBDE
ENCODING 64478
SWIDTH 420 0
DWIDTH 7 0
BBX 7 11 0 -2
BITMAP
08
0C
00
00
06
0A
0E
02
02
84
78
ENDCHAR
STARTCHAR FBDF
ENCODING 64479
SWIDTH 420 0
DWIDTH 7 0
BBX 7 11 0 -2
BITMAP
08
0C
00
00
06
0A
0E
02
02
84
78
ENDCHAR
STARTCHAR FBE0
ENCODING 64480
SWIDTH 420 0
DWIDTH 7 0
BBX 7 7 0 -2
BITMAP
06
0A
06
32
0E
84
78
ENDCHAR
STARTCHAR FBE1
ENCODING 64481
SWIDTH 420 0
DWIDTH 7 0
BBX 7 7 0 -2
BITMAP
06
0A
06
32
0E
84
78
ENDCHAR
STARTCHAR FBE2
ENCODING 64482
SWIDTH 420 0
DWIDTH 7 0
BBX 7 10 0 -2
BITMAP
04
0A
00
06
0A
0E
02
02
84
78
ENDCHAR
STARTCHAR FBE3
ENCODING 64483
SWIDTH 420 0
DWIDTH 7 0
BBX 7 10 0 -2
BITMAP
04
0A
00
06
0A
0E
02
02
84
78
ENDCHAR
STARTCHAR FBE4
ENCODING 64484
SWIDTH 660 0
DWIDTH 11 0
BBX 10 11 0 -3
BITMAP
01C0
0240
4200
8400
8400
87C0
8040
8180
7E00
0800
0800
ENDCHAR
STARTCHAR FBE5
ENCODING 64485
SWIDTH 600 0
DWIDTH 10 0
BBX 10 7 0 -4
BITMAP
43C0
8400
8780
C080
7F00
0800
0800
ENDCHAR
STARTCHAR FBE6
ENCODING 64486
SWIDTH 240 0
DWIDTH 4 0
BBX 5 9 -1 -1
BITMAP
10
08
08
08
08
F8
00
20
10
ENDCHAR
STARTCHAR FBE7
ENCODING 64487
SWIDTH 240 0
DWIDTH 4 0
BBX 5 9 -1 -1
BITMAP
10
08
08
08
08
F8
00
20
10
ENDCHAR
STARTCHAR FBFC
ENCODING 64508
SWIDTH 660 0
DWIDTH 11 0
BBX 10 9 0 -1
BITMAP
01C0
0240
4200
8400
8400
87C0
8040
8180
7E00
ENDCHAR
STARTCHAR FBFD
ENCODING 64509
SWIDTH 600 0
DWIDTH 10 0
BBX 10 5 0 -2
BITMAP
43C0
8400
8780
C080
7F00
ENDCHAR
STARTCHAR FBFE
ENCODING 64510
SWIDTH 240 0
DWIDTH 4 0
BBX 5 9 -1 -1
BITMAP
10
08
08
08
08
F8
00
10
20
ENDCHAR
STARTCHAR FBFF
ENCODING 64511
SWIDTH 240 0
DWIDTH 4 0
BBX 5 9 -1 -1
BITMAP
10
08
08
08
08
F8
00
10
20
ENDCHAR
STARTCHAR FC5E
ENCODING 64606
SWIDTH 240 0
DWIDTH 4 0
BBX 6 7 0 10
BITMAP
0C
14
DC
54
68
B8
C0
ENDCHAR
STARTCHAR FC5F
ENCODING 64607
SWIDTH 240 0
DWIDTH 4 0
BBX 5 7 0 10
BITMAP
08
B8
C0
10
60
10
60
ENDCHAR
STARTCHAR FC60
ENCODING 64608
SWIDTH 240 0
DWIDTH 4 0
BBX 5 5 0 10
BITMAP
20
C0
08
B8
C0
ENDCHAR
STARTCHAR FC61
ENCODING 64609
SWIDTH 240 0
DWIDTH 4 0
BBX 5 7 0 10
BITMAP
30
50
70
40
08
B8
C0
ENDCHAR
STARTCHAR FC62
ENCODING 64610
SWIDTH 240 0
DWIDTH 4 0
BBX 5 5 0 10
BITMAP
28
B8
C0
10
60
ENDCHAR
STARTCHAR FD3E
ENCODING 64830
SWIDTH 300 0
DWIDTH 5 0
BBX 3 16 2 -3
BITMAP
20
40
40
80
80
80
80
80
80
80
80
80
80
40
40
20
ENDCHAR
STARTCHAR FD3F
ENCODING 64831
SWIDTH 300 0
DWIDTH 5 0
BBX 3 16 0 -3
BITMAP
80
40
40
40
20
20
20
20
20
20
20
20
40
40
40
80
ENDCHAR
STARTCHAR FDF2
ENCODING 65010
SWIDTH 600 0
DWIDTH 10 0
BBX 10 11 0 2
BITMAP
1000
0800
0500
1700
1800
0240
1240
1240
3240
5240
EFC0
ENDCHAR
STARTCHAR FE80
ENCODING 65152
SWIDTH 420 0
DWIDTH 7 0
BBX 5 5 1 1
BITMAP
70
80
88
70
40
ENDCHAR
STARTCHAR FE81
ENCODING 65153
SWIDTH 240 0
DWIDTH 4 0
BBX 3 12 0 2
BITMAP
E0
00
20
20
20
20
20
20
20
20
20
20
ENDCHAR
STARTCHAR FE82
ENCODING 65154
SWIDTH 240 0
DWIDTH 4 0
BBX 3 12 1 2
BITMAP
E0
00
80
80
80
80
80
80
80
80
80
60
ENDCHAR
STARTCHAR FE83
ENCODING 65155
SWIDTH 240 0
DWIDTH 4 0
BBX 3 13 1 2
BITMAP
60
80
60
00
40
40
40
40
40
40
40
40
40
ENDCHAR
STARTCHAR FE84
ENCODING 65156
SWIDTH 240 0
DWIDTH 4 0
BBX 4 13 0 2
BITMAP
60
80
60
00
40
40
40
40
40
40
40
40
30
ENDCHAR
STARTCHAR FE85
ENCODING 65157
SWIDTH 420 0
DWIDTH 7 0
BBX 7 11 0 -2
BITMAP
18
20
18
00
06
0A
0E
02
02
84
78
ENDCHAR
STARTCHAR FE86
ENCODING 65158
SWIDTH 420 0
DWIDTH 7 0
BBX 7 11 0 -2
BITMAP
18
20
18
00
06
0A
0E
02
02
84
78
ENDCHAR
STARTCHAR FE87
ENCODING 65159
SWIDTH 240 0
DWIDTH 4 0
BBX 3 14 1 -2
BITMAP
40
40
40
40
40
40
40
40
40
40
00
60
80
60
ENDCHAR
STARTCHAR FE88
ENCODING 65160
SWIDTH 240 0
DWIDTH 4 0
BBX 4 14 0 -2
BITMAP
40
40
40
40
40
40
40
40
40
30
00
60
80
60
ENDCHAR
STARTCHAR FE89
ENCODING 65161
SWIDTH 660 0
DWIDTH 11 0
BBX 10 11 0 -1
BITMAP
6000
8000
61C0
0240
4200
8400
8400
87C0
8040
8180
7E00
ENDCHAR
STARTCHAR FE8A
ENCODING 65162
SWIDTH 600 0
DWIDTH 10 0
BBX 10 10 0 -2
BITMAP
6000
8000
6000
0000
0000
43C0
8400
8780
C080
7F00
ENDCHAR
STARTCHAR FE8B
ENCODING 65163
SWIDTH 240 0
DWIDTH 4 0
BBX 5 10 -1 2
BITMAP
30
40
30
00
10
08
08
08
08
F8
ENDCHAR
STARTCHAR FE8C
ENCODING 65164
SWIDTH 240 0
DWIDTH 4 0
BBX 5 10 -1 2
BITMAP
30
40
30
00
10
08
08
08
08
F8
ENDCHAR
STARTCHAR FE8D
ENCODING 65165
SWIDTH 240 0
DWIDTH 4 0
BBX 1 10 2 2
BITMAP
80
80
80
80
80
80
80
80
80
80
ENDCHAR
STARTCHAR FE8E
ENCODING 65166
SWIDTH 240 0
DWIDTH 4 0
BBX 3 10 1 2
BITMAP
80
80
80
80
80
80
80
80
80
60
ENDCHAR
STARTCHAR FE8F
ENCODING 65167
SWIDTH 720 0
DWIDTH 12 0
BBX 12 8 0 0
BITMAP
4020
8010
8010
8010
8010
7FF0
0000
0400
ENDCHAR
STARTCHAR FE90
ENCODING 65168
SWIDTH 720 0
DWIDTH 12 0
BBX 12 8 0 0
BITMAP
4020
8010
8010
8010
8010
7FF0
0000
0400
ENDCHAR
STARTCHAR FE91
ENCODING 65169
SWIDTH 240 0
DWIDTH 4 0
BBX 5 8 -1 0
BITMAP
10
08
08
08
08
F8
00
20
ENDCHAR
STARTCHAR FE92
ENCODING 65170
SWIDTH 240 0
DWIDTH 4 0
BBX 5 8 -1 0
BITMAP
10
08
08
08
08
F8
00
20
ENDCHAR
STARTCHAR FE93
ENCODING 65171
SWIDTH 300 0
DWIDTH 5 0
BBX 4 7 1 2
BITMAP
20
40
00
60
90
90
E0
ENDCHAR
STARTCHAR FE94
ENCODING 65172
SWIDTH 360 0
DWIDTH 6 0
BBX 6 10 0 2
BITMAP
10
20
00
10
10
30
50
F0
08
0C
ENDCHAR
STARTCHAR FE95
ENCODING 65173
SWIDTH 720 0
DWIDTH 12 0
BBX 12 8 0 2
BITMAP
0200
0400
4020
8010
8010
8010
8010
7FF0
ENDCHAR
STARTCHAR FE96
ENCODING 65174
SWIDTH 720 0
DWIDTH 12 0
BBX 12 8 0 2
BITMAP
0200
0400
4020
8010
8010
8010
8010
7FF0
ENDCHAR
STARTCHAR FE97
ENCODING 65175
SWIDTH 240 0
DWIDTH 4 0
BBX 5 9 -1 2
BITMAP
10
20
00
10
08
08
08
08
F8
ENDCHAR
STARTCHAR FE98
ENCODING 65176
SWIDTH 240 0
DWIDTH 4 0
BBX 5 9 -1 2
BITMAP
10
20
00
10
08
08
08
08
F8
ENDCHAR
STARTCHAR FE99
ENCODING 65177
SWIDTH 720 0
DWIDTH 12 0
BBX 12 8 0 2
BITMAP
0600
0400
4020
8010
8010
8010
8010
7FF0
ENDCHAR
STARTCHAR FE9A
ENCODING 65178
SWIDTH 720 0
DWIDTH 12 0
BBX 12 8 0 2
BITMAP
0600
0400
4020
8010
8010
8010
8010
7FF0
ENDCHAR
STARTCHAR FE9B
ENCODING 65179
SWIDTH 240 0
DWIDTH 4 0
BBX 5 9 -1 2
BITMAP
30
20
00
10
08
08
08
08
F8
ENDCHAR
STARTCHAR FE9C
ENCODING 65180
SWIDTH 240 0
DWIDTH 4 0
BBX 5 9 -1 2
BITMAP
30
20
00
10
08
08
08
08
F8
ENDCHAR
STARTCHAR FE9D
ENCODING 65181
SWIDTH 600 0
DWIDTH 10 0
BBX 9 10 0 -3
BITMAP
7F80
0C00
3000
4000
8200
8000
8000
8000
6000
1F00
ENDCHAR
STARTCHAR FE9E
ENCODING 65182
SWIDTH 540 0
DWIDTH 9 0
BBX 9 10 0 -3
BITMAP
7F00
0C00
3400
4400
8780
8000
8800
8000
4000
3E00
ENDCHAR
STARTCHAR FE9F
ENCODING 65183
SWIDTH 540 0
DWIDTH 9 0
BBX 10 6 -1 0
BITMAP
3C00
0200
0180
FFC0
0000
0800
ENDCHAR
STARTCHAR FEA0
ENCODING 65184
SWIDTH 540 0
DWIDTH 9 0
BBX 10 6 -1 0
BITMAP
3C00
0200
0180
FFC0
0000
0800
ENDCHAR
STARTCHAR FEA1
ENCODING 65185
SWIDTH 600 0
DWIDTH 10 0
BBX 9 10 0 -3
BITMAP
7F80
0C00
3000
4000
8000
8000
8000
8000
6000
1F00
ENDCHAR
STARTCHAR FEA2
ENCODING 65186
SWIDTH 540 0
DWIDTH 9 0
BBX 9 10 0 -3
BITMAP
7F00
0C00
3400
4400
8780
8000
8000
8000
4000
3E00
ENDCHAR
STARTCHAR FEA3
ENCODING 65187
SWIDTH 540 0
DWIDTH 9 0
BBX 10 4 -1 2
BITMAP
3C00
0200
0180
FFC0
ENDCHAR
STARTCHAR FEA4
ENCODING 65188
SWIDTH 540 0
DWIDTH 9 0
BBX 10 4 -1 2
BITMAP
3C00
0200
0180
FFC0
ENDCHAR
STARTCHAR FEA5
ENCODING 65189
SWIDTH 600 0
DWIDTH 10 0
BBX 9 13 0 -3
BITMAP
0400
0000
0000
7F80
0C00
3000
4000
8000
8000
8000
8000
6000
1F00
ENDCHAR
STARTCHAR FEA6
ENCODING 65190
SWIDTH 540 0
DWIDTH 9 0
BBX 9 13 0 -3
BITMAP
0800
0000
0000
7F00
0C00
3400
4400
8780
8000
8000
8000
4000
3E00
ENDCHAR
STARTCHAR FEA7
ENCODING 65191
SWIDTH 540 0
DWIDTH 9 0
BBX 10 7 -1 2
BITMAP
0800
0000
0000
3C00
0200
0180
FFC0
ENDCHAR
STARTCHAR FEA8
ENCODING 65192
SWIDTH 540 0
DWIDTH 9 0
BBX 10 7 -1 2
BITMAP
0800
0000
0000
3C00
0200
0180
FFC0
ENDCHAR
STARTCHAR FEA9
ENCODING 65193
SWIDTH 360 0
DWIDTH 6 0
BBX 5 6 1 2
BITMAP
20
10
08
08
88
F8
ENDCHAR
STARTCHAR FEAA
ENCODING 65194
SWIDTH 360 0
DWIDTH 6 0
BBX 5 6 1 2
BITMAP
20
10
08
08
88
F8
ENDCHAR
STARTCHAR FEAB
ENCODING 65195
SWIDTH 360 0
DWIDTH 6 0
BBX 5 9 1 2
BITMAP
40
00
00
20
10
08
08
88
F8
ENDCHAR
STARTCHAR FEAC
ENCODING 65196
SWIDTH 360 0
DWIDTH 6 0
BBX 5 9 1 2
BITMAP
40
00
00
20
10
08
08
88
F8
ENDCHAR
STARTCHAR FEAD
ENCODING 65197
SWIDTH 480 0
DWIDTH 8 0
BBX 7 9 1 -2
BITMAP
04
02
02
02
02
02
04
88
70
ENDCHAR
STARTCHAR FEAE
ENCODING 65198
SWIDTH 480 0
DWIDTH 8 0
BBX 7 9 1 -2
BITMAP
04
02
02
02
02
02
04
88
70
ENDCHAR
STARTCHAR FEAF
ENCODING 65199
SWIDTH 480 0
DWIDTH 8 0
BBX 7 12 1 -2
BITMAP
04
00
00
04
02
02
02
02
02
04
88
70
ENDCHAR
STARTCHAR FEB0
ENCODING 65200
SWIDTH 480 0
DWIDTH 8 0
BBX 7 12 1 -2
BITMAP
04
00
00
04
02
02
02
02
02
04
88
70
ENDCHAR
STARTCHAR FEB1
ENCODING 65201
SWIDTH 840 0
DWIDTH 14 0
BBX 13 8 1 -1
BITMAP
0250
4148
8148
8148
81F8
8100
8200
7C00
ENDCHAR
STARTCHAR FEB2
ENCODING 65202
SWIDTH 840 0
DWIDTH 14 0
BBX 13 8 1 -1
BITMAP
0250
4148
8148
8148
81F8
8100
8200
7C00
ENDCHAR
STARTCHAR FEB3
ENCODING 65203
SWIDTH 540 0
DWIDTH 9 0
BBX 10 5 -1 2
BITMAP
0080
1240
1240
1240
FFC0
ENDCHAR
STARTCHAR FEB4
ENCODING 65204
SWIDTH 540 0
DWIDTH 9 0
BBX 10 5 -1 2
BITMAP
0080
1240
1240
1240
FFC0
ENDCHAR
STARTCHAR FEB5
ENCODING 65205
SWIDTH 840 0
DWIDTH 14 0
BBX 13 11 1 -1
BITMAP
0060
0040
0000
0250
4148
8148
8148
81F8
8100
8200
7C00
ENDCHAR
STARTCHAR FEB6
ENCODING 65206
SWIDTH 840 0
DWIDTH 14 0
BBX 13 11 1 -1
BITMAP
0060
0040
0000
0250
4148
8148
8148
81F8
8100
8200
7C00
ENDCHAR
STARTCHAR FEB7
ENCODING 65207
SWIDTH 540 0
DWIDTH 9 0
BBX 10 8 -1 2
BITMAP
0600
0400
0000
0080
1240
1240
1240
FFC0
ENDCHAR
STARTCHAR FEB8
ENCODING 65208
SWIDTH 540 0
DWIDTH 9 0
BBX 10 8 -1 2
BITMAP
0600
0400
0000
0080
1240
1240
1240
FFC0
ENDCHAR
STARTCHAR FEB9
ENCODING 65209
SWIDTH 1140 0
DWIDTH 19 0
BBX 18 8 1 -1
BITMAP
010380
408440
808840
809040
80FFC0
808000
810000
7E0000
ENDCHAR
STARTCHAR FEBA
ENCODING 65210
SWIDTH 1140 0
DWIDTH 19 0
BBX 18 8 1 -1
BITMAP
010380
408440
808840
809040
80FFC0
808000
810000
7E0000
ENDCHAR
STARTCHAR FEBB
ENCODING 65211
SWIDTH 840 0
DWIDTH 14 0
BBX 15 4 -1 2
BITMAP
101C
1062
1882
FFFE
ENDCHAR
STARTCHAR FEBC
ENCODING 65212
SWIDTH 840 0
DWIDTH 14 0
BBX 15 4 -1 2
BITMAP
101C
1062
1882
FFFE
ENDCHAR
STARTCHAR FEBD
ENCODING 65213
SWIDTH 1140 0
DWIDTH 19 0
BBX 18 10 1 -1
BITMAP
000800
000000
010380
408440
808840
809040
80FFC0
808000
810000
7E0000
ENDCHAR
STARTCHAR FEBE
ENCODING 65214
SWIDTH 1140 0
DWIDTH 19 0
BBX 18 10 1 -1
BITMAP
000800
000000
010380
408440
808840
809040
80FFC0
808000
810000
7E0000
ENDCHAR
STARTCHAR FEBF
ENCODING 65215
SWIDTH 840 0
DWIDTH 14 0
BBX 15 6 -1 2
BITMAP
0040
0000
101C
1062
1882
FFFE
ENDCHAR
STARTCHAR FEC0
ENCODING 65216
SWIDTH 840 0
DWIDTH 14 0
BBX 15 6 -1 2
BITMAP
0040
0000
101C
1062
1882
FFFE
ENDCHAR
STARTCHAR FEC1
ENCODING 65217
SWIDTH 600 0
DWIDTH 10 0
BBX 11 11 -1 2
BITMAP
2000
3800
1000
1000
0800
0800
0800
0BC0
0C20
1020
FFE0
ENDCHAR
STARTCHAR FEC2
ENCODING 65218
SWIDTH 600 0
DWIDTH 10 0
BBX 11 11 -1 2
BITMAP
2000
3800
1000
1000
0800
0800
0800
0BC0
0C20
1020
FFE0
ENDCHAR
STARTCHAR FEC3
ENCODING 65219
SWIDTH 600 0
DWIDTH 10 0
BBX 11 11 -1 2
BITMAP
2000
3800
1000
1000
0800
0800
0800
0BC0
0C20
1020
FFE0
ENDCHAR
STARTCHAR FEC4
ENCODING 65220
SWIDTH 600 0
DWIDTH 10 0
BBX 11 11 -1 2
BITMAP
2000
3800
1000
1000
0800
0800
0800
0BC0
0C20
1020
FFE0
ENDCHAR
STARTCHAR FEC5
ENCODING 65221
SWIDTH 600 0
DWIDTH 10 0
BBX 11 11 -1 2
BITMAP
2000
3800
1000
1000
0880
0800
0800
0BC0
0C20
1020
FFE0
ENDCHAR
STARTCHAR FEC6
ENCODING 65222
SWIDTH 600 0
DWIDTH 10 0
BBX 11 11 -1 2
BITMAP
2000
3800
1000
1000
0880
0800
0800
0BC0
0C20
1020
FFE0
ENDCHAR
STARTCHAR FEC7
ENCODING 65223
SWIDTH 600 0
DWIDTH 10 0
BBX 11 11 -1 2
BITMAP
2000
3800
1000
1000
0880
0800
0800
0BC0
0C20
1020
FFE0
ENDCHAR
STARTCHAR FEC8
ENCODING 65224
SWIDTH 600 0
DWIDTH 10 0
BBX 11 11 -1 2
BITMAP
2000
3800
1000
1000
0880
0800
0800
0BC0
0C20
1020
FFE0
ENDCHAR
STARTCHAR FEC9
ENCODING 65225
SWIDTH 540 0
DWIDTH 9 0
BBX 7 12 0 -3
BITMAP
70
80
82
6C
30
40
80
80
80
80
40
3E
ENDCHAR
STARTCHAR FECA
ENCODING 65226
SWIDTH 480 0
DWIDTH 8 0
BBX 8 8 0 -3
BITMAP
3C
18
27
40
80
80
40
3F
ENDCHAR
STARTCHAR FECB
ENCODING 65227
SWIDTH 540 0
DWIDTH 9 0
BBX 9 6 -1 2
BITMAP
3C00
4200
4000
4000
2180
FE00
ENDCHAR
STARTCHAR FECC
ENCODING 65228
SWIDTH 420 0
DWIDTH 7 0
BBX 8 3 -1 2
BITMAP
3C
08
F7
ENDCHAR
STARTCHAR FECD
ENCODING 65229
SWIDTH 540 0
DWIDTH 9 0
BBX 7 15 0 -3
BITMAP
10
00
00
70
80
82
6C
30
40
80
80
80
80
40
3E
ENDCHAR
STARTCHAR FECE
ENCODING 65230
SWIDTH 480 0
DWIDTH 8 0
BBX 8 11 0 -3
BITMAP
08
00
00
3C
18
27
40
80
80
40
3F
ENDCHAR
STARTCHAR FECF
ENCODING 65231
SWIDTH 540 0
DWIDTH 9 0
BBX 9 8 -1 2
BITMAP
0800
0000
3C00
4200
4000
4000
2180
FE00
ENDCHAR
STARTCHAR FED0
ENCODING 65232
SWIDTH 420 0
DWIDTH 7 0
BBX 8 6 -1 2
BITMAP
08
00
00
3C
08
F7
ENDCHAR
STARTCHAR FED1
ENCODING 65233
SWIDTH 780 0
DWIDTH 13 0
BBX 13 9 0 2
BITMAP
0020
0000
0000
4010
8028
8028
8028
4018
3FF8
ENDCHAR
STARTCHAR FED2
ENCODING 65234
SWIDTH 780 0
DWIDTH 13 0
BBX 13 9 0 2
BITMAP
0020
0000
0000
4010
8028
8028
8028
4018
3FF8
ENDCHAR
STARTCHAR FED3
ENCODING 65235
SWIDTH 300 0
DWIDTH 5 0
BBX 6 7 -1 2
BITMAP
08
00
18
24
3C
04
FC
ENDCHAR
STARTCHAR FED4
ENCODING 65236
SWIDTH 240 0
DWIDTH 4 0
BBX 5 8 -1 2
BITMAP
10
00
00
30
48
48
38
F8
ENDCHAR
STARTCHAR FED5
ENCODING 65237
SWIDTH 600 0
DWIDTH 10 0
BBX 9 11 1 -1
BITMAP
0200
0400
0000
0300
4480
8780
8080
8080
8080
8100
7E00
ENDCHAR
STARTCHAR FED6
ENCODING 65238
SWIDTH 600 0
DWIDTH 10 0
BBX 9 11 1 -1
BITMAP
0200
0400
0000
0300
4480
8780
8080
8080
8080
8100
7E00
ENDCHAR
STARTCHAR FED7
ENCODING 65239
SWIDTH 300 0
DWIDTH 5 0
BBX 6 8 -1 2
BITMAP
08
10
00
18
24
3C
04
FC
ENDCHAR
STARTCHAR FED8
ENCODING 65240
SWIDTH 240 0
DWIDTH 4 0
BBX 5 9 -1 2
BITMAP
20
40
00
00
30
48
48
38
F8
ENDCHAR
STARTCHAR FED9
ENCODING 65241
SWIDTH 600 0
DWIDTH 10 0
BBX 10 11 0 2
BITMAP
0080
00C0
0880
1080
1C80
0480
8440
9840
8040
8040
7FC0
ENDCHAR
STARTCHAR FEDA
ENCODING 65242
SWIDTH 600 0
DWIDTH 10 0
BBX 10 11 0 2
BITMAP
0080
00C0
0880
1080
1C80
0480
8440
9840
8040
8040
7FC0
ENDCHAR
STARTCHAR FEDB
ENCODING 65243
SWIDTH 420 0
DWIDTH 7 0
BBX 8 10 -1 2
BITMAP
02
0C
10
20
20
18
04
02
01
FF
ENDCHAR
STARTCHAR FEDC
ENCODING 65244
SWIDTH 420 0
DWIDTH 7 0
BBX 8 10 -1 2
BITMAP
02
0C
10
20
20
18
04
02
01
FF
ENDCHAR
STARTCHAR FEDD
ENCODING 65245
SWIDTH 540 0
DWIDTH 9 0
BBX 8 13 1 0
BITMAP
02
03
02
02
02
02
21
41
81
81
81
82
7C
ENDCHAR
STARTCHAR FEDE
ENCODING 65246
SWIDTH 540 0
DWIDTH 9 0
BBX 8 13 1 0
BITMAP
02
03
02
02
02
02
21
41
81
81
81
82
7C
ENDCHAR
STARTCHAR FEDF
ENCODING 65247
SWIDTH 240 0
DWIDTH 4 0
BBX 5 11 -1 2
BITMAP
10
18
10
10
10
10
08
08
08
08
F8
ENDCHAR
STARTCHAR FEE0
ENCODING 65248
SWIDTH 240 0
DWIDTH 4 0
BBX 5 11 -1 2
BITMAP
10
18
10
10
10
10
08
08
08
08
F8
ENDCHAR
STARTCHAR FEE1
ENCODING 65249
SWIDTH 360 0
DWIDTH 6 0
BBX 6 8 0 -3
BITMAP
78
04
7C
80
80
80
40
40
ENDCHAR
STARTCHAR FEE2
ENCODING 65250
SWIDTH 360 0
DWIDTH 6 0
BBX 6 8 0 -3
BITMAP
78
04
7C
80
80
80
40
40
ENDCHAR
STARTCHAR FEE3
ENCODING 65251
SWIDTH 420 0
DWIDTH 7 0
BBX 8 4 -1 2
BITMAP
06
09
19
E7
ENDCHAR
STARTCHAR FEE4
ENCODING 65252
SWIDTH 420 0
DWIDTH 7 0
BBX 8 4 -1 2
BITMAP
06
09
19
E7
ENDCHAR
STARTCHAR FEE5
ENCODING 65253
SWIDTH 540 0
DWIDTH 9 0
BBX 8 10 1 -1
BITMAP
08
00
02
41
81
81
81
81
82
7C
ENDCHAR
STARTCHAR FEE6
ENCODING 65254
SWIDTH 540 0
DWIDTH 9 0
BBX 8 10 1 -1
BITMAP
08
00
02
41
81
81
81
81
82
7C
ENDCHAR
STARTCHAR FEE7
ENCODING 65255
SWIDTH 240 0
DWIDTH 4 0
BBX 5 8 -1 2
BITMAP
20
00
10
08
08
08
08
F8
ENDCHAR
STARTCHAR FEE8
ENCODING 65256
SWIDTH 240 0
DWIDTH 4 0
BBX 5 8 -1 2
BITMAP
20
00
10
08
08
08
08
F8
ENDCHAR
STARTCHAR FEE9
ENCODING 65257
SWIDTH 300 0
DWIDTH 5 0
BBX 5 4 0 2
BITMAP
60
98
88
F0
ENDCHAR
STARTCHAR FEEA
ENCODING 65258
SWIDTH 360 0
DWIDTH 6 0
BBX 6 7 0 2
BITMAP
10
10
30
50
F0
08
0C
ENDCHAR
STARTCHAR FEEB
ENCODING 65259
SWIDTH 480 0
DWIDTH 8 0
BBX 8 6 -1 2
BITMAP
08
1C
26
25
19
E7
ENDCHAR
STARTCHAR FEEC
ENCODING 65260
SWIDTH 420 0
DWIDTH 7 0
BBX 8 7 -1 -1
BITMAP
0C
14
28
FF
28
24
1C
ENDCHAR
STARTCHAR FEED
ENCODING 65261
SWIDTH 420 0
DWIDTH 7 0
BBX 7 7 0 -2
BITMAP
06
0A
0E
02
02
84
78
ENDCHAR
STARTCHAR FEEE
ENCODING 65262
SWIDTH 420 0
DWIDTH 7 0
BBX 7 7 0 -2
BITMAP
06
0A
0E
02
02
84
78
ENDCHAR
STARTCHAR FEEF
ENCODING 65263
SWIDTH 660 0
DWIDTH 11 0
BBX 10 9 0 -1
BITMAP
01C0
0240
4200
8400
8400
87C0
8040
8180
7E00
ENDCHAR
STARTCHAR FEF0
ENCODING 65264
SWIDTH 600 0
DWIDTH 10 0
BBX 10 5 0 -2
BITMAP
43C0
8400
8780
C080
7F00
ENDCHAR
STARTCHAR FEF1
ENCODING 65265
SWIDTH 660 0
DWIDTH 11 0
BBX 10 11 0 -3
BITMAP
01C0
0240
4200
8400
8400
87C0
8040
8180
7E00
0400
0800
ENDCHAR
STARTCHAR FEF2
ENCODING 65266
SWIDTH 600 0
DWIDTH 10 0
BBX 10 6 0 -3
BITMAP
43C0
8400
8780
C080
7F00
0C00
ENDCHAR
STARTCHAR FEF3
ENCODING 65267
SWIDTH 240 0
DWIDTH 4 0
BBX 5 9 -1 -1
BITMAP
10
08
08
08
08
F8
00
10
20
ENDCHAR
STARTCHAR FEF4
ENCODING 65268
SWIDTH 240 0
DWIDTH 4 0
BBX 5 9 -1 -1
BITMAP
10
08
08
08
08
F8
00
10
20
ENDCHAR
STARTCHAR FEF5
ENCODING 65269
SWIDTH 540 0
DWIDTH 9 0
BBX 7 13 1 1
BITMAP
E0
00
84
46
24
24
14
14
08
08
14
24
3C
ENDCHAR
STARTCHAR FEF6
ENCODING 65270
SWIDTH 600 0
DWIDTH 10 0
BBX 9 12 1 2
BITMAP
E000
0000
8200
6200
1200
0A00
0600
0200
0200
0600
0900
F180
ENDCHAR
STARTCHAR FEF7
ENCODING 65271
SWIDTH 540 0
DWIDTH 9 0
BBX 8 14 0 1
BITMAP
60
80
60
02
43
22
12
0A
0A
04
04
0A
12
1E
ENDCHAR
STARTCHAR FEF8
ENCODING 65272
SWIDTH 600 0
DWIDTH 10 0
BBX 10 13 0 2
BITMAP
6000
8000
6000
0100
4100
3100
0900
0500
0300
0100
0300
0480
78C0
ENDCHAR
STARTCHAR FEF9
ENCODING 65273
SWIDTH 540 0
DWIDTH 9 0
BBX 7 15 1 -3
BITMAP
84
46
24
24
14
14
08
08
14
24
3C
00
30
40
30
ENDCHAR
STARTCHAR FEFA
ENCODING 65274
SWIDTH 600 0
DWIDTH 10 0
BBX 9 14 1 -2
BITMAP
8200
6200
1200
0A00
0600
0200
0200
0600
0900
F180
0000
6000
8000
6000
ENDCHAR
STARTCHAR FEFB
ENCODING 65275
SWIDTH 540 0
DWIDTH 9 0
BBX 7 11 1 1
BITMAP
84
46
24
24
14
14
08
08
14
24
3C
ENDCHAR
STARTCHAR FEFC
ENCODING 65276
SWIDTH 600 0
DWIDTH 10 0
BBX 9 10 1 2
BITMAP
8200
6200
1200
0A00
0600
0200
0200
0600
0900
F180
ENDCHAR
STARTCHAR FFFC
ENCODING 65532
SWIDTH 1020 0
DWIDTH 17 0
BBX 17 12 0 0
BITMAP
E77380
800080
800080
1CE200
229200
A2E280
A29280
229200
1CEC00
800080
800080
E77380
ENDCHAR
ENDFONT
